<svg width="24" height="24" viewBox="0 0 24 24" fill="none" xmlns="http://www.w3.org/2000/svg">
<g clip-path="url(#clip0_696_3093)">
<path d="M22.3464 1.74907L22.2519 1.65457C21.1859 0.594535 19.7436 -0.000488281 18.2403 -0.000488281C16.7369 -0.000488281 15.2947 0.594535 14.2286 1.65457L9.11681 6.76792C8.05722 7.83388 7.46249 9.27581 7.46249 10.7788C7.46249 12.2818 8.05722 13.7237 9.11681 14.7897L9.2113 14.8842C9.3943 15.0687 9.58929 15.2337 9.79178 15.3867L11.6622 13.5162C11.4392 13.3857 11.2336 13.2274 11.0502 13.0452L10.9557 12.9507C10.3801 12.3742 10.0567 11.5928 10.0567 10.778C10.0567 9.96332 10.3801 9.18189 10.9557 8.60536L16.0661 3.49502C16.6426 2.91934 17.424 2.596 18.2388 2.596C19.0535 2.596 19.8349 2.91934 20.4115 3.49502L20.5059 3.58952C21.0813 4.16624 21.4043 4.94759 21.4043 5.7622C21.4043 6.57681 21.0813 7.35816 20.5059 7.93488L18.1945 10.2448C18.5917 11.2299 18.7871 12.2847 18.769 13.3467L22.3464 9.77083C23.4064 8.70481 24.0015 7.26256 24.0015 5.7592C24.0015 4.25584 23.4064 2.81359 22.3464 1.74757V1.74907ZM14.7911 9.11535C14.6098 8.93488 14.4163 8.767 14.2121 8.61286L12.3402 10.4848C12.5577 10.6138 12.7647 10.7698 12.9522 10.9558L13.0467 11.0503C13.6224 11.6268 13.9457 12.4082 13.9457 13.223C13.9457 14.0377 13.6224 14.8191 13.0467 15.3957L7.93634 20.5045C7.35982 21.0802 6.57839 21.4035 5.76366 21.4035C4.94893 21.4035 4.1675 21.0802 3.59098 20.5045L3.49648 20.41C2.92117 19.8333 2.59808 19.0519 2.59808 18.2373C2.59808 17.4227 2.92117 16.6414 3.49648 16.0646L5.80791 13.7547C5.41073 12.7696 5.21538 11.7148 5.23343 10.6528L1.65604 14.2272C0.596 15.2932 0.000976563 16.7355 0.000976562 18.2388C0.000976563 19.7422 0.596 21.1844 1.65604 22.2504L1.75054 22.3449C2.81675 23.4046 4.25892 23.9994 5.76216 23.9994C7.2654 23.9994 8.70757 23.4046 9.77378 22.3449L14.8856 17.2331C15.9457 16.1671 16.5407 14.7248 16.5407 13.2215C16.5407 11.7181 15.9457 10.2759 14.8856 9.20984L14.7911 9.11535Z" fill="#EC1C80"/>
</g>
<defs>
<clipPath id="clip0_696_3093">
<rect width="24" height="24" fill="white"/>
</clipPath>
</defs>
</svg>
