<svg width="15" height="30" viewBox="0 0 15 30" fill="none" xmlns="http://www.w3.org/2000/svg">
<path fill-rule="evenodd" clip-rule="evenodd" d="M13.87 7.58357C13.9992 8.30712 14.0853 8.99049 14.2144 9.71404C14.3005 10.0758 14.2575 10.4778 13.7839 10.719C13.5328 10.8529 13.2818 10.8474 13.0306 10.8418C12.9803 10.8407 12.9301 10.8396 12.8799 10.8396C12.5355 10.8396 12.2342 10.6788 11.8898 10.5984C11.6643 10.8089 11.6684 11.0501 11.6731 11.3219C11.6738 11.3615 11.6745 11.4017 11.6745 11.4425C11.6745 12.0455 11.9328 12.5681 12.1481 13.0906C12.4064 13.7338 12.5355 14.4171 12.3633 15.1005C12.3203 15.2613 12.2772 15.4221 12.1481 15.5427C11.8467 15.7839 11.7606 16.1054 11.7176 16.427C11.6745 16.7486 11.6315 17.1104 11.5454 17.4319C11.3732 18.2359 11.4162 19.0398 11.5454 19.8036C11.6315 20.2458 11.8898 20.6478 12.105 21.0497C12.5355 21.7733 12.8368 22.4968 12.7938 23.341C12.761 23.9831 12.8778 24.6485 12.9924 25.3017C13.0284 25.5072 13.0642 25.7116 13.0952 25.9136C13.1382 26.195 13.2674 26.4764 13.2674 26.798C13.2674 27.0793 13.1382 27.1999 12.8799 27.1999C12.5786 27.1999 12.2342 27.1195 11.9328 27.0391C11.7606 26.9989 11.5454 26.9989 11.3301 26.9989C11.1149 26.9989 10.9857 27.1195 10.9857 27.3205C11.0288 27.5215 11.0288 27.7627 11.1149 27.9637C11.201 28.2049 11.244 28.5666 11.244 28.8078C11.201 29.0088 11.0288 29.25 10.8135 29.25C10.5852 29.2287 10.3812 29.1989 10.1909 29.1711C9.66347 29.0941 9.24192 29.0326 8.70411 29.2098C8.5186 29.2675 8.34301 29.2239 8.16779 29.1804C7.97703 29.133 7.78677 29.0858 7.58482 29.1696C7.19737 29.1696 7.19737 29.1696 6.93909 29.0088C6.80675 28.7864 6.88595 28.7311 6.9666 28.6748C7.01713 28.6395 7.06821 28.6039 7.06821 28.5264C6.68078 28.4461 6.16418 28.5264 5.94895 28.5666C5.93054 28.5695 5.91167 28.5726 5.89245 28.5757C5.64217 28.6165 5.3309 28.6672 5.13101 28.4059C5.04491 28.3255 5.04491 28.2049 5.04491 28.1245C5.04491 27.6823 5.08796 27.2803 5.17404 26.8382C5.29959 26.1739 5.18105 25.5477 5.05573 24.8854L5.04491 24.8283C4.95881 24.3459 4.82966 23.9037 4.78661 23.4214C4.78661 23.2606 4.82966 23.0998 4.82966 22.939C4.82966 22.9089 4.83235 22.8787 4.83505 22.8486C4.84311 22.7581 4.85117 22.6677 4.78661 22.5772C4.48525 22.6978 4.27 22.939 4.01172 23.14C3.02158 23.9439 2.2467 24.9489 1.47178 25.9538C1.21351 26.3156 0.869099 26.6372 0.696896 27.0391C0.610794 27.2803 0.567744 27.5215 0.524693 27.7627C0.524693 27.9235 0.524693 28.1245 0.223366 28.1647C0.223366 27.8989 0.177793 27.6332 0.13222 27.3674C0.0605847 26.9498 -0.0110217 26.5322 0.0942136 26.1146C0.15518 25.83 0.108216 25.5252 0.0602948 25.2142C0.0405523 25.0863 0.0206648 24.9573 0.00811198 24.8283C-0.0349388 24.3861 0.0942136 24.2253 0.438591 24.3459C1.07673 24.4254 1.37852 24.073 1.71788 23.6768L1.73009 23.6626C2.33277 22.939 2.80633 22.1753 3.36596 21.4517C3.83952 20.8085 4.5283 20.4468 5.34624 20.3262C5.41608 20.1631 5.37262 20.0265 5.33073 19.8949C5.32099 19.8643 5.31131 19.834 5.30319 19.8036C5.08796 19.1604 5.04491 18.5173 5.04491 17.8741C5.00186 17.3516 5.00186 16.829 4.95881 16.3064C4.91576 15.8241 4.74356 15.4623 4.3561 15.1407C3.83952 14.7387 3.88257 14.0554 4.01172 13.573C4.18392 13.1308 4.5283 12.7288 4.74356 12.3269C5.00186 11.8445 5.08796 11.3621 5.04491 10.8798C5.04491 10.8396 5.04491 10.7592 5.00186 10.719C4.70051 10.518 4.5283 10.1562 4.18392 9.99543C3.75342 9.79442 3.53816 9.47285 3.27986 9.15127C3.05031 8.86548 3.09281 8.57967 3.13531 8.29372C3.14065 8.258 3.14595 8.22227 3.15073 8.18653C3.15073 8.10613 3.19378 8.06595 3.27986 8.06595C3.53816 8.06595 3.58121 8.02574 3.45206 7.82476C3.27986 7.54337 3.15073 7.22179 3.06463 6.94042C2.80633 6.25705 2.89243 5.61389 3.36596 5.05112C3.71037 4.64916 3.75342 4.08638 3.36596 3.64422C3.15073 3.40303 3.06463 3.12166 3.06463 2.84027C3.10768 2.55889 3.02158 2.3177 2.80633 2.11672C2.67718 1.99611 2.54802 1.83533 2.59107 1.63434C2.63412 1.51375 2.67718 1.39316 2.76328 1.39316C3.23684 1.31276 3.45206 0.950988 3.79647 0.75H4.22695C4.5283 1.11178 5.00186 1.11178 5.43234 1.23236C5.86285 1.35296 6.20723 1.59415 6.20723 2.03632C6.20723 2.47849 6.25028 3.00106 6.63773 3.36283C6.68078 3.40303 6.72384 3.48343 6.68078 3.52362C6.42248 3.84521 6.37943 4.24718 6.29333 4.60896C6.25028 4.76975 6.03505 4.76975 5.86285 4.72955C5.56149 4.68935 5.34624 4.68935 5.17404 4.97074C5.04491 5.25211 5.08796 5.5335 5.38929 5.69429C5.43234 5.69429 5.47539 5.73449 5.51844 5.73449C5.94895 5.93548 6.42248 6.29725 6.85299 6.49824C6.98214 6.53844 7.24042 6.69923 7.32652 6.77962C7.49872 6.94042 7.49872 7.14139 7.58482 7.26199C7.67092 7.38258 7.75703 7.46298 7.84313 7.54337C8.1014 7.70417 8.1875 7.70417 8.31666 7.42278C8.61801 6.77962 9.09154 6.29725 9.6512 5.85508C9.99558 5.5737 9.99558 5.25211 9.99558 4.85013C9.99558 4.72955 9.99558 4.64916 9.95253 4.56876H9.82341C9.52205 4.52856 9.34985 4.56876 9.13459 4.40797C9.09154 4.36777 9.09154 4.32757 9.04849 4.28737C8.96239 4.20698 8.96239 3.88541 8.96239 3.80501C8.96239 3.72461 8.91937 3.64422 8.91937 3.60402C8.87632 3.56382 8.87632 3.52362 8.87632 3.48343C8.83327 3.36283 8.83327 3.24224 8.66106 3.16184C8.53191 3.12166 8.57496 2.96086 8.66106 2.88047L8.91937 2.63928C9.04849 2.55889 9.04849 2.43829 9.00544 2.3177C8.74856 1.97503 8.96094 1.71998 9.16254 1.47787C9.19742 1.43598 9.232 1.39447 9.26375 1.35296C9.43595 1.11178 9.7373 0.950988 10.0817 0.910788C10.5122 0.870587 10.8996 0.870587 11.2871 1.07158C11.5023 1.19218 11.7176 1.35296 11.8467 1.55395C11.8898 1.55395 11.8898 1.59415 11.8898 1.59415C11.9759 1.75494 12.062 1.95593 12.105 2.11672V2.2373C12.105 2.92067 11.6315 3.32263 11.5454 3.76481V4.20698C11.5884 4.56876 11.7176 4.72955 12.1481 4.72955C12.5355 4.72955 12.8799 4.85013 13.2243 5.05112C13.6118 5.25211 13.7839 5.61389 13.827 6.01586C13.87 6.27715 13.8593 6.53844 13.8485 6.79972C13.8377 7.061 13.827 7.32229 13.87 7.58357ZM3.40901 8.30713V8.26693C3.40901 8.26693 3.40901 8.22673 3.36596 8.22673C3.36596 8.22673 3.40901 8.26693 3.40901 8.30713ZM9.6512 26.7578C9.22069 27.7225 8.83327 27.8029 8.53191 27.8029C8.05835 27.8029 7.71397 27.5617 7.36957 27.4009C7.11126 27.2803 6.85299 27.1597 6.68078 26.9185C6.5374 26.6843 6.54325 26.4221 6.54923 26.1552C6.55041 26.1016 6.55163 26.0478 6.55163 25.994C6.63773 24.9891 6.68078 23.9841 6.80994 22.9792C6.89604 22.2958 7.06821 21.5723 7.36957 20.9291C7.58482 20.487 7.62787 20.0448 7.62787 19.5624C7.67092 18.6781 7.80008 17.7937 7.88618 16.9496C7.892 16.8461 7.89864 16.7419 7.90528 16.6371C7.94781 15.968 7.99196 15.273 7.84313 14.5779C7.69246 13.98 7.77248 13.3822 7.85255 12.7841C7.86397 12.6987 7.87542 12.6133 7.88618 12.5279C7.92923 12.2465 7.97225 11.9651 7.88618 11.7239C7.84313 11.6435 7.88618 11.5631 7.84313 11.4827C7.84313 11.3621 7.88618 11.3219 8.0153 11.3219C8.1014 11.3219 8.14445 11.4023 8.14445 11.4827C8.0985 12.1691 8.15063 12.867 8.20272 13.5642C8.24827 14.1742 8.2937 14.7824 8.27361 15.3819C8.23056 16.1054 8.53191 16.7888 8.83327 17.4319C8.91934 17.5927 8.91934 17.7937 8.87632 17.9545C8.79022 18.1555 8.83327 18.3967 8.79022 18.5977C8.74716 19.08 8.87632 19.5222 9.09154 19.9242C9.17764 20.085 9.17764 20.3262 9.22069 20.487C9.3068 20.8487 9.3929 21.2507 9.5651 21.6125C9.6512 21.8537 9.69425 22.0948 9.69425 22.336C9.62021 23.1654 9.73713 23.965 9.85347 24.7609C9.87243 24.8906 9.89139 25.0202 9.90948 25.1499C9.78036 25.6724 9.82341 26.2754 9.6512 26.7578ZM11.8467 25.5116C11.8467 25.0293 11.7176 24.5469 11.5454 24.1047C11.4593 24.1449 11.4162 24.2253 11.4162 24.2253C11.3301 24.8283 11.201 25.391 11.0718 25.994C11.0288 26.1146 11.0718 26.1548 11.201 26.1548C11.5023 26.1146 11.8467 25.793 11.8467 25.5116Z" fill="#4E3292"/>
</svg>
