<svg width="40" height="40" viewBox="0 0 40 40" fill="none" xmlns="http://www.w3.org/2000/svg">
<circle cx="20" cy="20" r="20" fill="#E1D7F0"/>
<circle cx="33.5" cy="6.5" r="6.5" fill="#543191"/>
<path d="M31 5.75C30.5858 5.75 30.25 6.08579 30.25 6.5C30.25 6.91421 30.5858 7.25 31 7.25V5.75ZM36 7.25C36.4142 7.25 36.75 6.91421 36.75 6.5C36.75 6.08579 36.4142 5.75 36 5.75V7.25ZM31 7.25H36V5.75H31V7.25Z" fill="white"/>
<path d="M26.9657 20.32H28.4571C28.6457 20.32 28.8 20.16 28.8 19.9644V18.0978C28.8 17.9022 28.6457 17.7422 28.4571 17.7422H26.9657V12C26.2286 12 25.5771 12.2844 25.0457 12.8356C24.5143 13.3867 24.24 14.0622 24.24 14.8267V15.36H20.4C18.6 15.36 17.04 16.0178 15.7543 17.3156C15.6171 17.4578 15.4971 17.5822 15.3771 17.7244H12.3429C12.1543 17.7244 12 17.8844 12 18.08V19.9467C12 20.1422 12.1543 20.3022 12.3429 20.3022H14.0229C13.8857 20.8533 13.8171 21.44 13.8171 22.0622C13.8171 22.3289 13.8343 22.5778 13.8514 22.8444H12.3429C12.1543 22.8444 12 23.0044 12 23.2V25.0667C12 25.2622 12.1543 25.4222 12.3429 25.4222H14.6743C14.9657 25.92 15.3257 26.4 15.7543 26.8267C17.0571 28.1422 18.6 28.8 20.3829 28.8C22.1829 28.8 23.7257 28.1422 25.0114 26.8267C25.44 26.3822 25.8 25.92 26.0914 25.4222H28.4571C28.6457 25.4222 28.8 25.2622 28.8 25.0667V23.2C28.8 23.0044 28.6457 22.8444 28.4571 22.8444H26.9143C26.9486 22.5956 26.9486 22.3289 26.9486 22.0622V20.32H26.9657ZM24.2229 22.08C24.2229 23.1822 23.8457 24.1422 23.1086 24.9422C22.3714 25.7422 21.4629 26.1511 20.4 26.1511C19.3371 26.1511 18.4286 25.7422 17.6914 24.9422C16.9543 24.1422 16.5771 23.1822 16.5771 22.08C16.5771 20.9778 16.9543 20.0178 17.6914 19.2356C18.4286 18.4533 19.3371 18.0444 20.4 18.0444H24.2229V22.08Z" fill="#4E3292"/>
</svg>
