<svg width="20" height="20" viewBox="0 0 20 20" fill="none" xmlns="http://www.w3.org/2000/svg">
<circle cx="10" cy="10" r="10" fill="white"/>
<path d="M14.4953 10.2123L15.2381 10.3157L14.4953 10.2123ZM14.3117 11.5318L15.0545 11.6352L14.3117 11.5318ZM5.55485 11.5318L6.29769 11.4284L5.55485 11.5318ZM5.37121 10.2123L4.62837 10.3157V10.3157L5.37121 10.2123ZM7.9618 16.4824L7.67021 17.1734H7.67021L7.9618 16.4824ZM6.06581 14.2589L6.7698 14.0002L6.7698 14.0002L6.06581 14.2589ZM13.8007 14.2589L14.5047 14.5175L13.8007 14.2589ZM11.9047 16.4824L11.6131 15.7914L11.9047 16.4824ZM5.77989 7.49572C5.74071 7.08336 5.37467 6.78084 4.96231 6.82002C4.54996 6.8592 4.24744 7.22524 4.28661 7.6376L5.77989 7.49572ZM15.5799 7.6376C15.6191 7.22524 15.3165 6.8592 14.9042 6.82002C14.4918 6.78084 14.1258 7.08336 14.0866 7.49572L15.5799 7.6376ZM15.5332 6.91666C15.9475 6.91666 16.2832 6.58087 16.2832 6.16666C16.2832 5.75244 15.9475 5.41666 15.5332 5.41666V6.91666ZM4.33325 5.41666C3.91904 5.41666 3.58325 5.75244 3.58325 6.16666C3.58325 6.58087 3.91904 6.91666 4.33325 6.91666V5.41666ZM7.78325 13.8667C7.78325 14.2809 8.11904 14.6167 8.53325 14.6167C8.94746 14.6167 9.28325 14.2809 9.28325 13.8667H7.78325ZM9.28325 8.26666C9.28325 7.85244 8.94746 7.51666 8.53325 7.51666C8.11904 7.51666 7.78325 7.85244 7.78325 8.26666H9.28325ZM10.5833 13.8667C10.5833 14.2809 10.919 14.6167 11.3333 14.6167C11.7475 14.6167 12.0833 14.2809 12.0833 13.8667H10.5833ZM12.0833 8.26666C12.0833 7.85244 11.7475 7.51666 11.3333 7.51666C10.919 7.51666 10.5833 7.85244 10.5833 8.26666H12.0833ZM12.7333 6.16666V6.91666H13.4833V6.16666H12.7333ZM7.13325 6.16666H6.38325V6.91666H7.13325V6.16666ZM13.7524 10.1089L13.5688 11.4284L15.0545 11.6352L15.2381 10.3157L13.7524 10.1089ZM6.29769 11.4284L6.11405 10.1089L4.62837 10.3157L4.81201 11.6352L6.29769 11.4284ZM9.93325 15.9167C8.84262 15.9167 8.5165 15.9025 8.25339 15.7914L7.67021 17.1734C8.28021 17.4308 8.97737 17.4167 9.93325 17.4167V15.9167ZM4.81201 11.6352C5.00618 13.0304 5.11547 13.847 5.36182 14.5175L6.7698 14.0002C6.59297 13.5189 6.50268 12.9014 6.29769 11.4284L4.81201 11.6352ZM8.25339 15.7914C7.68082 15.5498 7.11611 14.9428 6.7698 14.0002L5.36182 14.5175C5.80686 15.7288 6.61008 16.7261 7.67021 17.1734L8.25339 15.7914ZM13.5688 11.4284C13.3638 12.9014 13.2735 13.5189 13.0967 14.0002L14.5047 14.5175C14.751 13.847 14.8603 13.0304 15.0545 11.6352L13.5688 11.4284ZM9.93325 17.4167C10.8891 17.4167 11.5863 17.4308 12.1963 17.1734L11.6131 15.7914C11.35 15.9025 11.0239 15.9167 9.93325 15.9167V17.4167ZM13.0967 14.0002C12.7504 14.9428 12.1857 15.5498 11.6131 15.7914L12.1963 17.1734C13.2564 16.7261 14.0596 15.7288 14.5047 14.5175L13.0967 14.0002ZM6.11405 10.1089C5.9583 8.98975 5.84303 8.16028 5.77989 7.49572L4.28661 7.6376C4.35356 8.34222 4.47439 9.20927 4.62837 10.3157L6.11405 10.1089ZM15.2381 10.3157C15.3921 9.20927 15.5129 8.34222 15.5799 7.6376L14.0866 7.49572C14.0235 8.16028 13.9082 8.98975 13.7524 10.1089L15.2381 10.3157ZM15.5332 5.41666H4.33325V6.91666H15.5332V5.41666ZM9.28325 13.8667V8.26666H7.78325V13.8667H9.28325ZM12.0833 13.8667V8.26666H10.5833V13.8667H12.0833ZM11.9833 5.46666V6.16666H13.4833V5.46666H11.9833ZM12.7333 5.41666H7.13325V6.91666H12.7333V5.41666ZM7.88325 6.16666V5.46666H6.38325V6.16666H7.88325ZM9.93325 3.41666C11.0654 3.41666 11.9833 4.33447 11.9833 5.46666H13.4833C13.4833 3.50605 11.8939 1.91666 9.93325 1.91666V3.41666ZM9.93325 1.91666C7.97264 1.91666 6.38325 3.50605 6.38325 5.46666H7.88325C7.88325 4.33447 8.80107 3.41666 9.93325 3.41666V1.91666Z" fill="#EC1C80"/>
</svg>
