<svg width="20" height="20" viewBox="0 0 20 20" fill="none" xmlns="http://www.w3.org/2000/svg">
<path d="M14.3482 9.71139H15.3887C15.5203 9.71139 15.6279 9.59976 15.6279 9.46333V8.161C15.6279 8.02457 15.5203 7.91294 15.3887 7.91294H14.3482V3.90674C13.8339 3.90674 13.3794 4.10519 13.0086 4.48968C12.6379 4.87418 12.4465 5.3455 12.4465 5.87883V6.25092H9.76745C8.51163 6.25092 7.42326 6.70984 6.52625 7.61526C6.43057 7.71449 6.34685 7.80131 6.26313 7.90054H4.14619C4.01462 7.90054 3.90698 8.01216 3.90698 8.1486V9.45092C3.90698 9.58736 4.01462 9.69899 4.14619 9.69899H5.31828C5.2226 10.0835 5.17476 10.4928 5.17476 10.9269C5.17476 11.1129 5.18672 11.2866 5.19868 11.4726H4.14619C4.01462 11.4726 3.90698 11.5843 3.90698 11.7207V13.023C3.90698 13.1595 4.01462 13.2711 4.14619 13.2711H5.77276C5.97609 13.6184 6.22725 13.9532 6.52625 14.2509C7.43522 15.1688 8.51163 15.6277 9.75549 15.6277C11.0113 15.6277 12.0877 15.1688 12.9847 14.2509C13.2837 13.9408 13.5349 13.6184 13.7382 13.2711H15.3887C15.5203 13.2711 15.6279 13.1595 15.6279 13.023V11.7207C15.6279 11.5843 15.5203 11.4726 15.3887 11.4726H14.3123C14.3362 11.299 14.3362 11.1129 14.3362 10.9269V9.71139H14.3482ZM12.4346 10.9393C12.4346 11.7083 12.1714 12.3781 11.6571 12.9362C11.1429 13.4943 10.509 13.7796 9.76745 13.7796C9.02592 13.7796 8.39203 13.4943 7.87775 12.9362C7.36346 12.3781 7.10034 11.7083 7.10034 10.9393C7.10034 10.1703 7.36346 9.50054 7.87775 8.9548C8.39203 8.40906 9.02592 8.12379 9.76745 8.12379H12.4346V10.9393Z" fill="#4E3292"/>
<path fill-rule="evenodd" clip-rule="evenodd" d="M0 10C0 4.47715 4.47715 0 10 0C15.5228 0 20 4.47715 20 10C20 11.9032 19.4683 13.6822 18.5454 15.1966L17.525 14.1762C18.2129 12.9395 18.6047 11.5155 18.6047 10C18.6047 5.24778 14.7522 1.39535 10 1.39535C5.24778 1.39535 1.39535 5.24778 1.39535 10C1.39535 14.7522 5.24778 18.6047 10 18.6047C10.5934 18.6047 11.1729 18.5446 11.7325 18.4302L12.8811 19.5787C11.9687 19.8528 11.0016 20 10 20C4.47715 20 0 15.5228 0 10Z" fill="#4E3292"/>
<path d="M16.2279 14.5117C16.2279 14.1803 15.9593 13.9117 15.6279 13.9117C15.2965 13.9117 15.0279 14.1803 15.0279 14.5117H16.2279ZM18.2867 17.6132C18.5199 17.3778 18.5182 16.9979 18.2829 16.7647C18.0475 16.5314 17.6676 16.5331 17.4344 16.7685L18.2867 17.6132ZM17.0803 17.978L17.5065 18.4004L17.0803 17.978ZM14.1755 17.978L14.6017 17.5557L14.6017 17.5557L14.1755 17.978ZM13.8215 16.7685C13.5882 16.5331 13.2083 16.5314 12.973 16.7647C12.7376 16.9979 12.7359 17.3778 12.9692 17.6132L13.8215 16.7685ZM15.7678 18.968L15.8437 19.5632H15.8437L15.7678 18.968ZM15.488 18.968L15.4121 19.5632H15.4121L15.488 18.968ZM15.0279 18.968C15.0279 19.2994 15.2965 19.568 15.6279 19.568C15.9593 19.568 16.2279 19.2994 16.2279 18.968H15.0279ZM15.0279 14.5117V18.5304H16.2279V14.5117H15.0279ZM17.4344 16.7685L16.6541 17.5557L17.5065 18.4004L18.2867 17.6132L17.4344 16.7685ZM14.6017 17.5557L13.8215 16.7685L12.9692 17.6132L13.7494 18.4004L14.6017 17.5557ZM16.6541 17.5557C16.3331 17.8796 16.1274 18.0858 15.9572 18.2225C15.7965 18.3515 15.7267 18.3684 15.692 18.3728L15.8437 19.5632C16.1881 19.5193 16.4634 19.355 16.7086 19.1581C16.9444 18.9688 17.2053 18.7043 17.5065 18.4004L16.6541 17.5557ZM13.7494 18.4004C14.0505 18.7043 14.3115 18.9688 14.5472 19.1581C14.7924 19.355 15.0677 19.5193 15.4121 19.5632L15.5639 18.3728C15.5291 18.3684 15.4593 18.3515 15.2986 18.2225C15.1284 18.0858 14.9227 17.8796 14.6017 17.5557L13.7494 18.4004ZM15.692 18.3728C15.6494 18.3783 15.6064 18.3783 15.5639 18.3728L15.4121 19.5632C15.5554 19.5815 15.7004 19.5815 15.8437 19.5632L15.692 18.3728ZM15.0279 18.5304V18.968H16.2279V18.5304H15.0279Z" fill="#EC1C80"/>
</svg>
