<svg width="24" height="24" viewBox="0 0 24 24" fill="none" xmlns="http://www.w3.org/2000/svg">
<path fill-rule="evenodd" clip-rule="evenodd" d="M11.95 1.19995C6.01289 1.19995 1.19995 6.01289 1.19995 11.95C1.19995 17.887 6.01289 22.7 11.95 22.7C17.887 22.7 22.7 17.887 22.7 11.95C22.7 6.01289 17.887 1.19995 11.95 1.19995ZM2.69995 11.95C2.69995 6.84132 6.84132 2.69995 11.95 2.69995C17.0586 2.69995 21.2 6.84132 21.2 11.95C21.2 17.0586 17.0586 21.2 11.95 21.2C6.84132 21.2 2.69995 17.0586 2.69995 11.95Z" fill="#4E3292"/>
<path d="M16.6242 11.6399H17.7428C17.8842 11.6399 17.9999 11.5199 17.9999 11.3732V9.97324C17.9999 9.82657 17.8842 9.70657 17.7428 9.70657H16.6242V5.3999C16.0713 5.3999 15.5828 5.61324 15.1842 6.02657C14.7856 6.4399 14.5799 6.94657 14.5799 7.5199V7.9199H11.6999C10.3499 7.9199 9.1799 8.41324 8.21562 9.38657C8.11276 9.49324 8.02276 9.58657 7.93276 9.69324H5.65705C5.51562 9.69324 5.3999 9.81324 5.3999 9.9599V11.3599C5.3999 11.5066 5.51562 11.6266 5.65705 11.6266H6.91705C6.81419 12.0399 6.76276 12.4799 6.76276 12.9466C6.76276 13.1466 6.77562 13.3332 6.78847 13.5332H5.65705C5.51562 13.5332 5.3999 13.6532 5.3999 13.7999V15.1999C5.3999 15.3466 5.51562 15.4666 5.65705 15.4666H7.40562C7.62419 15.8399 7.89419 16.1999 8.21562 16.5199C9.19276 17.5066 10.3499 17.9999 11.687 17.9999C13.037 17.9999 14.1942 17.5066 15.1585 16.5199C15.4799 16.1866 15.7499 15.8399 15.9685 15.4666H17.7428C17.8842 15.4666 17.9999 15.3466 17.9999 15.1999V13.7999C17.9999 13.6532 17.8842 13.5332 17.7428 13.5332H16.5856C16.6113 13.3466 16.6113 13.1466 16.6113 12.9466V11.6399H16.6242ZM14.567 12.9599C14.567 13.7866 14.2842 14.5066 13.7313 15.1066C13.1785 15.7066 12.497 16.0132 11.6999 16.0132C10.9028 16.0132 10.2213 15.7066 9.66847 15.1066C9.11562 14.5066 8.83276 13.7866 8.83276 12.9599C8.83276 12.1332 9.11562 11.4132 9.66847 10.8266C10.2213 10.2399 10.9028 9.93324 11.6999 9.93324H14.567V12.9599Z" fill="#4E3292"/>
</svg>
