<svg width="36" height="36" viewBox="0 0 36 36" fill="none" xmlns="http://www.w3.org/2000/svg">
<circle cx="18" cy="18" r="18" fill="#E1D7F0"/>
<path d="M24.1439 17.419H25.6531C25.8439 17.419 26 17.2571 26 17.0593V15.1704C26 14.9725 25.8439 14.8106 25.6531 14.8106H24.1439V9C23.398 9 22.7388 9.28783 22.201 9.8455C21.6633 10.4032 21.3857 11.0868 21.3857 11.8603V12.4H17.5C15.6786 12.4 14.1 13.0656 12.799 14.3788C12.6602 14.5228 12.5388 14.6487 12.4173 14.7926H9.34694C9.15612 14.7926 9 14.9545 9 15.1524V17.0413C9 17.2392 9.15612 17.4011 9.34694 17.4011H11.0469C10.9082 17.9587 10.8388 18.5524 10.8388 19.182C10.8388 19.4519 10.8561 19.7037 10.8735 19.9735H9.34694C9.15612 19.9735 9 20.1354 9 20.3333V22.2222C9 22.4201 9.15612 22.582 9.34694 22.582H11.7061C12.001 23.0857 12.3653 23.5714 12.799 24.0032C14.1173 25.3344 15.6786 26 17.4827 26C19.3041 26 20.8653 25.3344 22.1663 24.0032C22.6 23.5534 22.9643 23.0857 23.2592 22.582H25.6531C25.8439 22.582 26 22.4201 26 22.2222V20.3333C26 20.1354 25.8439 19.9735 25.6531 19.9735H24.0918C24.1265 19.7217 24.1265 19.4519 24.1265 19.182V17.419H24.1439ZM21.3684 19.2C21.3684 20.3153 20.9867 21.2868 20.2408 22.0963C19.4949 22.9058 18.5755 23.3196 17.5 23.3196C16.4245 23.3196 15.5051 22.9058 14.7592 22.0963C14.0133 21.2868 13.6316 20.3153 13.6316 19.2C13.6316 18.0847 14.0133 17.1132 14.7592 16.3217C15.5051 15.5302 16.4245 15.1164 17.5 15.1164H21.3684V19.2Z" fill="#4E3292"/>
</svg>
