<svg width="209" height="156" viewBox="0 0 209 156" fill="none" xmlns="http://www.w3.org/2000/svg">
<path d="M147.719 58.6711L147.337 57.9504C147.179 57.6576 145.602 54.6396 143.215 50.8333C144.161 49.9324 144.949 48.8288 145.512 47.545C146.616 45.0225 146.773 42.0495 145.895 39.3468C145.467 37.9955 144.724 36.7793 143.733 35.7432C142.652 34.6171 141.278 33.6937 139.656 33.0405C140.625 31.4865 141.21 29.8648 141.391 28.2432C141.548 26.9144 141.413 25.563 140.985 24.3018C140.107 21.6216 138.237 19.2793 135.85 17.9054C134.679 17.2297 133.418 16.8018 132.156 16.6216C131.796 12.3423 131.301 9.14412 131.255 8.82881L131.12 8.01799L130.31 8.15313C129.994 8.19817 126.841 8.73872 122.719 9.75223C122.156 8.49097 121.323 7.34232 120.219 6.37385C118.17 4.527 115.377 3.49097 112.539 3.46845C111.188 3.46845 109.882 3.76124 108.665 4.30178C107.179 4.97745 105.805 6.03601 104.656 7.43241C103.485 6.03601 102.134 4.97745 100.67 4.30178C99.4312 3.73872 98.1249 3.44592 96.7735 3.44592H96.751C93.9357 3.44592 91.1204 4.50448 89.0708 6.35133C87.9672 7.34232 87.1113 8.51349 86.5483 9.79727C82.269 8.78376 78.9807 8.24322 78.6654 8.19817L77.8546 8.06304L77.742 8.87385C77.6969 9.18917 77.2465 12.2297 76.9312 16.3739C73.0573 16.9369 69.5438 19.8198 68.1474 24.054C67.742 25.3153 67.6068 26.6216 67.742 27.9504C67.9222 29.5946 68.5077 31.2387 69.4987 32.8153C67.8771 33.4459 66.5258 34.3693 65.4447 35.473C64.4537 36.509 63.7104 37.7252 63.26 39.0991C62.3816 41.7793 62.5393 44.7748 63.6429 47.2973C64.2285 48.6036 65.0393 49.7522 66.0303 50.6531C63.5978 54.5946 61.9987 57.7477 61.8411 58.0405L61.4807 58.7612L62.2014 59.1216C62.4942 59.2567 65.3996 60.6982 69.3861 62.3198C69.251 63.4459 69.2735 64.5946 69.5438 65.7657C70.1294 68.4684 71.7735 70.9459 74.0483 72.6126C75.1744 73.4234 76.4357 73.9639 77.8095 74.2342C79.3636 74.5495 81.0528 74.482 82.787 74.0315C82.8996 75.7207 83.3276 77.2748 84.0258 78.6261C84.7014 79.9324 85.6474 81.036 86.8411 81.8919C88.8231 83.3333 91.2555 84.1216 93.6654 84.1216C94.0258 84.1216 94.4086 84.0991 94.769 84.0765C96.0303 83.9414 97.2014 83.6036 98.2825 83.063C101.301 86.6216 103.846 89.1666 104.093 89.4144L104.679 90L105.242 89.4144C105.467 89.1892 107.877 86.7117 110.783 83.2657C112.179 83.9414 113.755 84.3018 115.355 84.3018C117.674 84.3018 120.039 83.5811 122.111 82.072C123.283 81.2162 124.228 80.1351 124.904 78.8513C125.625 77.5 126.053 75.9234 126.165 74.2117C127.877 74.6396 129.521 74.7072 131.075 74.4144C132.472 74.1441 133.755 73.6036 134.904 72.7702C138.395 70.2252 140.039 66.1711 139.544 62.3874C143.665 60.6757 146.706 59.1441 146.999 58.9865L147.719 58.6711ZM135.084 19.3243C137.134 20.518 138.733 22.5225 139.499 24.8198C139.792 25.7207 139.904 26.6441 139.859 27.5901C139.769 29.2117 139.206 30.8784 138.147 32.4549L137.201 33.8288L138.778 34.4369C140.467 35.0675 141.864 35.991 142.877 37.1847C143.553 37.9729 144.048 38.8513 144.364 39.8198C145.107 42.1396 144.994 44.7072 144.048 46.8693C143.62 47.8378 143.035 48.6937 142.337 49.4144C141.165 47.6126 139.859 45.6982 138.44 43.8513C136.143 40.8558 133.598 38.0405 131.075 36.2387C132.134 33.1081 132.517 28.9865 132.539 24.8648C132.562 22.6126 132.472 20.3603 132.314 18.2883C133.283 18.4684 134.206 18.8063 135.084 19.3243ZM117.674 49.5946C118.102 50 118.463 50.4279 118.778 50.8558C122.269 55.6531 120.377 63.3333 119.769 65.4504C117.562 65.3829 109.679 64.7973 106.188 60C105.873 59.572 105.602 59.0991 105.332 58.5585L104.611 57.027L103.891 58.5585C103.643 59.0991 103.35 59.572 103.035 60C99.5438 64.7973 91.6609 65.3829 89.4537 65.4504C88.8456 63.3333 86.9537 55.6531 90.4447 50.8558C90.76 50.4279 91.1204 50 91.5483 49.5946L92.7645 48.4234L91.0978 48.1982C90.5122 48.1081 89.9717 47.9955 89.4537 47.8378C83.8906 46.036 80.8951 38.8738 80.1068 36.6892L80.0843 36.5991C81.9086 35.3603 88.6204 31.1937 94.251 33.0405C94.769 33.1982 95.2645 33.4234 95.7825 33.7162L97.269 34.527L96.9537 32.8603C96.8411 32.2748 96.796 31.7342 96.796 31.1937C96.796 25.3603 102.652 20.3153 104.499 18.8738L104.656 18.9865L104.746 18.9189C106.661 20.4279 112.359 25.4054 112.359 31.1711C112.359 31.7117 112.314 32.2522 112.201 32.8378L111.886 34.5045L113.373 33.6937C113.891 33.4009 114.409 33.1982 114.904 33.018C120.535 31.1937 127.269 35.3603 129.093 36.5991C128.35 38.6711 125.355 45.991 119.724 47.8153C119.206 47.9729 118.688 48.1081 118.08 48.1757L116.413 48.4009L117.674 49.5946ZM85.0843 47.1847C81.7059 49.1892 78.9582 50.3153 76.7735 50.9234C72.3591 52.1621 70.287 51.2838 70.2645 51.2838L70.1519 51.2387C69.4762 51.0135 68.8231 50.6982 68.2375 50.3153C69.3411 48.5811 70.5573 46.7793 71.8636 45.0225C74.0258 42.1171 76.4131 39.3919 78.733 37.6576C79.5438 39.7297 81.5483 44.2567 85.0843 47.1847ZM130.445 37.7928C132.81 39.572 135.219 42.3198 137.427 45.2477C138.733 46.982 139.972 48.8063 141.075 50.4955C140.467 50.9009 139.814 51.2387 139.093 51.4639L138.981 51.509C138.936 51.5315 136.864 52.4099 132.404 51.1486C130.197 50.518 127.427 49.3693 124.003 47.3198C127.562 44.4594 129.611 39.9549 130.445 37.7928ZM130.918 24.3693C130.918 28.1982 130.625 32.072 129.746 35.0675C127.922 33.8513 123.35 31.1486 118.53 30.9684C120.242 26.8919 121.976 24.1441 123.508 22.2973C126.21 19.0315 128.237 18.5811 128.26 18.5585L128.373 18.536C129.116 18.2883 129.904 18.1757 130.67 18.1531C130.805 20.1126 130.918 22.2297 130.918 24.3693ZM123.62 13.6937C123.62 12.8829 123.508 12.0946 123.305 11.3288C126.21 10.6081 128.62 10.1351 129.814 9.90989C129.994 11.1036 130.31 13.536 130.557 16.5315C129.679 16.554 128.801 16.6892 127.922 16.982C127.449 17.072 125.129 17.7477 122.246 21.2612C120.535 23.3558 118.598 26.4414 116.751 31.0135C115.985 31.0811 115.219 31.2387 114.454 31.4865C114.296 31.5315 114.161 31.5991 114.003 31.6441C114.003 31.4865 114.026 31.3288 114.026 31.1711C114.026 30.3153 113.913 29.4594 113.733 28.6486C117.472 25.518 119.792 22.7702 121.255 20.4955C123.755 16.6216 123.665 14.1666 123.62 13.6937ZM121.999 13.7387V13.8513C121.999 13.8964 122.201 15.991 119.882 19.6171C118.598 21.6441 116.526 24.1216 113.192 26.982C111.571 22.7027 107.9 19.3693 106.098 17.9279C108.665 16.1711 112.224 14.6621 115.85 13.4684C117.832 12.8153 119.859 12.2297 121.728 11.7342C121.909 12.3874 121.999 13.0405 121.999 13.7387ZM90.1969 7.61259C91.9537 6.03601 94.3636 5.13511 96.796 5.13511C96.796 5.13511 96.796 5.13511 96.8185 5.13511C97.7645 5.13511 98.7104 5.31529 99.5888 5.65313C101.098 6.23872 102.494 7.29727 103.643 8.76124L104.656 10.0901L105.715 8.78376C106.886 7.29727 108.283 6.23872 109.814 5.65313C110.692 5.31529 111.616 5.13511 112.562 5.13511C112.562 5.13511 112.562 5.13511 112.584 5.13511C115.017 5.13511 117.427 6.03601 119.183 7.61259C120.017 8.35583 120.692 9.23421 121.143 10.2027C119.161 10.7207 116.999 11.3513 114.882 12.072C111.098 13.3558 107.382 14.9775 104.724 16.9144L104.589 16.8243L104.544 16.8468C101.931 14.9324 98.26 13.3558 94.4987 12.0946C92.3591 11.3739 90.1969 10.7657 88.1699 10.2477C88.6654 9.27926 89.3411 8.37836 90.1969 7.61259ZM87.3816 13.8513V13.7387C87.3816 13.063 87.4717 12.4324 87.6294 11.7793C89.5213 12.2522 91.5483 12.8153 93.5303 13.4684C97.1339 14.6396 100.647 16.1036 103.17 17.8378C101.413 19.2567 97.7194 22.5901 96.0528 26.8693C92.7645 24.009 90.7149 21.5315 89.4312 19.527C87.2014 15.9684 87.3816 13.8964 87.3816 13.8513ZM79.2735 9.99998C80.5122 10.2252 83.0348 10.6982 86.0753 11.4189C85.8951 12.1621 85.7825 12.9279 85.7825 13.7162C85.7375 14.1892 85.6474 16.6216 88.1023 20.4729C89.5438 22.7252 91.8411 25.4504 95.5348 28.5811C95.3321 29.4369 95.1969 30.3153 95.1969 31.2162C95.1969 31.3738 95.1969 31.5315 95.2195 31.6892C95.0618 31.6216 94.9267 31.5766 94.769 31.5315C94.0483 31.3063 93.305 31.1486 92.5618 31.0585C90.7149 26.4414 88.8005 23.3333 87.0888 21.1937C84.1609 17.5675 81.7735 16.8693 81.3005 16.7793C80.4222 16.4865 79.5213 16.3513 78.6204 16.3288C78.8456 13.4684 79.1158 11.1486 79.2735 9.99998ZM78.5077 17.9504C79.296 17.9729 80.0618 18.0856 80.8501 18.3333L80.9627 18.3558C81.0077 18.3558 83.1023 18.7838 85.8501 22.1847C87.3816 24.054 89.0933 26.8468 90.805 30.9684C86.0077 31.1036 81.4357 33.7612 79.5438 35.0225C78.6429 31.9594 78.3276 27.9955 78.305 24.0991C78.3276 21.982 78.3951 19.8648 78.5077 17.9504ZM65.1969 46.6666C64.251 44.5045 64.1158 41.9369 64.8816 39.6171C65.1969 38.6261 65.7149 37.7477 66.3906 36.9594C67.4041 35.7883 68.778 34.8423 70.4672 34.2342L72.0438 33.6711L71.1204 32.2522C70.0393 30.6531 69.4762 28.9639 69.4086 27.3198C69.3636 26.3964 69.4987 25.4729 69.769 24.5946C70.9176 21.1036 73.733 18.6711 76.8861 18.0856C76.7735 20.1351 76.6834 22.3648 76.7059 24.5946C76.751 28.6937 77.1339 32.8603 78.1924 36.036C75.6699 37.8153 73.1474 40.6306 70.8501 43.6711C69.4537 45.518 68.1474 47.4549 66.9762 49.2793C66.233 48.5585 65.6249 47.6802 65.1969 46.6666ZM63.733 58.0856C64.3411 56.9369 65.6699 54.5045 67.4041 51.6892C68.0798 52.1396 68.8231 52.5 69.6339 52.7702C69.9041 52.8829 70.8501 53.2432 72.5393 53.2432C73.733 53.2432 75.287 53.063 77.2465 52.5225C79.7014 51.8243 82.787 50.5405 86.5258 48.2432C87.2915 48.7162 88.1023 49.1216 88.9807 49.4144C89.1384 49.4594 89.2735 49.5045 89.4312 49.5495C89.3411 49.6847 89.2285 49.7973 89.1384 49.9324C88.733 50.4955 88.3951 51.0811 88.1023 51.6892C83.4852 52.0045 80.1068 52.7702 77.6068 53.6711C72.8771 55.3829 71.4131 57.545 71.1654 57.9955C70.5348 58.8513 70.0843 59.7973 69.769 60.7883C67.0213 59.6396 64.814 58.6036 63.733 58.0856ZM71.3005 61.3513C71.5483 60.4729 71.9537 59.6396 72.5167 58.8738L72.5843 58.7612C72.6068 58.7162 73.7104 56.7342 78.1924 55.1126C80.3996 54.3243 83.3951 53.6261 87.4942 53.2883C86.0303 58.018 87.224 63.3784 87.8321 65.5405C84.7465 65.4955 81.0077 64.6396 77.3816 63.491C75.242 62.8603 73.1699 62.0946 71.3005 61.3513ZM94.6113 82.5225C92.269 82.7702 89.7915 82.072 87.8095 80.6531C86.9537 80.0225 86.233 79.2342 85.6924 78.3108C84.9267 77.0045 84.4762 75.4279 84.4086 73.6711L84.3636 72.0045L82.742 72.4549C80.9627 72.9504 79.251 73.018 77.6969 72.6126C76.7285 72.3648 75.8501 71.9594 75.0393 71.3738C73.0798 69.9324 71.6609 67.7928 71.1654 65.4955C70.9852 64.6621 70.9402 63.8288 70.9852 62.9955C72.9672 63.7612 75.1294 64.5495 77.3366 65.2252C81.0528 66.3513 84.8591 67.1847 88.0573 67.1847C88.1023 67.1847 88.1249 67.1847 88.1699 67.1847C89.0708 70.045 90.8951 73.2432 93.0122 76.3063C94.3636 78.2432 95.8276 80.1351 97.224 81.8468C96.4131 82.2072 95.5348 82.4324 94.6113 82.5225ZM98.6654 81.036C97.314 79.4144 95.9176 77.6126 94.6113 75.7657C92.5393 72.8378 90.7375 69.7747 89.814 67.0495C91.9762 66.9594 97.224 66.4865 101.255 63.8288C102.066 67.4549 102.314 70.3153 102.246 72.5225C102.111 77.3423 100.58 79.0991 100.557 79.1216L100.467 79.2117C99.9717 79.9324 99.3636 80.5405 98.6654 81.036ZM104.656 87.7477C103.755 86.8018 101.864 84.8198 99.7014 82.2747C100.49 81.6892 101.188 81.0135 101.774 80.2027C102.111 79.8198 103.755 77.7252 103.891 72.6126C103.958 70.1126 103.665 66.8693 102.674 62.7477C103.283 62.2072 103.846 61.6216 104.341 60.9459C104.431 60.8108 104.521 60.6757 104.611 60.563C104.701 60.6982 104.792 60.8333 104.882 60.9459C105.332 61.554 105.828 62.0946 106.368 62.5901C105.332 66.7793 105.039 70.0675 105.084 72.6126C105.197 77.8153 106.864 79.9549 107.201 80.3378C107.81 81.1711 108.553 81.8919 109.341 82.4549C107.314 84.9099 105.535 86.8243 104.656 87.7477ZM110.4 81.2162C109.679 80.7207 109.026 80.0901 108.485 79.3468L108.418 79.2567C108.395 79.2342 106.841 77.4549 106.728 72.5675C106.683 70.3153 106.931 67.3874 107.787 63.6711C111.728 66.3738 116.976 66.9144 119.251 67.027C118.328 69.8198 116.481 72.9504 114.386 75.9459C113.08 77.8153 111.706 79.5946 110.4 81.2162ZM137.81 65.6306C137.314 67.9279 135.895 70.0901 133.936 71.509C133.125 72.0946 132.201 72.5225 131.21 72.7702C129.679 73.1531 127.99 73.0856 126.255 72.5901L124.656 72.1171L124.566 73.8063C124.521 75.2027 124.206 76.9144 123.26 78.491C122.764 79.3243 122.089 80.1126 121.165 80.7883C118.283 82.8829 114.701 83.2207 111.841 82.0045C113.215 80.3153 114.656 78.4234 115.985 76.4865C118.102 73.4234 119.949 70.1802 120.873 67.2747C120.94 67.2747 121.03 67.2747 121.098 67.2747C124.206 67.2747 127.922 66.4639 131.571 65.3378C133.801 64.6396 135.985 63.8513 137.99 63.063C138.057 63.8964 138.012 64.7747 137.81 65.6306ZM121.819 53.491C125.828 53.8513 128.778 54.572 130.94 55.3603C135.242 56.9594 136.391 58.8738 136.413 58.8964L136.481 59.009C137.021 59.7522 137.427 60.563 137.674 61.4414C135.76 62.2072 133.665 62.973 131.548 63.6486C128.012 64.7748 124.386 65.6306 121.391 65.6757C121.976 63.6261 123.215 58.2657 121.819 53.491ZM139.183 60.8333C138.891 59.8648 138.44 58.9639 137.81 58.1081C137.562 57.6802 136.12 55.563 131.548 53.8513C129.093 52.9504 125.76 52.1621 121.21 51.8243C120.918 51.1486 120.535 50.518 120.107 49.9099C120.017 49.7747 119.927 49.6621 119.814 49.527C119.972 49.482 120.129 49.4369 120.264 49.3919C121.075 49.1216 121.841 48.7612 122.539 48.3333C126.346 50.6757 129.454 52.0045 131.931 52.7027C133.913 53.2657 135.49 53.4459 136.683 53.4459C138.373 53.4459 139.341 53.0856 139.589 52.9729C140.422 52.7027 141.188 52.3198 141.886 51.8468C143.575 54.5495 144.859 56.8468 145.467 57.9729C144.386 58.5135 142.066 59.6171 139.183 60.8333Z" fill="#46164D"/>
<path d="M104.566 39.8873C104.877 39.8873 105.129 39.6352 105.129 39.3243C105.129 39.0133 104.877 38.7612 104.566 38.7612C104.255 38.7612 104.003 39.0133 104.003 39.3243C104.003 39.6352 104.255 39.8873 104.566 39.8873Z" fill="#46164D"/>
<path d="M104.567 38.2657C104.828 38.2657 105.04 38.054 105.04 37.7928C105.04 37.5315 104.828 37.3198 104.567 37.3198C104.306 37.3198 104.094 37.5315 104.094 37.7928C104.094 38.054 104.306 38.2657 104.567 38.2657Z" fill="#46164D"/>
<path d="M104.566 36.8243C104.803 36.8243 104.994 36.6327 104.994 36.3964C104.994 36.16 104.803 35.9684 104.566 35.9684C104.33 35.9684 104.138 36.16 104.138 36.3964C104.138 36.6327 104.33 36.8243 104.566 36.8243Z" fill="#46164D"/>
<path d="M104.566 35.3378C104.753 35.3378 104.904 35.1865 104.904 34.9999C104.904 34.8134 104.753 34.6621 104.566 34.6621C104.38 34.6621 104.229 34.8134 104.229 34.9999C104.229 35.1865 104.38 35.3378 104.566 35.3378Z" fill="#46164D"/>
<path d="M104.566 33.8964C104.728 33.8964 104.859 33.7653 104.859 33.6036C104.859 33.4419 104.728 33.3108 104.566 33.3108C104.405 33.3108 104.274 33.4419 104.274 33.6036C104.274 33.7653 104.405 33.8964 104.566 33.8964Z" fill="#46164D"/>
<path d="M104.566 49.8423C104.877 49.8423 105.129 49.5902 105.129 49.2792C105.129 48.9682 104.877 48.7162 104.566 48.7162C104.255 48.7162 104.003 48.9682 104.003 49.2792C104.003 49.5902 104.255 49.8423 104.566 49.8423Z" fill="#46164D"/>
<path d="M104.567 51.2837C104.828 51.2837 105.04 51.072 105.04 50.8107C105.04 50.5495 104.828 50.3378 104.567 50.3378C104.306 50.3378 104.094 50.5495 104.094 50.8107C104.094 51.072 104.306 51.2837 104.567 51.2837Z" fill="#46164D"/>
<path d="M104.566 52.6351C104.803 52.6351 104.994 52.4435 104.994 52.2072C104.994 51.9708 104.803 51.7792 104.566 51.7792C104.33 51.7792 104.138 51.9708 104.138 52.2072C104.138 52.4435 104.33 52.6351 104.566 52.6351Z" fill="#46164D"/>
<path d="M104.566 53.9414C104.753 53.9414 104.904 53.7901 104.904 53.6035C104.904 53.4169 104.753 53.2657 104.566 53.2657C104.38 53.2657 104.229 53.4169 104.229 53.6035C104.229 53.7901 104.38 53.9414 104.566 53.9414Z" fill="#46164D"/>
<path d="M104.566 55.2927C104.728 55.2927 104.859 55.1616 104.859 54.9999C104.859 54.8382 104.728 54.7072 104.566 54.7072C104.405 54.7072 104.274 54.8382 104.274 54.9999C104.274 55.1616 104.405 55.2927 104.566 55.2927Z" fill="#46164D"/>
<path d="M103.305 40.0225C103.616 40.0225 103.868 39.7704 103.868 39.4594C103.868 39.1485 103.616 38.8964 103.305 38.8964C102.994 38.8964 102.742 39.1485 102.742 39.4594C102.742 39.7704 102.994 40.0225 103.305 40.0225Z" fill="#46164D"/>
<path d="M102.922 38.4684C103.184 38.4684 103.395 38.2567 103.395 37.9955C103.395 37.7343 103.184 37.5225 102.922 37.5225C102.661 37.5225 102.449 37.7343 102.449 37.9955C102.449 38.2567 102.661 38.4684 102.922 38.4684Z" fill="#46164D"/>
<path d="M102.562 37.072C102.798 37.072 102.99 36.8804 102.99 36.6441C102.99 36.4077 102.798 36.2162 102.562 36.2162C102.326 36.2162 102.134 36.4077 102.134 36.6441C102.134 36.8804 102.326 37.072 102.562 37.072Z" fill="#46164D"/>
<path d="M102.202 35.6306C102.388 35.6306 102.539 35.4793 102.539 35.2928C102.539 35.1062 102.388 34.9549 102.202 34.9549C102.015 34.9549 101.864 35.1062 101.864 35.2928C101.864 35.4793 102.015 35.6306 102.202 35.6306Z" fill="#46164D"/>
<path d="M101.819 34.2342C101.981 34.2342 102.112 34.1031 102.112 33.9414C102.112 33.7797 101.981 33.6486 101.819 33.6486C101.657 33.6486 101.526 33.7797 101.526 33.9414C101.526 34.1031 101.657 34.2342 101.819 34.2342Z" fill="#46164D"/>
<path d="M105.895 49.6621C106.206 49.6621 106.458 49.41 106.458 49.099C106.458 48.7881 106.206 48.536 105.895 48.536C105.584 48.536 105.332 48.7881 105.332 49.099C105.332 49.41 105.584 49.6621 105.895 49.6621Z" fill="#46164D"/>
<path d="M106.278 51.036C106.539 51.036 106.751 50.8242 106.751 50.563C106.751 50.3018 106.539 50.09 106.278 50.09C106.017 50.09 105.805 50.3018 105.805 50.563C105.805 50.8242 106.017 51.036 106.278 51.036Z" fill="#46164D"/>
<path d="M106.638 52.3423C106.875 52.3423 107.066 52.1507 107.066 51.9143C107.066 51.678 106.875 51.4864 106.638 51.4864C106.402 51.4864 106.21 51.678 106.21 51.9143C106.21 52.1507 106.402 52.3423 106.638 52.3423Z" fill="#46164D"/>
<path d="M106.999 53.6036C107.185 53.6036 107.337 53.4523 107.337 53.2657C107.337 53.0791 107.185 52.9279 106.999 52.9279C106.812 52.9279 106.661 53.0791 106.661 53.2657C106.661 53.4523 106.812 53.6036 106.999 53.6036Z" fill="#46164D"/>
<path d="M107.359 54.9098C107.521 54.9098 107.652 54.7787 107.652 54.617C107.652 54.4553 107.521 54.3242 107.359 54.3242C107.197 54.3242 107.066 54.4553 107.066 54.617C107.066 54.7787 107.197 54.9098 107.359 54.9098Z" fill="#46164D"/>
<path d="M102.134 40.518C102.445 40.518 102.697 40.2659 102.697 39.9549C102.697 39.6439 102.445 39.3918 102.134 39.3918C101.823 39.3918 101.571 39.6439 101.571 39.9549C101.571 40.2659 101.823 40.518 102.134 40.518Z" fill="#46164D"/>
<path d="M101.368 39.0991C101.629 39.0991 101.841 38.8873 101.841 38.6261C101.841 38.3649 101.629 38.1531 101.368 38.1531C101.107 38.1531 100.895 38.3649 100.895 38.6261C100.895 38.8873 101.107 39.0991 101.368 39.0991Z" fill="#46164D"/>
<path d="M100.67 37.8378C100.907 37.8378 101.098 37.6462 101.098 37.4098C101.098 37.1735 100.907 36.9819 100.67 36.9819C100.434 36.9819 100.242 37.1735 100.242 37.4098C100.242 37.6462 100.434 37.8378 100.67 37.8378Z" fill="#46164D"/>
<path d="M99.9721 36.5315C100.159 36.5315 100.31 36.3802 100.31 36.1936C100.31 36.0071 100.159 35.8558 99.9721 35.8558C99.7855 35.8558 99.6343 36.0071 99.6343 36.1936C99.6343 36.3802 99.7855 36.5315 99.9721 36.5315Z" fill="#46164D"/>
<path d="M99.2738 35.2927C99.4355 35.2927 99.5665 35.1617 99.5665 34.9999C99.5665 34.8382 99.4355 34.7072 99.2738 34.7072C99.112 34.7072 98.981 34.8382 98.981 34.9999C98.981 35.1617 99.112 35.2927 99.2738 35.2927Z" fill="#46164D"/>
<path d="M107.112 49.1441C107.423 49.1441 107.675 48.892 107.675 48.581C107.675 48.27 107.423 48.0179 107.112 48.0179C106.801 48.0179 106.549 48.27 106.549 48.581C106.549 48.892 106.801 49.1441 107.112 49.1441Z" fill="#46164D"/>
<path d="M107.877 50.3603C108.138 50.3603 108.35 50.1486 108.35 49.8873C108.35 49.6261 108.138 49.4144 107.877 49.4144C107.616 49.4144 107.404 49.6261 107.404 49.8873C107.404 50.1486 107.616 50.3603 107.877 50.3603Z" fill="#46164D"/>
<path d="M108.576 51.5315C108.812 51.5315 109.004 51.3399 109.004 51.1036C109.004 50.8672 108.812 50.6756 108.576 50.6756C108.339 50.6756 108.148 50.8672 108.148 51.1036C108.148 51.3399 108.339 51.5315 108.576 51.5315Z" fill="#46164D"/>
<path d="M109.273 52.6576C109.46 52.6576 109.611 52.5064 109.611 52.3198C109.611 52.1332 109.46 51.982 109.273 51.982C109.087 51.982 108.936 52.1332 108.936 52.3198C108.936 52.5064 109.087 52.6576 109.273 52.6576Z" fill="#46164D"/>
<path d="M109.972 53.8288C110.133 53.8288 110.265 53.6977 110.265 53.536C110.265 53.3743 110.133 53.2432 109.972 53.2432C109.81 53.2432 109.679 53.3743 109.679 53.536C109.679 53.6977 109.81 53.8288 109.972 53.8288Z" fill="#46164D"/>
<path d="M101.098 41.2837C101.409 41.2837 101.661 41.0317 101.661 40.7207C101.661 40.4097 101.409 40.1576 101.098 40.1576C100.787 40.1576 100.535 40.4097 100.535 40.7207C100.535 41.0317 100.787 41.2837 101.098 41.2837Z" fill="#46164D"/>
<path d="M100.017 40.1126C100.278 40.1126 100.49 39.9008 100.49 39.6396C100.49 39.3784 100.278 39.1667 100.017 39.1667C99.7555 39.1667 99.5437 39.3784 99.5437 39.6396C99.5437 39.9008 99.7555 40.1126 100.017 40.1126Z" fill="#46164D"/>
<path d="M99.0258 39.0766C99.2622 39.0766 99.4538 38.885 99.4538 38.6486C99.4538 38.4123 99.2622 38.2207 99.0258 38.2207C98.7895 38.2207 98.5979 38.4123 98.5979 38.6486C98.5979 38.885 98.7895 39.0766 99.0258 39.0766Z" fill="#46164D"/>
<path d="M98.0573 37.9955C98.2439 37.9955 98.3952 37.8442 98.3952 37.6576C98.3952 37.471 98.2439 37.3198 98.0573 37.3198C97.8707 37.3198 97.7195 37.471 97.7195 37.6576C97.7195 37.8442 97.8707 37.9955 98.0573 37.9955Z" fill="#46164D"/>
<path d="M97.0665 36.9594C97.2282 36.9594 97.3593 36.8283 97.3593 36.6666C97.3593 36.5049 97.2282 36.3738 97.0665 36.3738C96.9048 36.3738 96.7737 36.5049 96.7737 36.6666C96.7737 36.8283 96.9048 36.9594 97.0665 36.9594Z" fill="#46164D"/>
<path d="M108.148 48.3333C108.459 48.3333 108.711 48.0812 108.711 47.7702C108.711 47.4592 108.459 47.2072 108.148 47.2072C107.837 47.2072 107.584 47.4592 107.584 47.7702C107.584 48.0812 107.837 48.3333 108.148 48.3333Z" fill="#46164D"/>
<path d="M109.228 49.3243C109.49 49.3243 109.701 49.1125 109.701 48.8513C109.701 48.5901 109.49 48.3784 109.228 48.3784C108.967 48.3784 108.755 48.5901 108.755 48.8513C108.755 49.1125 108.967 49.3243 109.228 49.3243Z" fill="#46164D"/>
<path d="M110.219 50.2477C110.456 50.2477 110.647 50.0561 110.647 49.8198C110.647 49.5834 110.456 49.3918 110.219 49.3918C109.983 49.3918 109.792 49.5834 109.792 49.8198C109.792 50.0561 109.983 50.2477 110.219 50.2477Z" fill="#46164D"/>
<path d="M111.21 51.1486C111.397 51.1486 111.548 50.9973 111.548 50.8107C111.548 50.6242 111.397 50.4729 111.21 50.4729C111.024 50.4729 110.873 50.6242 110.873 50.8107C110.873 50.9973 111.024 51.1486 111.21 51.1486Z" fill="#46164D"/>
<path d="M112.201 52.0946C112.363 52.0946 112.494 51.9635 112.494 51.8018C112.494 51.6401 112.363 51.509 112.201 51.509C112.04 51.509 111.909 51.6401 111.909 51.8018C111.909 51.9635 112.04 52.0946 112.201 52.0946Z" fill="#46164D"/>
<path d="M100.31 42.2972C100.621 42.2972 100.873 42.0451 100.873 41.7342C100.873 41.4232 100.621 41.1711 100.31 41.1711C99.9987 41.1711 99.7466 41.4232 99.7466 41.7342C99.7466 42.0451 99.9987 42.2972 100.31 42.2972Z" fill="#46164D"/>
<path d="M99.0032 41.4414C99.2645 41.4414 99.4762 41.2296 99.4762 40.9684C99.4762 40.7072 99.2645 40.4955 99.0032 40.4955C98.742 40.4955 98.5303 40.7072 98.5303 40.9684C98.5303 41.2296 98.742 41.4414 99.0032 41.4414Z" fill="#46164D"/>
<path d="M97.7871 40.6982C98.0234 40.6982 98.215 40.5066 98.215 40.2702C98.215 40.0339 98.0234 39.8423 97.7871 39.8423C97.5507 39.8423 97.3591 40.0339 97.3591 40.2702C97.3591 40.5066 97.5507 40.6982 97.7871 40.6982Z" fill="#46164D"/>
<path d="M96.5712 39.9098C96.7578 39.9098 96.9091 39.7586 96.9091 39.572C96.9091 39.3854 96.7578 39.2342 96.5712 39.2342C96.3847 39.2342 96.2334 39.3854 96.2334 39.572C96.2334 39.7586 96.3847 39.9098 96.5712 39.9098Z" fill="#46164D"/>
<path d="M95.3546 39.1666C95.5163 39.1666 95.6474 39.0356 95.6474 38.8738C95.6474 38.7121 95.5163 38.5811 95.3546 38.5811C95.1929 38.5811 95.0618 38.7121 95.0618 38.8738C95.0618 39.0356 95.1929 39.1666 95.3546 39.1666Z" fill="#46164D"/>
<path d="M108.936 47.2747C109.247 47.2747 109.499 47.0226 109.499 46.7117C109.499 46.4007 109.247 46.1486 108.936 46.1486C108.625 46.1486 108.373 46.4007 108.373 46.7117C108.373 47.0226 108.625 47.2747 108.936 47.2747Z" fill="#46164D"/>
<path d="M110.264 47.9504C110.526 47.9504 110.737 47.7386 110.737 47.4774C110.737 47.2162 110.526 47.0044 110.264 47.0044C110.003 47.0044 109.792 47.2162 109.792 47.4774C109.792 47.7386 110.003 47.9504 110.264 47.9504Z" fill="#46164D"/>
<path d="M111.481 48.6036C111.717 48.6036 111.909 48.412 111.909 48.1756C111.909 47.9393 111.717 47.7477 111.481 47.7477C111.245 47.7477 111.053 47.9393 111.053 48.1756C111.053 48.412 111.245 48.6036 111.481 48.6036Z" fill="#46164D"/>
<path d="M112.697 49.2117C112.884 49.2117 113.035 49.0604 113.035 48.8738C113.035 48.6872 112.884 48.536 112.697 48.536C112.511 48.536 112.359 48.6872 112.359 48.8738C112.359 49.0604 112.511 49.2117 112.697 49.2117Z" fill="#46164D"/>
<path d="M113.891 49.8649C114.053 49.8649 114.184 49.7338 114.184 49.5721C114.184 49.4104 114.053 49.2793 113.891 49.2793C113.729 49.2793 113.598 49.4104 113.598 49.5721C113.598 49.7338 113.729 49.8649 113.891 49.8649Z" fill="#46164D"/>
<path d="M99.814 43.4684C100.125 43.4684 100.377 43.2163 100.377 42.9053C100.377 42.5944 100.125 42.3423 99.814 42.3423C99.5031 42.3423 99.251 42.5944 99.251 42.9053C99.251 43.2163 99.5031 43.4684 99.814 43.4684Z" fill="#46164D"/>
<path d="M98.3502 42.9729C98.6114 42.9729 98.8231 42.7612 98.8231 42.5C98.8231 42.2387 98.6114 42.027 98.3502 42.027C98.089 42.027 97.8772 42.2387 97.8772 42.5C97.8772 42.7612 98.089 42.9729 98.3502 42.9729Z" fill="#46164D"/>
<path d="M96.999 42.5675C97.2353 42.5675 97.4269 42.3759 97.4269 42.1396C97.4269 41.9033 97.2353 41.7117 96.999 41.7117C96.7626 41.7117 96.571 41.9033 96.571 42.1396C96.571 42.3759 96.7626 42.5675 96.999 42.5675Z" fill="#46164D"/>
<path d="M95.6477 42.1171C95.8342 42.1171 95.9855 41.9658 95.9855 41.7792C95.9855 41.5926 95.8342 41.4414 95.6477 41.4414C95.4611 41.4414 95.3098 41.5926 95.3098 41.7792C95.3098 41.9658 95.4611 42.1171 95.6477 42.1171Z" fill="#46164D"/>
<path d="M94.2965 41.7117C94.4582 41.7117 94.5892 41.5806 94.5892 41.4189C94.5892 41.2572 94.4582 41.1261 94.2965 41.1261C94.1348 41.1261 94.0037 41.2572 94.0037 41.4189C94.0037 41.5806 94.1348 41.7117 94.2965 41.7117Z" fill="#46164D"/>
<path d="M109.431 46.036C109.742 46.036 109.994 45.7839 109.994 45.4729C109.994 45.162 109.742 44.9099 109.431 44.9099C109.12 44.9099 108.868 45.162 108.868 45.4729C108.868 45.7839 109.12 46.036 109.431 46.036Z" fill="#46164D"/>
<path d="M110.918 46.3513C111.179 46.3513 111.391 46.1395 111.391 45.8783C111.391 45.6171 111.179 45.4053 110.918 45.4053C110.657 45.4053 110.445 45.6171 110.445 45.8783C110.445 46.1395 110.657 46.3513 110.918 46.3513Z" fill="#46164D"/>
<path d="M112.269 46.6666C112.505 46.6666 112.697 46.4751 112.697 46.2387C112.697 46.0024 112.505 45.8108 112.269 45.8108C112.033 45.8108 111.841 46.0024 111.841 46.2387C111.841 46.4751 112.033 46.6666 112.269 46.6666Z" fill="#46164D"/>
<path d="M113.621 46.9369C113.807 46.9369 113.958 46.7857 113.958 46.5991C113.958 46.4125 113.807 46.2612 113.621 46.2612C113.434 46.2612 113.283 46.4125 113.283 46.5991C113.283 46.7857 113.434 46.9369 113.621 46.9369Z" fill="#46164D"/>
<path d="M114.972 47.2522C115.134 47.2522 115.265 47.1211 115.265 46.9594C115.265 46.7977 115.134 46.6666 114.972 46.6666C114.81 46.6666 114.679 46.7977 114.679 46.9594C114.679 47.1211 114.81 47.2522 114.972 47.2522Z" fill="#46164D"/>
<path d="M99.6339 44.7297C99.9448 44.7297 100.197 44.4776 100.197 44.1666C100.197 43.8557 99.9448 43.6036 99.6339 43.6036C99.3229 43.6036 99.0708 43.8557 99.0708 44.1666C99.0708 44.4776 99.3229 44.7297 99.6339 44.7297Z" fill="#46164D"/>
<path d="M98.1024 44.6396C98.3636 44.6396 98.5753 44.4278 98.5753 44.1666C98.5753 43.9054 98.3636 43.6936 98.1024 43.6936C97.8412 43.6936 97.6294 43.9054 97.6294 44.1666C97.6294 44.4278 97.8412 44.6396 98.1024 44.6396Z" fill="#46164D"/>
<path d="M96.706 44.5946C96.9423 44.5946 97.1339 44.403 97.1339 44.1666C97.1339 43.9303 96.9423 43.7387 96.706 43.7387C96.4697 43.7387 96.2781 43.9303 96.2781 44.1666C96.2781 44.403 96.4697 44.5946 96.706 44.5946Z" fill="#46164D"/>
<path d="M95.3095 44.5044C95.4961 44.5044 95.6474 44.3532 95.6474 44.1666C95.6474 43.98 95.4961 43.8288 95.3095 43.8288C95.1229 43.8288 94.9717 43.98 94.9717 44.1666C94.9717 44.3532 95.1229 44.5044 95.3095 44.5044Z" fill="#46164D"/>
<path d="M93.9132 44.4594C94.0749 44.4594 94.2059 44.3283 94.2059 44.1666C94.2059 44.0049 94.0749 43.8738 93.9132 43.8738C93.7514 43.8738 93.6204 44.0049 93.6204 44.1666C93.6204 44.3283 93.7514 44.4594 93.9132 44.4594Z" fill="#46164D"/>
<path d="M109.589 44.7297C109.9 44.7297 110.152 44.4776 110.152 44.1666C110.152 43.8557 109.9 43.6036 109.589 43.6036C109.278 43.6036 109.026 43.8557 109.026 44.1666C109.026 44.4776 109.278 44.7297 109.589 44.7297Z" fill="#46164D"/>
<path d="M111.12 44.6396C111.382 44.6396 111.593 44.4278 111.593 44.1666C111.593 43.9054 111.382 43.6936 111.12 43.6936C110.859 43.6936 110.647 43.9054 110.647 44.1666C110.647 44.4278 110.859 44.6396 111.12 44.6396Z" fill="#46164D"/>
<path d="M112.517 44.5946C112.753 44.5946 112.945 44.403 112.945 44.1666C112.945 43.9303 112.753 43.7387 112.517 43.7387C112.28 43.7387 112.089 43.9303 112.089 44.1666C112.089 44.403 112.28 44.5946 112.517 44.5946Z" fill="#46164D"/>
<path d="M113.913 44.5044C114.1 44.5044 114.251 44.3532 114.251 44.1666C114.251 43.98 114.1 43.8288 113.913 43.8288C113.727 43.8288 113.575 43.98 113.575 44.1666C113.575 44.3532 113.727 44.5044 113.913 44.5044Z" fill="#46164D"/>
<path d="M115.31 44.4594C115.471 44.4594 115.602 44.3283 115.602 44.1666C115.602 44.0049 115.471 43.8738 115.31 43.8738C115.148 43.8738 115.017 44.0049 115.017 44.1666C115.017 44.3283 115.148 44.4594 115.31 44.4594Z" fill="#46164D"/>
<path d="M99.7913 45.9909C100.102 45.9909 100.354 45.7388 100.354 45.4279C100.354 45.1169 100.102 44.8648 99.7913 44.8648C99.4804 44.8648 99.2283 45.1169 99.2283 45.4279C99.2283 45.7388 99.4804 45.9909 99.7913 45.9909Z" fill="#46164D"/>
<path d="M98.3277 46.3062C98.5889 46.3062 98.8007 46.0945 98.8007 45.8333C98.8007 45.572 98.5889 45.3603 98.3277 45.3603C98.0665 45.3603 97.8547 45.572 97.8547 45.8333C97.8547 46.0945 98.0665 46.3062 98.3277 46.3062Z" fill="#46164D"/>
<path d="M96.9765 46.6215C97.2129 46.6215 97.4044 46.43 97.4044 46.1936C97.4044 45.9573 97.2129 45.7657 96.9765 45.7657C96.7402 45.7657 96.5486 45.9573 96.5486 46.1936C96.5486 46.43 96.7402 46.6215 96.9765 46.6215Z" fill="#46164D"/>
<path d="M95.6249 46.8918C95.8115 46.8918 95.9628 46.7406 95.9628 46.554C95.9628 46.3674 95.8115 46.2162 95.6249 46.2162C95.4384 46.2162 95.2871 46.3674 95.2871 46.554C95.2871 46.7406 95.4384 46.8918 95.6249 46.8918Z" fill="#46164D"/>
<path d="M94.2738 47.2071C94.4355 47.2071 94.5665 47.076 94.5665 46.9143C94.5665 46.7526 94.4355 46.6216 94.2738 46.6216C94.112 46.6216 93.981 46.7526 93.981 46.9143C93.981 47.076 94.112 47.2071 94.2738 47.2071Z" fill="#46164D"/>
<path d="M109.409 43.4234C109.72 43.4234 109.972 43.1713 109.972 42.8603C109.972 42.5494 109.72 42.2973 109.409 42.2973C109.098 42.2973 108.846 42.5494 108.846 42.8603C108.846 43.1713 109.098 43.4234 109.409 43.4234Z" fill="#46164D"/>
<path d="M110.895 42.9279C111.157 42.9279 111.368 42.7161 111.368 42.4549C111.368 42.1937 111.157 41.9819 110.895 41.9819C110.634 41.9819 110.422 42.1937 110.422 42.4549C110.422 42.7161 110.634 42.9279 110.895 42.9279Z" fill="#46164D"/>
<path d="M112.247 42.5224C112.483 42.5224 112.674 42.3309 112.674 42.0945C112.674 41.8582 112.483 41.6666 112.247 41.6666C112.01 41.6666 111.819 41.8582 111.819 42.0945C111.819 42.3309 112.01 42.5224 112.247 42.5224Z" fill="#46164D"/>
<path d="M113.598 42.072C113.785 42.072 113.936 41.9208 113.936 41.7342C113.936 41.5476 113.785 41.3963 113.598 41.3963C113.412 41.3963 113.26 41.5476 113.26 41.7342C113.26 41.9208 113.412 42.072 113.598 42.072Z" fill="#46164D"/>
<path d="M114.949 41.6666C115.111 41.6666 115.242 41.5356 115.242 41.3738C115.242 41.2121 115.111 41.0811 114.949 41.0811C114.788 41.0811 114.656 41.2121 114.656 41.3738C114.656 41.5356 114.788 41.6666 114.949 41.6666Z" fill="#46164D"/>
<path d="M100.265 47.1846C100.576 47.1846 100.828 46.9325 100.828 46.6216C100.828 46.3106 100.576 46.0585 100.265 46.0585C99.9538 46.0585 99.7017 46.3106 99.7017 46.6216C99.7017 46.9325 99.9538 47.1846 100.265 47.1846Z" fill="#46164D"/>
<path d="M98.9586 47.8603C99.2198 47.8603 99.4315 47.6486 99.4315 47.3874C99.4315 47.1262 99.2198 46.9144 98.9586 46.9144C98.6974 46.9144 98.4856 47.1262 98.4856 47.3874C98.4856 47.6486 98.6974 47.8603 98.9586 47.8603Z" fill="#46164D"/>
<path d="M97.7419 48.5134C97.9782 48.5134 98.1698 48.3219 98.1698 48.0855C98.1698 47.8492 97.9782 47.6576 97.7419 47.6576C97.5056 47.6576 97.314 47.8492 97.314 48.0855C97.314 48.3219 97.5056 48.5134 97.7419 48.5134Z" fill="#46164D"/>
<path d="M96.5261 49.1216C96.7127 49.1216 96.8639 48.9703 96.8639 48.7837C96.8639 48.5971 96.7127 48.4459 96.5261 48.4459C96.3395 48.4459 96.1882 48.5971 96.1882 48.7837C96.1882 48.9703 96.3395 49.1216 96.5261 49.1216Z" fill="#46164D"/>
<path d="M95.3096 49.7747C95.4713 49.7747 95.6024 49.6436 95.6024 49.4819C95.6024 49.3202 95.4713 49.1891 95.3096 49.1891C95.1479 49.1891 95.0168 49.3202 95.0168 49.4819C95.0168 49.6436 95.1479 49.7747 95.3096 49.7747Z" fill="#46164D"/>
<path d="M108.891 42.2072C109.202 42.2072 109.454 41.9551 109.454 41.6441C109.454 41.3331 109.202 41.0811 108.891 41.0811C108.58 41.0811 108.328 41.3331 108.328 41.6441C108.328 41.9551 108.58 42.2072 108.891 42.2072Z" fill="#46164D"/>
<path d="M110.22 41.3513C110.481 41.3513 110.693 41.1396 110.693 40.8783C110.693 40.6171 110.481 40.4054 110.22 40.4054C109.959 40.4054 109.747 40.6171 109.747 40.8783C109.747 41.1396 109.959 41.3513 110.22 41.3513Z" fill="#46164D"/>
<path d="M111.436 40.608C111.672 40.608 111.864 40.4164 111.864 40.1801C111.864 39.9438 111.672 39.7522 111.436 39.7522C111.2 39.7522 111.008 39.9438 111.008 40.1801C111.008 40.4164 111.2 40.608 111.436 40.608Z" fill="#46164D"/>
<path d="M112.652 39.8197C112.839 39.8197 112.99 39.6685 112.99 39.4819C112.99 39.2953 112.839 39.1441 112.652 39.1441C112.465 39.1441 112.314 39.2953 112.314 39.4819C112.314 39.6685 112.465 39.8197 112.652 39.8197Z" fill="#46164D"/>
<path d="M113.846 39.0766C114.007 39.0766 114.139 38.9455 114.139 38.7838C114.139 38.6221 114.007 38.491 113.846 38.491C113.684 38.491 113.553 38.6221 113.553 38.7838C113.553 38.9455 113.684 39.0766 113.846 39.0766Z" fill="#46164D"/>
<path d="M101.03 48.1981C101.341 48.1981 101.593 47.9461 101.593 47.6351C101.593 47.3241 101.341 47.072 101.03 47.072C100.719 47.072 100.467 47.3241 100.467 47.6351C100.467 47.9461 100.719 48.1981 101.03 48.1981Z" fill="#46164D"/>
<path d="M99.9493 49.1891C100.211 49.1891 100.422 48.9774 100.422 48.7161C100.422 48.4549 100.211 48.2432 99.9493 48.2432C99.6881 48.2432 99.4763 48.4549 99.4763 48.7161C99.4763 48.9774 99.6881 49.1891 99.9493 49.1891Z" fill="#46164D"/>
<path d="M98.9807 50.1351C99.217 50.1351 99.4086 49.9435 99.4086 49.7072C99.4086 49.4709 99.217 49.2793 98.9807 49.2793C98.7443 49.2793 98.5527 49.4709 98.5527 49.7072C98.5527 49.9435 98.7443 50.1351 98.9807 50.1351Z" fill="#46164D"/>
<path d="M97.9894 51.036C98.176 51.036 98.3273 50.8847 98.3273 50.6982C98.3273 50.5116 98.176 50.3603 97.9894 50.3603C97.8029 50.3603 97.6516 50.5116 97.6516 50.6982C97.6516 50.8847 97.8029 51.036 97.9894 51.036Z" fill="#46164D"/>
<path d="M96.9988 51.9819C97.1606 51.9819 97.2916 51.8508 97.2916 51.6891C97.2916 51.5274 97.1606 51.3963 96.9988 51.3963C96.8371 51.3963 96.7061 51.5274 96.7061 51.6891C96.7061 51.8508 96.8371 51.9819 96.9988 51.9819Z" fill="#46164D"/>
<path d="M108.08 41.1486C108.391 41.1486 108.643 40.8965 108.643 40.5855C108.643 40.2746 108.391 40.0225 108.08 40.0225C107.769 40.0225 107.517 40.2746 107.517 40.5855C107.517 40.8965 107.769 41.1486 108.08 41.1486Z" fill="#46164D"/>
<path d="M109.161 39.9774C109.422 39.9774 109.634 39.7657 109.634 39.5045C109.634 39.2433 109.422 39.0315 109.161 39.0315C108.9 39.0315 108.688 39.2433 108.688 39.5045C108.688 39.7657 108.9 39.9774 109.161 39.9774Z" fill="#46164D"/>
<path d="M110.152 38.9639C110.389 38.9639 110.58 38.7723 110.58 38.536C110.58 38.2997 110.389 38.1081 110.152 38.1081C109.916 38.1081 109.724 38.2997 109.724 38.536C109.724 38.7723 109.916 38.9639 110.152 38.9639Z" fill="#46164D"/>
<path d="M111.143 37.8829C111.33 37.8829 111.481 37.7316 111.481 37.545C111.481 37.3584 111.33 37.2072 111.143 37.2072C110.956 37.2072 110.805 37.3584 110.805 37.545C110.805 37.7316 110.956 37.8829 111.143 37.8829Z" fill="#46164D"/>
<path d="M112.134 36.8468C112.296 36.8468 112.427 36.7157 112.427 36.554C112.427 36.3923 112.296 36.2612 112.134 36.2612C111.972 36.2612 111.841 36.3923 111.841 36.554C111.841 36.7157 111.972 36.8468 112.134 36.8468Z" fill="#46164D"/>
<path d="M102.044 48.9864C102.355 48.9864 102.607 48.7343 102.607 48.4233C102.607 48.1124 102.355 47.8603 102.044 47.8603C101.733 47.8603 101.481 48.1124 101.481 48.4233C101.481 48.7343 101.733 48.9864 102.044 48.9864Z" fill="#46164D"/>
<path d="M101.278 50.2252C101.539 50.2252 101.751 50.0135 101.751 49.7522C101.751 49.491 101.539 49.2793 101.278 49.2793C101.017 49.2793 100.805 49.491 100.805 49.7522C100.805 50.0135 101.017 50.2252 101.278 50.2252Z" fill="#46164D"/>
<path d="M100.58 51.3963C100.816 51.3963 101.008 51.2047 101.008 50.9684C101.008 50.7321 100.816 50.5405 100.58 50.5405C100.344 50.5405 100.152 50.7321 100.152 50.9684C100.152 51.2047 100.344 51.3963 100.58 51.3963Z" fill="#46164D"/>
<path d="M99.8815 52.5C100.068 52.5 100.219 52.3487 100.219 52.1621C100.219 51.9755 100.068 51.8243 99.8815 51.8243C99.695 51.8243 99.5437 51.9755 99.5437 52.1621C99.5437 52.3487 99.695 52.5 99.8815 52.5Z" fill="#46164D"/>
<path d="M99.1834 53.6711C99.3451 53.6711 99.4762 53.54 99.4762 53.3783C99.4762 53.2166 99.3451 53.0855 99.1834 53.0855C99.0217 53.0855 98.8906 53.2166 98.8906 53.3783C98.8906 53.54 99.0217 53.6711 99.1834 53.6711Z" fill="#46164D"/>
<path d="M107.021 40.3603C107.332 40.3603 107.584 40.1082 107.584 39.7972C107.584 39.4863 107.332 39.2342 107.021 39.2342C106.71 39.2342 106.458 39.4863 106.458 39.7972C106.458 40.1082 106.71 40.3603 107.021 40.3603Z" fill="#46164D"/>
<path d="M107.787 38.9414C108.048 38.9414 108.26 38.7296 108.26 38.4684C108.26 38.2072 108.048 37.9955 107.787 37.9955C107.526 37.9955 107.314 38.2072 107.314 38.4684C107.314 38.7296 107.526 38.9414 107.787 38.9414Z" fill="#46164D"/>
<path d="M108.485 37.7027C108.721 37.7027 108.913 37.5111 108.913 37.2747C108.913 37.0384 108.721 36.8468 108.485 36.8468C108.249 36.8468 108.057 37.0384 108.057 37.2747C108.057 37.5111 108.249 37.7027 108.485 37.7027Z" fill="#46164D"/>
<path d="M109.184 36.3963C109.37 36.3963 109.522 36.2451 109.522 36.0585C109.522 35.8719 109.37 35.7206 109.184 35.7206C108.997 35.7206 108.846 35.8719 108.846 36.0585C108.846 36.2451 108.997 36.3963 109.184 36.3963Z" fill="#46164D"/>
<path d="M109.882 35.1351C110.044 35.1351 110.175 35.004 110.175 34.8423C110.175 34.6806 110.044 34.5495 109.882 34.5495C109.72 34.5495 109.589 34.6806 109.589 34.8423C109.589 35.004 109.72 35.1351 109.882 35.1351Z" fill="#46164D"/>
<path d="M103.215 49.4819C103.526 49.4819 103.778 49.2298 103.778 48.9189C103.778 48.6079 103.526 48.3558 103.215 48.3558C102.904 48.3558 102.652 48.6079 102.652 48.9189C102.652 49.2298 102.904 49.4819 103.215 49.4819Z" fill="#46164D"/>
<path d="M102.832 50.8783C103.093 50.8783 103.305 50.6666 103.305 50.4053C103.305 50.1441 103.093 49.9324 102.832 49.9324C102.571 49.9324 102.359 50.1441 102.359 50.4053C102.359 50.6666 102.571 50.8783 102.832 50.8783Z" fill="#46164D"/>
<path d="M102.472 52.1847C102.708 52.1847 102.9 51.9931 102.9 51.7567C102.9 51.5204 102.708 51.3288 102.472 51.3288C102.236 51.3288 102.044 51.5204 102.044 51.7567C102.044 51.9931 102.236 52.1847 102.472 52.1847Z" fill="#46164D"/>
<path d="M102.111 53.4459C102.298 53.4459 102.449 53.2947 102.449 53.1081C102.449 52.9215 102.298 52.7702 102.111 52.7702C101.925 52.7702 101.773 52.9215 101.773 53.1081C101.773 53.2947 101.925 53.4459 102.111 53.4459Z" fill="#46164D"/>
<path d="M101.751 54.7522C101.913 54.7522 102.044 54.6211 102.044 54.4594C102.044 54.2977 101.913 54.1666 101.751 54.1666C101.589 54.1666 101.458 54.2977 101.458 54.4594C101.458 54.6211 101.589 54.7522 101.751 54.7522Z" fill="#46164D"/>
<path d="M105.805 39.8648C106.116 39.8648 106.368 39.6127 106.368 39.3017C106.368 38.9908 106.116 38.7387 105.805 38.7387C105.494 38.7387 105.242 38.9908 105.242 39.3017C105.242 39.6127 105.494 39.8648 105.805 39.8648Z" fill="#46164D"/>
<path d="M106.188 38.2882C106.45 38.2882 106.661 38.0764 106.661 37.8152C106.661 37.554 106.45 37.3423 106.188 37.3423C105.927 37.3423 105.715 37.554 105.715 37.8152C105.715 38.0764 105.927 38.2882 106.188 38.2882Z" fill="#46164D"/>
<path d="M106.548 36.9144C106.785 36.9144 106.976 36.7228 106.976 36.4864C106.976 36.2501 106.785 36.0585 106.548 36.0585C106.312 36.0585 106.12 36.2501 106.12 36.4864C106.12 36.7228 106.312 36.9144 106.548 36.9144Z" fill="#46164D"/>
<path d="M106.909 35.4729C107.096 35.4729 107.247 35.3216 107.247 35.135C107.247 34.9485 107.096 34.7972 106.909 34.7972C106.723 34.7972 106.571 34.9485 106.571 35.135C106.571 35.3216 106.723 35.4729 106.909 35.4729Z" fill="#46164D"/>
<path d="M107.292 34.0766C107.453 34.0766 107.584 33.9455 107.584 33.7838C107.584 33.6221 107.453 33.491 107.292 33.491C107.13 33.491 106.999 33.6221 106.999 33.7838C106.999 33.9455 107.13 34.0766 107.292 34.0766Z" fill="#46164D"/>
<path d="M113.711 28.6712C113.891 29.482 114.004 30.3153 114.004 31.1937C114.004 31.3513 114.004 31.509 113.981 31.6667C114.139 31.5991 114.274 31.554 114.432 31.509C115.197 31.2612 115.963 31.1036 116.729 31.036C118.598 26.4639 120.513 23.3558 122.224 21.2838C121.887 21.036 121.549 20.7658 121.211 20.5405C119.77 22.7928 117.45 25.5405 113.711 28.6712Z" fill="#EC1C80"/>
<path d="M88.1027 51.6666C88.3955 51.0585 88.7333 50.473 89.1387 49.9099C89.2288 49.7748 89.3189 49.6621 89.4315 49.527C89.2739 49.482 89.1162 49.4369 88.9811 49.3919C88.1027 49.0991 87.2919 48.7162 86.5261 48.2207C82.7648 50.518 79.7018 51.8018 77.2468 52.5C77.3594 52.8829 77.4946 53.2657 77.6297 53.6486C80.1072 52.7477 83.5081 51.982 88.1027 51.6666Z" fill="#EC1C80"/>
<path d="M92.5845 31.036C93.3278 31.1261 94.071 31.2612 94.7917 31.509C94.9494 31.554 95.0845 31.6216 95.2422 31.6667C95.2422 31.509 95.2197 31.3513 95.2197 31.1937C95.2197 30.2928 95.3323 29.4144 95.5575 28.5585C91.8638 25.4279 89.5665 22.7027 88.1251 20.4504C87.7872 20.6982 87.4494 20.9459 87.1116 21.1937C88.8233 23.3108 90.7377 26.4414 92.5845 31.036Z" fill="#EC1C80"/>
<path d="M122.539 48.3333C121.819 48.7613 121.075 49.1216 120.265 49.3919C120.107 49.4369 119.972 49.482 119.814 49.527C119.904 49.6622 120.017 49.7748 120.107 49.9099C120.557 50.518 120.918 51.1712 121.211 51.8243C125.76 52.1622 129.093 52.9505 131.548 53.8514C131.684 53.4685 131.819 53.0856 131.954 52.7027C129.454 52.0045 126.346 50.6757 122.539 48.3333Z" fill="#EC1C80"/>
<path d="M105.085 72.6126C105.017 70.0676 105.332 66.7793 106.369 62.5901C105.828 62.0946 105.332 61.5541 104.882 60.946C104.792 60.8108 104.702 60.6757 104.612 60.5631C104.522 60.6982 104.432 60.8334 104.341 60.946C103.846 61.6216 103.283 62.2072 102.675 62.7478C103.666 66.8694 103.959 70.0901 103.891 72.6126C104.139 72.6126 104.364 72.6352 104.612 72.6352C104.769 72.6352 104.927 72.6126 105.085 72.6126Z" fill="#EC1C80"/>
<path d="M143.756 35.7657C145.513 32.7928 146.616 30.6757 146.616 30.6757C146.616 30.6757 144.544 29.6171 141.436 28.2883C141.256 29.9099 140.67 31.5315 139.702 33.0856C141.324 33.7162 142.697 34.6171 143.756 35.7657Z" fill="#EC1C80"/>
<path d="M126.166 74.2568C126.053 75.9685 125.625 77.5451 124.905 78.8964C128.148 79.6171 130.423 79.9775 130.423 79.9775C130.423 79.9775 130.76 77.7478 131.076 74.4595C129.522 74.7523 127.878 74.6847 126.166 74.2568Z" fill="#EC1C80"/>
<path d="M69.5439 32.8379C68.5529 31.2838 67.9673 29.6171 67.7871 27.973C64.679 29.3018 62.6069 30.3604 62.6069 30.3604C62.6069 30.3604 63.7105 32.5 65.4898 35.4955C66.5709 34.3919 67.9448 33.491 69.5439 32.8379Z" fill="#EC1C80"/>
<path d="M104.702 7.47748C105.873 6.05856 107.224 5 108.711 4.34685C106.413 1.71171 104.724 0 104.724 0C104.724 0 103.012 1.71171 100.715 4.34685C102.179 5.02252 103.53 6.08108 104.702 7.47748Z" fill="#EC1C80"/>
<path d="M77.8323 74.3243C78.1476 77.59 78.4854 79.8198 78.4854 79.8198C78.4854 79.8198 80.7602 79.4594 84.0485 78.7162C83.3503 77.3648 82.9224 75.8108 82.8098 74.1216C81.098 74.5495 79.4089 74.6171 77.8323 74.3243Z" fill="#EC1C80"/>
<path d="M104.611 47.6577C106.465 47.6577 107.967 46.1552 107.967 44.3018C107.967 42.4485 106.465 40.946 104.611 40.946C102.758 40.946 101.256 42.4485 101.256 44.3018C101.256 46.1552 102.758 47.6577 104.611 47.6577Z" fill="#EC1C80"/>
<path d="M56.0891 136.439C56.0891 138.884 55.2143 140.97 53.4645 142.742C51.7147 144.492 49.6061 145.367 47.1609 145.367V124.056C47.1609 118.178 49.2696 113.176 53.5094 109.048C57.7492 104.921 62.7965 102.857 68.6739 102.857H81.2138C81.2138 105.19 80.3838 107.186 78.7462 108.824C77.1086 110.461 75.1121 111.292 72.7791 111.292H68.6963C65.1968 111.292 62.2133 112.548 59.7681 115.038C57.3229 117.528 56.1116 120.534 56.1116 124.033V136.439H56.0891Z" fill="url(#paint0_linear_53_28271)"/>
<path d="M130.498 153.375C128.749 155.125 126.64 156 124.195 156V124.168C124.195 118.29 126.304 113.266 130.543 109.115C134.783 104.943 139.83 102.879 145.708 102.879C151.585 102.879 156.655 104.965 160.895 109.115C165.135 113.288 167.266 118.29 167.266 124.168C167.266 130.045 165.157 135.048 160.917 139.175C156.677 143.303 151.608 145.367 145.685 145.367H133.101V147.072C133.123 149.517 132.248 151.603 130.498 153.375ZM145.73 136.91C149.23 136.91 152.213 135.653 154.636 133.163C157.059 130.673 158.27 127.667 158.27 124.168C158.27 120.668 157.059 117.64 154.636 115.105C152.213 112.57 149.252 111.314 145.73 111.314C142.231 111.314 139.247 112.57 136.824 115.105C134.402 117.64 133.19 120.646 133.19 124.168V136.91H145.73V136.91Z" fill="url(#paint1_linear_53_28271)"/>
<path d="M37.4026 94.8707C39.1523 93.1209 41.261 92.246 43.7062 92.246V124.078C43.7062 129.956 41.5975 134.98 37.3577 139.131C33.1179 143.303 28.0705 145.367 22.1931 145.367C16.3158 145.367 11.246 143.281 7.00616 139.131C2.76637 134.958 0.635254 129.956 0.635254 124.078C0.635254 118.201 2.74393 113.198 6.98373 109.071C11.2235 104.943 16.2933 102.879 22.2156 102.879H34.8004V101.174C34.7779 98.7291 35.6528 96.6204 37.4026 94.8707ZM22.1707 111.314C18.6712 111.314 15.6876 112.57 13.2649 115.06C10.8422 117.55 9.63079 120.556 9.63079 124.056C9.63079 127.555 10.8422 130.584 13.2649 133.119C15.6876 135.653 18.6488 136.91 22.1707 136.91C25.6702 136.91 28.6538 135.653 31.0765 133.119C33.4993 130.584 34.7106 127.578 34.7106 124.056V111.314H22.1707Z" fill="url(#paint2_linear_53_28271)"/>
<path d="M201.386 97.787C196.675 93.4126 193.108 92.1115 186.536 92.1115H170.945V117.483V119.524V144.896H186.536C193.108 144.896 196.675 143.617 201.386 139.22C206.097 134.846 208.43 129.529 208.43 123.271V120.018V116.967V113.714C208.43 107.478 206.075 102.161 201.386 97.787ZM195.397 131.952C192.705 134.599 189.407 135.923 185.504 135.923H179.716V119.165V117.819V101.085H185.504C189.407 101.085 192.705 102.408 195.397 105.055C198.088 107.702 199.434 110.888 199.434 114.634L199.457 118.515L199.434 122.396C199.434 126.097 198.088 129.305 195.397 131.952Z" fill="url(#paint3_linear_53_28271)"/>
<path d="M114.639 109.115C110.399 104.943 105.351 102.879 99.474 102.879C93.5966 102.879 88.5493 104.965 84.3319 109.115C80.1145 113.288 78.0059 118.29 78.0059 124.168C78.0059 130.045 80.1145 135.048 84.3319 139.175C88.5493 143.303 93.5966 145.367 99.474 145.367C105.351 145.367 110.399 143.303 114.639 139.175C118.878 135.048 120.987 130.045 120.987 124.168C120.987 118.29 118.878 113.266 114.639 109.115ZM93.2601 138.323C82.6046 121.409 86.7098 114.746 86.7098 114.746C88.7512 110.394 93.9331 108.51 98.2851 110.551C100.82 111.74 102.345 114.096 102.929 116.608C105.239 115.442 108.2 115.172 110.735 116.361C115.087 118.403 116.972 123.585 114.93 127.937C114.908 127.937 113.068 135.653 93.2601 138.323Z" fill="url(#paint4_linear_53_28271)"/>
<defs>
<linearGradient id="paint0_linear_53_28271" x1="64.2019" y1="144.591" x2="64.2019" y2="110.612" gradientUnits="userSpaceOnUse">
<stop stop-color="#4D3292"/>
<stop offset="0.1223" stop-color="#543191"/>
<stop offset="0.2958" stop-color="#662F8F"/>
<stop offset="0.5" stop-color="#852A8C"/>
<stop offset="0.7275" stop-color="#AF2487"/>
<stop offset="0.9716" stop-color="#E51D81"/>
<stop offset="1" stop-color="#EC1C80"/>
</linearGradient>
<linearGradient id="paint1_linear_53_28271" x1="145.748" y1="144.591" x2="145.748" y2="110.612" gradientUnits="userSpaceOnUse">
<stop stop-color="#4D3292"/>
<stop offset="0.1223" stop-color="#543191"/>
<stop offset="0.2958" stop-color="#662F8F"/>
<stop offset="0.5" stop-color="#852A8C"/>
<stop offset="0.7275" stop-color="#AF2487"/>
<stop offset="0.9716" stop-color="#E51D81"/>
<stop offset="1" stop-color="#EC1C80"/>
</linearGradient>
<linearGradient id="paint2_linear_53_28271" x1="22.1504" y1="144.591" x2="22.1504" y2="110.612" gradientUnits="userSpaceOnUse">
<stop stop-color="#4D3292"/>
<stop offset="0.1223" stop-color="#543191"/>
<stop offset="0.2958" stop-color="#662F8F"/>
<stop offset="0.5" stop-color="#852A8C"/>
<stop offset="0.7275" stop-color="#AF2487"/>
<stop offset="0.9716" stop-color="#E51D81"/>
<stop offset="1" stop-color="#EC1C80"/>
</linearGradient>
<linearGradient id="paint3_linear_53_28271" x1="189.687" y1="144.591" x2="189.687" y2="110.612" gradientUnits="userSpaceOnUse">
<stop stop-color="#4D3292"/>
<stop offset="0.1223" stop-color="#543191"/>
<stop offset="0.2958" stop-color="#662F8F"/>
<stop offset="0.5" stop-color="#852A8C"/>
<stop offset="0.7275" stop-color="#AF2487"/>
<stop offset="0.9716" stop-color="#E51D81"/>
<stop offset="1" stop-color="#EC1C80"/>
</linearGradient>
<linearGradient id="paint4_linear_53_28271" x1="106.75" y1="143.343" x2="94.6797" y2="111.443" gradientUnits="userSpaceOnUse">
<stop stop-color="#4D3292"/>
<stop offset="0.1223" stop-color="#543191"/>
<stop offset="0.2958" stop-color="#662F8F"/>
<stop offset="0.5" stop-color="#852A8C"/>
<stop offset="0.7275" stop-color="#AF2487"/>
<stop offset="0.9716" stop-color="#E51D81"/>
<stop offset="1" stop-color="#EC1C80"/>
</linearGradient>
</defs>
</svg>
