<svg width="17" height="17" viewBox="0 0 17 17" fill="none" xmlns="http://www.w3.org/2000/svg">
<path d="M15.1439 8.41905H16.6531C16.8439 8.41905 17 8.25714 17 8.05926V6.17037C17 5.97249 16.8439 5.81058 16.6531 5.81058H15.1439V0C14.398 0 13.7388 0.287831 13.201 0.845503C12.6633 1.40317 12.3857 2.08677 12.3857 2.86032V3.4H8.5C6.67857 3.4 5.1 4.06561 3.79898 5.37884C3.6602 5.52275 3.53878 5.64868 3.41735 5.79259H0.346939C0.156122 5.79259 0 5.9545 0 6.15238V8.04127C0 8.23915 0.156122 8.40106 0.346939 8.40106H2.04694C1.90816 8.95873 1.83878 9.55238 1.83878 10.182C1.83878 10.4519 1.85612 10.7037 1.87347 10.9735H0.346939C0.156122 10.9735 0 11.1354 0 11.3333V13.2222C0 13.4201 0.156122 13.582 0.346939 13.582H2.70612C3.00102 14.0857 3.36531 14.5714 3.79898 15.0032C5.11735 16.3344 6.67857 17 8.48265 17C10.3041 17 11.8653 16.3344 13.1663 15.0032C13.6 14.5534 13.9643 14.0857 14.2592 13.582H16.6531C16.8439 13.582 17 13.4201 17 13.2222V11.3333C17 11.1354 16.8439 10.9735 16.6531 10.9735H15.0918C15.1265 10.7217 15.1265 10.4519 15.1265 10.182V8.41905H15.1439ZM12.3684 10.2C12.3684 11.3153 11.9867 12.2868 11.2408 13.0963C10.4949 13.9058 9.57551 14.3196 8.5 14.3196C7.42449 14.3196 6.5051 13.9058 5.75918 13.0963C5.01327 12.2868 4.63163 11.3153 4.63163 10.2C4.63163 9.08466 5.01327 8.11323 5.75918 7.32169C6.5051 6.53016 7.42449 6.1164 8.5 6.1164H12.3684V10.2Z" fill="#4E3292"/>
</svg>
