    <svg width="90" height="89" viewBox="0 0 90 89"  xmlns="http://www.w3.org/2000/svg" >
        <path d="M76.3559 13.4197L76.3568 13.4206C85.139 22.0201 89.5 32.4173 89.5 44.594C89.5 56.7703 85.1393 67.1201 76.3578 75.6724C67.5724 84.2287 57.1283 88.5 44.953 88.5C32.7775 88.5 22.334 84.2285 13.5961 75.6733C4.8609 67.1207 0.5 56.7705 0.5 44.594C0.5 32.4181 4.86057 22.0667 13.5978 13.419C22.3362 4.8171 32.7794 0.5 44.953 0.5C57.1279 0.5 67.571 4.77101 76.3559 13.4197ZM31.5184 74.5114L31.6897 74.7834L32.0083 74.7405C52.8047 71.9368 64.2281 66.4748 70.4708 61.6658C73.5929 59.2608 75.4149 57.0222 76.4626 55.3691C76.9861 54.543 77.3151 53.865 77.5161 53.388C77.6166 53.1495 77.6847 52.9621 77.7288 52.8329C77.7508 52.7686 77.7667 52.7191 77.7766 52.6886L77.7785 52.6826C82.157 43.3192 78.1015 32.1788 68.7458 27.7886L68.5334 28.2413L68.7458 27.7886C63.482 25.3189 57.3898 25.771 52.5242 28.0387C51.1764 22.8895 47.9465 18.0911 42.6759 15.6181C33.3193 11.2276 22.1816 15.2742 17.7832 24.6235C17.7785 24.6315 17.7729 24.6412 17.7665 24.6525C17.7479 24.6853 17.7222 24.7321 17.6905 24.7931C17.6273 24.9151 17.5403 25.094 17.4395 25.3314C17.2378 25.8064 16.9806 26.5154 16.7454 27.473C16.2749 29.389 15.8939 32.2947 16.2181 36.3052C16.8663 44.3249 20.3326 56.7487 31.5184 74.5114Z" 
        fill="#EC1C80" stroke-dashoffset="0" stroke-dasharray="480.161865234375" stroke-width="1" stroke="#4E3292" class="svg-elem-1">
        <animate id="f1"
        attributeName="fill"
        begin="p1.begin+2.5s"
        dur="2s"
        values="#fff; #EC1C80; #fff"
    />
        <animate id="p1"
        attributeName="stroke-dashoffset"
         begin="0.1s;f1.end+.4s"
         values="480.161865234375;0;480.161865234375"
         dur="2s"
         calcMode="linear"
     />
        </path>
        
        
    </svg>