<svg width="24" height="24" viewBox="0 0 24 24" fill="none" xmlns="http://www.w3.org/2000/svg">
<circle cx="12" cy="12" r="12" fill="#E1D7F0"/>
<path d="M11.6247 17.616L11.3517 16.9174L11.6247 17.616ZM8.37953 18.2391L8.00453 18.8887H8.00453L8.37953 18.2391ZM7.29664 15.1172L6.55519 15.2301L7.29664 15.1172ZM7.68888 13.0354L8.3384 13.4104L7.68888 13.0354ZM7.22156 14.0252L6.48453 13.8863V13.8863L7.22156 14.0252ZM13.2314 16.2354L13.881 16.6104L13.2314 16.2354ZM12.6079 17.135L13.0967 17.7039L12.6079 17.135ZM10.7276 7.77212L10.0781 7.39712L10.7276 7.77212ZM15.6207 10.5971L12.5819 15.8604L13.881 16.6104L16.9197 11.3471L15.6207 10.5971ZM8.3384 13.4104L11.3771 8.14712L10.0781 7.39712L7.03936 12.6604L8.3384 13.4104ZM11.3517 16.9174C10.4702 17.2618 9.88462 17.4886 9.43642 17.5933C9.00782 17.6935 8.85048 17.645 8.75453 17.5896L8.00453 18.8887C8.57456 19.2178 9.18007 19.1936 9.77768 19.054C10.3557 18.919 11.0597 18.6419 11.8976 18.3146L11.3517 16.9174ZM6.55519 15.2301C6.69063 16.1194 6.80272 16.8676 6.97477 17.4357C7.15266 18.0231 7.43451 18.5596 8.00453 18.8887L8.75453 17.5896C8.65858 17.5342 8.53796 17.4222 8.41038 17.0009C8.27696 16.5604 8.18059 15.9399 8.03809 15.0043L6.55519 15.2301ZM7.03936 12.6604C6.78701 13.0975 6.56409 13.4641 6.48453 13.8863L7.95859 14.1641C7.97993 14.0508 8.03492 13.936 8.3384 13.4104L7.03936 12.6604ZM8.03809 15.0043C7.9467 14.4042 7.93725 14.2773 7.95859 14.1641L6.48453 13.8863C6.40496 14.3086 6.4792 14.7312 6.55519 15.2301L8.03809 15.0043ZM12.5819 15.8604C12.2784 16.386 12.2065 16.491 12.1191 16.5661L13.0967 17.7039C13.4226 17.4238 13.6286 17.0475 13.881 16.6104L12.5819 15.8604ZM11.8976 18.3146C12.3677 18.1309 12.7707 17.9839 13.0967 17.7039L12.1191 16.5661C12.0317 16.6413 11.9171 16.6965 11.3517 16.9174L11.8976 18.3146ZM14.7239 7.25036C15.3955 7.63808 15.833 7.89253 16.1318 8.12315C16.4134 8.34046 16.4793 8.46849 16.5056 8.56648L17.9545 8.17825C17.8092 7.63609 17.4627 7.25548 17.0482 6.93563C16.651 6.62908 16.1087 6.31784 15.4739 5.95132L14.7239 7.25036ZM16.9197 11.3471C17.2862 10.7123 17.6002 10.1716 17.791 9.70752C17.99 9.22328 18.0997 8.72042 17.9545 8.17825L16.5056 8.56648C16.5318 8.66448 16.5388 8.80829 16.4036 9.1373C16.2601 9.48644 16.0084 9.92556 15.6207 10.5971L16.9197 11.3471ZM15.4739 5.95132C14.8391 5.5848 14.2984 5.2708 13.8343 5.08006C13.3501 4.88104 12.8472 4.77128 12.305 4.91655L12.6933 6.36544C12.7913 6.33918 12.9351 6.33223 13.2641 6.46745C13.6132 6.61094 14.0523 6.86263 14.7239 7.25036L15.4739 5.95132ZM11.3771 8.14712C11.7649 7.47556 12.0193 7.03803 12.2499 6.73919C12.4672 6.45758 12.5953 6.3917 12.6933 6.36544L12.305 4.91655C11.7629 5.06183 11.3823 5.40831 11.0624 5.82278C10.7559 6.22002 10.4446 6.76228 10.0781 7.39712L11.3771 8.14712ZM16.6452 10.3226L11.1026 7.1226L10.3526 8.42164L15.8952 11.6216L16.6452 10.3226Z" fill="#4E3292"/>
</svg>
