<svg width="13" height="16" viewBox="0 0 13 16" fill="none" xmlns="http://www.w3.org/2000/svg">
<path d="M5.60932 13.85L5.33639 13.1515L5.60932 13.85ZM2.22899 14.4992L1.85399 15.1487L1.85399 15.1487L2.22899 14.4992ZM1.10097 11.2471L0.359521 11.3601L1.10097 11.2471ZM1.50955 9.07859L2.15907 9.45359L1.50955 9.07859ZM1.02276 10.1096L0.285729 9.97078L0.285728 9.97078L1.02276 10.1096ZM7.28305 12.4119L7.93257 12.7869L7.28305 12.4119ZM6.63353 13.349L7.12231 13.9179L7.12231 13.9179L6.63353 13.349ZM4.67492 3.59602L4.0254 3.22102L4.67492 3.59602ZM9.7989 6.55435L6.63353 12.0369L7.93257 12.7869L11.0979 7.30435L9.7989 6.55435ZM2.15907 9.45359L5.32444 3.97102L4.0254 3.22102L0.860033 8.70359L2.15907 9.45359ZM5.33639 13.1515C4.41903 13.5099 3.80659 13.7472 3.33701 13.8569C2.88704 13.962 2.71381 13.913 2.60399 13.8496L1.85399 15.1487C2.43788 15.4858 3.05929 15.4622 3.67828 15.3175C4.27766 15.1775 5.00854 14.89 5.88225 14.5486L5.33639 13.1515ZM0.359521 11.3601C0.500757 12.2874 0.617187 13.0641 0.795604 13.6532C0.979856 14.2616 1.27009 14.8116 1.85399 15.1487L2.60399 13.8496C2.49416 13.7862 2.36515 13.6607 2.23121 13.2184C2.09143 12.7569 1.99071 12.1079 1.84242 11.1342L0.359521 11.3601ZM0.860033 8.70359C0.59611 9.16072 0.367394 9.53734 0.285729 9.97078L1.75979 10.2485C1.78324 10.1241 1.84401 9.99929 2.15907 9.45359L0.860033 8.70359ZM1.84242 11.1342C1.74754 10.5113 1.73635 10.3729 1.75979 10.2485L0.285728 9.97078C0.204063 10.4042 0.280044 10.8382 0.359521 11.3601L1.84242 11.1342ZM6.63353 12.0369C6.31847 12.5826 6.24079 12.6977 6.14475 12.7802L7.12231 13.9179C7.45685 13.6304 7.66865 13.2441 7.93257 12.7869L6.63353 12.0369ZM5.88225 14.5486C6.3739 14.3565 6.78777 14.2053 7.12231 13.9179L6.14475 12.7802C6.04872 12.8627 5.92331 12.9222 5.33639 13.1515L5.88225 14.5486ZM8.85333 3.02545C9.55211 3.42889 10.0101 3.69513 10.3234 3.93693C10.6195 4.16544 10.694 4.30406 10.7238 4.41539L12.1727 4.02716C12.0239 3.47166 11.6688 3.08045 11.2398 2.74941C10.8281 2.43167 10.2654 2.10865 9.60333 1.72642L8.85333 3.02545ZM11.0979 7.30435C11.4802 6.6423 11.806 6.08122 12.0037 5.60018C12.2096 5.099 12.3215 4.58266 12.1727 4.02716L10.7238 4.41539C10.7536 4.52673 10.7585 4.68401 10.6163 5.02996C10.4658 5.39604 10.2023 5.85558 9.7989 6.55435L11.0979 7.30435ZM9.60333 1.72642C8.94128 1.34418 8.3802 1.0184 7.89916 0.820691C7.39798 0.614707 6.88165 0.502811 6.32615 0.651657L6.71437 2.10055C6.82571 2.07071 6.98299 2.0659 7.32894 2.20808C7.69502 2.35854 8.15456 2.62202 8.85333 3.02545L9.60333 1.72642ZM5.32444 3.97102C5.72787 3.27224 5.99411 2.8143 6.23591 2.50096C6.46442 2.20485 6.60304 2.13038 6.71437 2.10055L6.32615 0.651657C5.77065 0.800502 5.37943 1.15558 5.04839 1.58455C4.73066 1.99629 4.40763 2.55897 4.0254 3.22102L5.32444 3.97102ZM10.8234 6.27983L5.04992 2.9465L4.29992 4.24554L10.0734 7.57887L10.8234 6.27983Z" fill="#4E3292"/>
</svg>
