<svg width="17" height="16" viewBox="0 0 17 16" fill="none" xmlns="http://www.w3.org/2000/svg">
<path d="M6.79793 1.20071C6.91752 0.987575 7.09173 0.810134 7.30263 0.686638C7.51354 0.563142 7.75353 0.498047 7.99793 0.498047C8.24233 0.498047 8.48232 0.563142 8.69322 0.686638C8.90413 0.810134 9.07833 0.987575 9.19793 1.20071L15.8039 13.3527C15.9305 13.5671 15.9988 13.8109 16.0018 14.0598C16.0047 14.3087 15.9424 14.5541 15.821 14.7715C15.6996 14.9888 15.5233 15.1705 15.3098 15.2985C15.0962 15.4264 14.8528 15.4962 14.6039 15.5007H1.39793C1.14901 15.4962 0.905645 15.4264 0.69209 15.2985C0.478536 15.1705 0.30226 14.9888 0.180842 14.7715C0.0594231 14.5541 -0.00289465 14.3087 0.000103277 14.0598C0.00310121 13.8109 0.0713101 13.5671 0.197927 13.3527L6.79793 1.20071Z" fill="#DF2040"/>
<path d="M8.99992 5.50171C8.99992 4.94942 8.55221 4.50171 7.99992 4.50171C7.44764 4.50171 6.99992 4.94942 6.99992 5.50171V9.50171C6.99992 10.054 7.44764 10.5017 7.99992 10.5017C8.55221 10.5017 8.99992 10.054 8.99992 9.50171V5.50171Z" fill="white"/>
<path d="M8.99992 12.8337C8.99992 12.2814 8.55221 11.8337 7.99992 11.8337C7.44764 11.8337 6.99992 12.2814 6.99992 12.8337C6.99992 13.386 7.44764 13.8337 7.99992 13.8337C8.55221 13.8337 8.99992 13.386 8.99992 12.8337Z" fill="white"/>
</svg>
