<svg width="35" height="34" viewBox="0 0 35 34" fill="none" xmlns="http://www.w3.org/2000/svg">
<path d="M17.7982 21.3044C18.7378 21.3044 19.5019 22.0482 19.5019 22.9591C19.5019 23.8732 18.7378 24.6159 17.7982 24.6159C16.8591 24.6159 16.0948 23.8732 16.0948 22.9591C16.0948 22.0482 16.8591 21.3044 17.7982 21.3044ZM17.7982 25.7454C19.3794 25.7454 20.6653 24.4962 20.6653 22.9591C20.6653 21.4242 19.3794 20.175 17.7982 20.175C16.2174 20.175 14.9304 21.4242 14.9304 22.9591C14.9304 24.4962 16.2174 25.7454 17.7982 25.7454Z" fill="#4E3292"/>
<path d="M17.7981 28.1055C20.5308 28.1055 22.754 25.9458 22.754 23.2909C22.754 22.9782 22.494 22.7264 22.1724 22.7264C21.8509 22.7264 21.5909 22.9782 21.5909 23.2909C21.5909 25.3228 19.8891 26.9757 17.7981 26.9757C15.7065 26.9757 14.0055 25.3228 14.0055 23.2909C14.0055 22.9782 13.744 22.7264 13.4231 22.7264C13.1027 22.7264 12.8413 22.9782 12.8413 23.2909C12.8413 25.9458 15.0653 28.1055 17.7981 28.1055Z" fill="#4E3292"/>
<path d="M13.576 17.4905C13.2552 17.4905 12.9937 17.7441 12.9937 18.0572V18.3008H12.7429C12.4221 18.3008 12.1606 18.5537 12.1606 18.8657C12.1606 19.1784 12.4221 19.4306 12.7429 19.4306H12.9937V19.6754C12.9937 19.9874 13.2552 20.2402 13.576 20.2402C13.8968 20.2402 14.1582 19.9874 14.1582 19.6754V19.4306H14.409C14.7298 19.4306 14.9913 19.1784 14.9913 18.8657C14.9913 18.5537 14.7298 18.3008 14.409 18.3008H14.1582V18.0572C14.1582 17.7441 13.8968 17.4905 13.576 17.4905Z" fill="#4E3292"/>
<path d="M23.4343 18.8657C23.4343 18.5537 23.1744 18.3008 22.8528 18.3008H22.6012V18.0572C22.6012 17.7441 22.3413 17.4905 22.0197 17.4905C21.6981 17.4905 21.4386 17.7441 21.4386 18.0572V18.3008H21.1867C20.8651 18.3008 20.6055 18.5537 20.6055 18.8657C20.6055 19.1784 20.8651 19.4306 21.1867 19.4306H21.4386V19.6754C21.4386 19.9874 21.6981 20.2402 22.0197 20.2402C22.3413 20.2402 22.6012 19.9874 22.6012 19.6754V19.4306H22.8528C23.1744 19.4306 23.4343 19.1784 23.4343 18.8657Z" fill="#4E3292"/>
<path d="M28.9137 10.8626C28.7708 10.8626 28.626 10.8725 28.4835 10.8899C28.1714 9.50965 27.0492 8.42101 25.6252 8.12635C25.3783 6.32471 23.8081 4.98022 21.9206 4.98022C21.7048 4.98022 21.4904 4.99726 21.2812 5.03199C20.7241 3.64288 19.3419 2.71999 17.7983 2.71999C16.2546 2.71999 14.8736 3.64288 14.3158 5.03199C13.5031 4.89844 12.6372 5.02909 11.9139 5.40807C11.6321 5.55405 11.5249 5.89858 11.6762 6.17412C11.8279 6.4472 12.1786 6.55138 12.4644 6.40368C13.0817 6.08172 13.8546 6.0247 14.5189 6.24674C14.6778 6.30377 14.8542 6.28854 14.9979 6.20603C15.1441 6.12706 15.2473 5.98997 15.2812 5.83058C15.5305 4.68383 16.5886 3.85042 17.7983 3.85042C19.0076 3.85042 20.0663 4.68383 20.3157 5.83058C20.3504 5.98997 20.4528 6.12706 20.5972 6.20603C20.7453 6.28681 20.922 6.30558 21.0762 6.24855C21.346 6.15716 21.6301 6.10965 21.9206 6.10965C23.3338 6.10965 24.4884 7.22675 24.4949 8.58775C24.4851 8.72375 24.5289 8.85803 24.6167 8.96855C24.7173 9.09104 24.8669 9.16965 25.0306 9.18243C26.351 9.27945 27.3708 10.3221 27.4051 11.6078C27.4083 11.7919 27.5057 11.9605 27.6632 12.0629C27.8225 12.1663 28.0186 12.1882 28.1925 12.122C28.4266 12.0367 28.6683 11.9924 28.9137 11.9924C30.026 11.9924 30.9324 12.8725 30.9324 13.9552C30.9324 14.4818 30.7195 14.9752 30.333 15.3478C30.2192 15.4565 30.1559 15.6099 30.1609 15.7695C30.1642 15.9254 30.2372 16.0749 30.3607 16.1794C30.7242 16.4822 30.9324 16.9227 30.9324 17.3878C30.9324 18.2682 30.1934 18.9865 29.287 18.9865C29.1022 18.9865 28.925 19.0725 28.8163 19.2174C28.7383 19.3219 28.6975 19.4497 28.7058 19.5684C28.6975 20.4431 27.9603 21.155 27.0606 21.155C26.1546 21.155 25.4156 20.4372 25.4156 19.5567V17.8864C25.4156 17.5737 25.1559 17.3216 24.834 17.3216C24.5128 17.3216 24.2529 17.5737 24.2529 17.8864V23.2188C24.2529 26.6747 21.3573 29.4872 17.7983 29.4872C16.0738 29.4872 14.4529 28.8344 13.2352 27.6512C12.9362 27.3611 12.6642 27.0392 12.4266 26.6921C12.2475 26.4335 11.8855 26.363 11.6193 26.5362C11.4899 26.6195 11.4017 26.7473 11.3714 26.8961C11.3408 27.0438 11.3714 27.1953 11.4586 27.3204C11.736 27.7238 12.0569 28.1045 12.4115 28.4502C13.8513 29.8473 15.7642 30.6169 17.7983 30.6169C21.9986 30.6169 25.4156 27.2977 25.4156 23.2166V21.767C25.8931 22.1035 26.4648 22.2848 27.0606 22.2848C28.4055 22.2848 29.5714 21.3399 29.8197 20.066C31.1252 19.8205 32.0951 18.6907 32.0951 17.3878C32.0951 16.7885 31.892 16.2066 31.5183 15.7314C31.8967 15.211 32.0951 14.5998 32.0951 13.9552C32.0951 12.2499 30.6673 10.8626 28.9137 10.8626Z" fill="#4E3292"/>
<path d="M11.6338 25.08C11.4421 24.4772 11.3448 23.8514 11.3448 23.2168V15.2583C12.0608 15.1474 12.7396 14.8301 13.2782 14.3563C13.9307 14.5447 14.6432 14.5546 15.3088 14.3796C15.9965 14.9753 16.8765 15.3026 17.7982 15.3026C18.7199 15.3026 19.6 14.9753 20.288 14.3796C20.953 14.5546 21.661 14.5464 22.3202 14.3563C22.8579 14.8301 23.5349 15.1474 24.2529 15.2583V16.1278C24.2529 16.4394 24.5128 16.6927 24.8339 16.6927C25.1559 16.6927 25.4155 16.4394 25.4155 16.1278V14.7377C25.4155 14.4249 25.1559 14.1728 24.8339 14.1728C24.1001 14.1728 23.3986 13.8657 22.9082 13.3288C22.7456 13.1492 22.4795 13.0876 22.2472 13.1818C21.6512 13.4248 20.9497 13.4375 20.3408 13.2073C20.1108 13.1219 19.8625 13.18 19.7017 13.3543C19.2143 13.8746 18.5201 14.1728 17.7982 14.1728C17.0756 14.1728 16.3821 13.8746 15.8958 13.3543C15.7336 13.1818 15.4802 13.1241 15.2567 13.2073C14.6486 13.4375 13.9472 13.4269 13.3485 13.18C13.1229 13.0922 12.8548 13.1475 12.6886 13.3288C12.1989 13.8657 11.4964 14.1728 10.7632 14.1728C10.4428 14.1728 10.181 14.4249 10.181 14.7377V19.5568C10.181 20.4373 9.44308 21.1552 8.53599 21.1552C7.63547 21.1552 6.89828 20.4433 6.89172 19.5759C6.89755 19.4481 6.85927 19.3238 6.78052 19.2175C6.67187 19.0727 6.49541 18.9866 6.30947 18.9866C5.40276 18.9866 4.6652 18.2684 4.6652 17.3879C4.6652 16.9239 4.87302 16.4823 5.23541 16.1777C5.35791 16.075 5.43083 15.9255 5.43667 15.7697C5.4425 15.6117 5.37906 15.4588 5.26385 15.3479C4.87812 14.9771 4.6652 14.4819 4.6652 13.9553C4.6652 12.8726 5.57083 11.9925 6.68391 11.9925C6.92927 11.9925 7.17099 12.0368 7.40177 12.1203C7.57968 12.1909 7.77765 12.1664 7.93515 12.063C8.0912 11.96 8.18672 11.791 8.19182 11.609C8.20385 11.1564 8.3413 10.7168 8.58958 10.3361C8.92755 9.82003 9.4438 9.44286 10.0446 9.27431C10.2127 9.22544 10.3881 9.19534 10.5667 9.18256C10.7282 9.16978 10.8784 9.09117 10.9794 8.96868C11.0669 8.85987 11.1111 8.72569 11.1034 8.59957C11.1052 8.33755 11.1468 8.08177 11.2285 7.83888C11.3268 7.54421 11.1588 7.22334 10.8533 7.1256C10.5489 7.03739 10.2193 7.19533 10.1201 7.48999C10.0512 7.69644 10.0016 7.90969 9.97244 8.12648C9.88641 8.14343 9.80109 8.16537 9.71761 8.18876C8.8437 8.43637 8.0952 8.98427 7.60703 9.73009C7.37406 10.0868 7.20853 10.4764 7.11411 10.89C6.97047 10.8727 6.82682 10.8627 6.68391 10.8627C4.92917 10.8627 3.50109 12.25 3.50109 13.9553C3.50109 14.5999 3.69979 15.2112 4.07823 15.7315C3.70489 16.2068 3.5 16.7887 3.5 17.3879C3.5 18.6891 4.47052 19.8207 5.77609 20.0661C6.0262 21.34 7.19141 22.285 8.53599 22.285C9.13135 22.285 9.70375 22.1036 10.1803 21.7672V23.2168C10.1803 23.9648 10.2955 24.7028 10.5211 25.413C10.5977 25.6513 10.8208 25.811 11.0775 25.811C11.1391 25.811 11.196 25.8029 11.2507 25.7866C11.5565 25.6938 11.7286 25.3765 11.6338 25.08Z" fill="#4E3292"/>
</svg>
