<svg width="35" height="34" viewBox="0 0 35 34" fill="none" xmlns="http://www.w3.org/2000/svg">
<path d="M5.2 27.2001L5.6 27.0001C6 26.8001 6.49998 26.8001 6.89998 26.9001L17.7 30.4001C18.2 30.6001 18.8 30.7001 19.3 30.7001C20 30.7001 20.7 30.6002 21.3 30.3002L25.9 28.4001C26.2 28.3001 26.3 28.0001 26.2 27.7001C26.1 27.4001 25.8 27.3001 25.5 27.4001L20.9 29.3002C20 29.7002 18.9 29.7001 18 29.4001L7.2 25.9001C6.5 25.7001 5.8 25.7001 5.1 26.0001L4.7 26.2001C4.4 26.3001 4.29998 26.6001 4.39998 26.9001C4.59998 27.2001 4.9 27.4001 5.2 27.2001Z" fill="#4E3292"/>
<path d="M33.1 22.9001C32.6 21.8001 31.4 21.2001 30.3 21.5001C30.2 21.4001 24.8 23.4001 24.8 23.4001L22.1 24.3001C21.6 24.5001 21 24.5001 20.5 24.3001C20.5 24.3001 16.2 22.9001 16.1 22.8001L13.6 22.0001C13.1 21.8001 12.8 21.3001 13 20.8001C13.2 20.0001 13.7 19.9001 14.1 20.0001C14.3 20.0001 20.3 22.1001 20.3 22.1001C21.4 22.5001 22.5 21.9001 23 20.9001C23.2 20.4001 23.2 19.8001 23 19.2001C22.8 18.7001 22.3 18.3001 21.8 18.1001L12.3 14.6001C12.2 14.6001 12.2 14.5001 12.1 14.5001C10.2 13.9001 8.09998 14.2001 6.39998 15.3001L1.29997 18.6001C1.09997 18.8001 0.999998 19.1001 1.2 19.3001C1.4 19.5001 1.69998 19.6001 1.89998 19.4001L6.99999 16.1001C8.39999 15.2001 10.2 14.9001 11.8 15.5001C11.9 15.5001 11.9 15.5001 12 15.6001L21.5 19.1001C21.8 19.2001 22 19.4001 22.1 19.7001C22.2 20.0001 22.2 20.3001 22.1 20.6001C21.9 21.1001 21.3 21.4001 20.7 21.2001L14.7 19.2001C14.2 19.0001 13.7 19.1001 13.2 19.3001C12.6 19.5001 12.2 20.0001 12 20.6001C11.7 21.6001 12.3 22.6001 13.3 23.0001L20.2 25.4001C20.9 25.6001 21.7 25.6001 22.4 25.4001L30.3 22.7001C31 22.5001 31.8 22.8001 32.1 23.5001C32.2 23.8001 32.3 24.2001 32.1 24.6001C32 24.9001 31.7 25.2001 31.3 25.4001L27.1 27.1001C26.8 27.2001 26.7 27.5001 26.8 27.8001C26.9 28.0001 27.1 28.1001 27.3 28.1001C27.4 28.1001 27.4 28.1001 27.5 28.1001L31.7 26.4001C32.3 26.2001 32.8 25.7001 33 25.1001C33.4 24.2001 33.4 23.5001 33.1 22.9001Z" fill="#4E3292"/>
<path d="M29.3 9.69992H30.5C30.7 9.69992 30.8 9.5999 30.8 9.3999V7.8999C30.8 7.6999 30.7 7.59991 30.5 7.59991H29.3V2.8999C28.7 2.8999 28.2 3.09991 27.7 3.59991C27.2 4.09991 27 4.59992 27 5.19992V5.59991H23.9C22.4 5.59991 21.2 6.09992 20.1 7.19992C20 7.29992 19.9 7.39991 19.8 7.49991H17.3C17.1 7.49991 17 7.59993 17 7.79993V9.29993C17 9.49993 17.1 9.59991 17.3 9.59991H18.7C18.6 9.99991 18.5 10.4999 18.5 10.9999C18.5 11.1999 18.5 11.3999 18.5 11.5999H17.3C17.1 11.5999 17 11.6999 17 11.8999V13.3999C17 13.5999 17.1 13.6999 17.3 13.6999H19.2C19.4 14.0999 19.7 14.4999 20.1 14.7999C21.2 15.8999 22.4 16.3999 23.9 16.3999C25.4 16.3999 26.6 15.8999 27.7 14.7999C28 14.3999 28.3 14.0999 28.6 13.6999H30.5C30.7 13.6999 30.8 13.5999 30.8 13.3999V12.0999C30.8 11.8999 30.7 11.7999 30.5 11.7999H29.2C29.2 11.5999 29.2 11.3999 29.2 11.1999L29.3 9.69992ZM27.1 11.1999C27.1 12.0999 26.8 12.8999 26.2 13.4999C25.6 14.0999 24.9 14.4999 24 14.4999C23.1 14.4999 22.4 14.1999 21.8 13.4999C21.2 12.8999 20.9 12.0999 20.9 11.1999C20.9 10.2999 21.2 9.4999 21.8 8.8999C22.4 8.2999 23.1 7.8999 24 7.8999H27.1V11.1999Z" fill="#4E3292"/>
</svg>
