<svg width="24" height="24" viewBox="0 0 24 24" fill="none" xmlns="http://www.w3.org/2000/svg">
<path d="M12.8953 11.3895C12.8953 11.0331 12.6064 10.7442 12.25 10.7442C11.8936 10.7442 11.6047 11.0331 11.6047 11.3895V16.5523C11.6047 16.9087 11.8936 17.1977 12.25 17.1977C12.6064 17.1977 12.8953 16.9087 12.8953 16.5523V11.3895Z" fill="#4E3292"/>
<path fill-rule="evenodd" clip-rule="evenodd" d="M12.25 3C7.14137 3 3 7.14137 3 12.25C3 17.3586 7.14137 21.5 12.25 21.5C17.3586 21.5 21.5 17.3586 21.5 12.25C21.5 7.14137 17.3586 3 12.25 3ZM4.2907 12.25C4.2907 7.8542 7.8542 4.2907 12.25 4.2907C16.6458 4.2907 20.2093 7.8542 20.2093 12.25C20.2093 16.6458 16.6458 20.2093 12.25 20.2093C7.8542 20.2093 4.2907 16.6458 4.2907 12.25Z" fill="#4E3292"/>
<path d="M13.1105 8.80814C13.1105 9.28336 12.7252 9.6686 12.25 9.6686C11.7748 9.6686 11.3895 9.28336 11.3895 8.80814C11.3895 8.33292 11.7748 7.94767 12.25 7.94767C12.7252 7.94767 13.1105 8.33292 13.1105 8.80814Z" fill="#4E3292"/>
</svg>
