<svg width="35" height="34" viewBox="0 0 35 34" fill="none" xmlns="http://www.w3.org/2000/svg">
<path d="M3.22543 18.0167L6.53009 14.3333H8.09967L9.56187 17.2636C9.69653 17.5277 10.0194 17.6324 10.2827 17.4967C10.3826 17.4458 10.4638 17.3638 10.5152 17.2636L12.0631 14.1612L18.4906 9.69386L19.4599 10.9896L12.4058 16.0489C12.2655 16.1491 12.1814 16.3112 12.1808 16.4842V20.2477C12.1808 20.5436 12.4207 20.7849 12.7166 20.7849H16.4657C17.3534 20.7849 18.0725 21.507 18.0725 22.3976V26.6983H15.9302V23.473C15.9302 23.1761 15.6903 22.9348 15.3947 22.9348H10.574C10.2781 22.9348 10.0385 23.1761 10.0385 23.473V32.0745H7.89589V17.0214C7.89483 16.8047 7.76406 16.6098 7.56383 16.527C7.36431 16.4423 7.13397 16.4869 6.98015 16.6399L4.83754 18.7907C4.63341 18.9992 4.63341 19.3334 4.83754 19.5429L6.58891 21.3759L5.68381 22.6453L3.28426 20.2477C2.67259 19.6394 2.64636 18.655 3.22543 18.0167ZM10.7774 14.3333L10.0385 15.8176L9.29926 14.3333H10.7774ZM6.82458 10.5708C6.82458 9.08558 8.02382 7.88268 9.50268 7.88268C10.9819 7.88268 12.1808 9.08558 12.1808 10.5708C12.1808 12.055 10.9819 13.2588 9.50268 13.2588C8.02382 13.2588 6.82458 12.055 6.82458 10.5708ZM23.4287 27.7737V32.0745H13.788V27.7737H23.4287ZM6.82458 20.091L5.96768 19.1722L6.82458 18.3117V20.091ZM5.79651 24.0102C5.95527 23.9984 6.10057 23.9155 6.19271 23.7844L6.82458 22.8866V32.6117C6.82458 32.9086 7.0645 33.1499 7.36041 33.1499H10.574C10.8699 33.1499 11.1095 32.9086 11.1095 32.6117V24.0102H14.8589V26.6983H13.2521C12.9562 26.6983 12.7166 26.9387 12.7166 27.2365V32.6117C12.7166 32.9086 12.9562 33.1499 13.2521 33.1499H23.9645C24.2604 33.1499 24.5 32.9086 24.5 32.6117V27.2365C24.5 26.9387 24.2604 26.6983 23.9645 26.6983H19.1438V22.3976C19.1438 20.9133 17.9449 19.7095 16.4657 19.7095H13.2521V16.7583L20.5259 11.5433C20.6435 11.4595 20.7229 11.332 20.7452 11.1881C20.7668 11.0461 20.73 10.9004 20.6435 10.7857L19.0368 8.63483C18.8638 8.40354 18.5396 8.35163 18.3028 8.51645L12.813 12.3282C13.7837 10.4924 13.088 8.21413 11.2591 7.23979C9.43003 6.26545 7.16018 6.96388 6.18952 8.79964C5.4088 10.2757 5.69161 12.0914 6.88376 13.2588H6.28911C6.13814 13.2588 5.9939 13.3235 5.8929 13.4355L2.43267 17.2955C1.48256 18.3609 1.52969 19.9863 2.53969 20.9944L5.37337 23.8545C5.48465 23.9665 5.63916 24.023 5.79651 24.0102Z" fill="#4E3292"/>
<path d="M28.4373 8.14851C27.9763 7.20596 27.2517 6.43812 26.3627 5.94957C27.2517 5.46102 27.9763 4.69316 28.4373 3.75062C28.8987 4.69316 29.6233 5.46102 30.5119 5.94957C29.6233 6.43812 28.8987 7.20596 28.4373 8.14851ZM32.7151 5.38327C30.6478 5.38327 28.9722 3.60665 28.9722 1.41635C28.9722 1.10345 28.7328 0.85005 28.4373 0.85005C28.1422 0.85005 27.9028 1.10345 27.9028 1.41635C27.9028 3.60665 26.2268 5.38327 24.1596 5.38327C23.8646 5.38327 23.625 5.63667 23.625 5.94957C23.625 6.26247 23.8646 6.51681 24.1596 6.51681C26.2268 6.51681 27.9028 8.29249 27.9028 10.4828C27.9028 10.7957 28.1422 11.05 28.4373 11.05C28.7328 11.05 28.9722 10.7957 28.9722 10.4828C28.9722 8.29249 30.6478 6.51681 32.7151 6.51681C33.0104 6.51681 33.25 6.26247 33.25 5.94957C33.25 5.63667 33.0104 5.38327 32.7151 5.38327Z" fill="#4E3292"/>
<path d="M19.1692 17L21 15.5887L20.2058 14.45L18.375 15.8613L19.1692 17Z" fill="#4E3292"/>
<path d="M27.125 10.9658L26.5695 10.2L21.875 13.6841L22.4305 14.45L27.125 10.9658Z" fill="#4E3292"/>
<path d="M24.0903 6.79995L21.875 9.20048L22.2847 10.2L24.5 7.79942L24.0903 6.79995Z" fill="#4E3292"/>
</svg>
