<svg width="26" height="26" viewBox="0 0 26 26" fill="none" xmlns="http://www.w3.org/2000/svg">
<path d="M13 26C20.1797 26 26 20.1797 26 13C26 5.8203 20.1797 0 13 0C5.8203 0 0 5.8203 0 13C0 20.1797 5.8203 26 13 26Z" fill="#EC1C80"/>
<path fill-rule="evenodd" clip-rule="evenodd" d="M20.8001 10.973C20.8001 8.73468 19.0001 6.93311 16.7637 6.93311C15.0728 6.93311 13.6546 7.97038 13.0001 9.44439C12.4001 7.97038 10.9273 6.93311 9.23644 6.93311C7.00007 6.93311 5.20007 8.73468 5.20007 10.973V11.1368C5.20007 17.3058 13.0001 20.7998 13.0001 20.7998C13.0001 20.7998 20.8001 17.3058 20.8001 11.1368V10.973Z" fill="white"/>
</svg>
