<svg width="20" height="20" viewBox="0 0 20 20" fill="none" xmlns="http://www.w3.org/2000/svg">
<path d="M4.1074 6.60744L3.57707 7.13777L4.1074 6.60744ZM2.49996 5L3.03029 4.46967L3.01597 4.45535L3.00089 4.44182L2.49996 5ZM17.5 5L18.0303 5.53033L17.5 5ZM15.8925 6.60745L16.4228 7.13778L15.8925 6.60745ZM3.38419 16.7042L3.82503 16.0975L3.38419 16.7042ZM2.46239 15.7824L3.06915 15.3416L2.46239 15.7824ZM17.5375 15.7824L16.9308 15.3416L17.5375 15.7824ZM16.6157 16.7042L16.1749 16.0975L16.6157 16.7042ZM16.6157 3.29576L16.1749 3.90253L16.6157 3.29576ZM17.5375 4.21756L16.9308 4.6584L17.5375 4.21756ZM3.38419 3.29576L3.82503 3.90253L3.38419 3.29576ZM2.46239 4.21756L1.85563 3.77672L2.46239 4.21756ZM2.17333 4.70687L1.49516 4.38659H1.49516L2.17333 4.70687ZM17.8158 4.68419L18.4914 4.35862L17.8158 4.68419ZM4.63773 6.07711L3.03029 4.46967L1.96963 5.53033L3.57707 7.13777L4.63773 6.07711ZM16.9696 4.46967L15.3622 6.07712L16.4228 7.13778L18.0303 5.53033L16.9696 4.46967ZM3.57707 7.13777C4.95097 8.51167 6.03362 9.59657 6.9932 10.3287C7.9701 11.0741 8.9071 11.5241 9.99996 11.5241V10.0241C9.36693 10.0241 8.74654 9.77972 7.90308 9.13618C7.0423 8.47943 6.04161 7.481 4.63773 6.07711L3.57707 7.13777ZM15.3622 6.07712C13.9583 7.481 12.9576 8.47943 12.0968 9.13618C11.2534 9.77972 10.633 10.0241 9.99996 10.0241V11.5241C11.0928 11.5241 12.0298 11.0741 13.0067 10.3287C13.9663 9.59657 15.0489 8.51167 16.4228 7.13778L15.3622 6.07712ZM9.16663 3.25H10.8333V1.75H9.16663V3.25ZM10.8333 16.75H9.16663V18.25H10.8333V16.75ZM9.16663 16.75C7.58753 16.75 6.46345 16.749 5.59513 16.6549C4.74084 16.5623 4.2235 16.387 3.82503 16.0975L2.94335 17.311C3.64015 17.8173 4.45164 18.0398 5.43356 18.1462C6.40144 18.251 7.62094 18.25 9.16663 18.25V16.75ZM0.916626 10C0.916626 11.5457 0.915597 12.7652 1.02046 13.7331C1.12684 14.715 1.34937 15.5265 1.85563 16.2233L3.06915 15.3416C2.77964 14.9431 2.60429 14.4258 2.51173 13.5715C2.41766 12.7032 2.41663 11.5791 2.41663 10H0.916626ZM3.82503 16.0975C3.53497 15.8867 3.27989 15.6317 3.06915 15.3416L1.85563 16.2233C2.15888 16.6407 2.52595 17.0077 2.94335 17.311L3.82503 16.0975ZM17.5833 10C17.5833 11.5791 17.5823 12.7032 17.4882 13.5715C17.3956 14.4258 17.2203 14.9431 16.9308 15.3416L18.1443 16.2233C18.6505 15.5265 18.8731 14.715 18.9795 13.7331C19.0843 12.7652 19.0833 11.5457 19.0833 10H17.5833ZM10.8333 18.25C12.379 18.25 13.5985 18.251 14.5664 18.1462C15.5483 18.0398 16.3598 17.8173 17.0566 17.311L16.1749 16.0975C15.7764 16.387 15.2591 16.5623 14.4048 16.6549C13.5365 16.749 12.4124 16.75 10.8333 16.75V18.25ZM16.9308 15.3416C16.72 15.6317 16.4649 15.8867 16.1749 16.0975L17.0566 17.311C17.474 17.0077 17.841 16.6407 18.1443 16.2233L16.9308 15.3416ZM10.8333 3.25C12.4124 3.25 13.5365 3.25103 14.4048 3.34511C15.2591 3.43766 15.7764 3.61301 16.1749 3.90253L17.0566 2.689C16.3598 2.18275 15.5483 1.96022 14.5664 1.85383C13.5985 1.74897 12.379 1.75 10.8333 1.75V3.25ZM16.1749 3.90253C16.465 4.11326 16.72 4.36834 16.9308 4.6584L18.1443 3.77672C17.841 3.35932 17.474 2.99226 17.0566 2.689L16.1749 3.90253ZM9.16663 1.75C7.62094 1.75 6.40144 1.74897 5.43356 1.85383C4.45164 1.96022 3.64014 2.18275 2.94335 2.689L3.82503 3.90253C4.2235 3.61301 4.74084 3.43766 5.59513 3.34511C6.46345 3.25103 7.58753 3.25 9.16663 3.25V1.75ZM2.94335 2.689C2.52595 2.99226 2.15888 3.35932 1.85563 3.77672L3.06915 4.6584C3.27989 4.36834 3.53497 4.11326 3.82503 3.90253L2.94335 2.689ZM2.41663 10C2.41663 8.64528 2.4171 7.62228 2.47791 6.8032C2.5386 5.98564 2.65592 5.4413 2.85151 5.02715L1.49516 4.38659C1.18404 5.04537 1.048 5.80346 0.982023 6.69215C0.916156 7.57933 0.916626 8.66643 0.916626 10H2.41663ZM2.85151 5.02715C2.91436 4.89405 2.98629 4.77245 3.06915 4.6584L1.85563 3.77672C1.71617 3.96866 1.59684 4.17128 1.49516 4.38659L2.85151 5.02715ZM3.00089 4.44182L2.67427 4.14869L1.6724 5.26505L1.99902 5.55818L3.00089 4.44182ZM19.0833 10C19.0833 8.65716 19.0838 7.56407 19.0165 6.67312C18.949 5.78039 18.8099 5.01955 18.4914 4.35862L17.1401 5.00976C17.3392 5.42285 17.4588 5.96627 17.5207 6.78612C17.5828 7.60775 17.5833 8.63555 17.5833 10H19.0833ZM18.4914 4.35862C18.3926 4.15363 18.2776 3.96026 18.1443 3.77672L16.9308 4.6584C17.0101 4.76753 17.0793 4.88351 17.1401 5.00976L18.4914 4.35862ZM18.0303 5.53033L18.3461 5.21452L17.2854 4.15386L16.9696 4.46967L18.0303 5.53033Z" fill="#AFAFAF"/>
</svg>
