<svg width="20" height="19" viewBox="0 0 20 19" fill="none" xmlns="http://www.w3.org/2000/svg">
<path d="M18.3334 8.33342C18.3334 5.99986 18.3334 4.83309 17.8793 3.94179C17.4798 3.15778 16.8424 2.52036 16.0584 2.12089C15.1671 1.66675 14.0003 1.66675 11.6667 1.66675H8.33341C5.99986 1.66675 4.83309 1.66675 3.94179 2.12089C3.15778 2.52036 2.52036 3.15778 2.12089 3.94179C1.66675 4.83309 1.66675 5.99986 1.66675 8.33342V11.857C1.66675 13.5929 3.07394 15.0001 4.80979 15.0001H5.31126C5.96051 15.0001 6.40446 15.6558 6.16333 16.2586C5.82294 17.1096 6.80299 17.879 7.54881 17.3462L9.72443 15.7922C9.74662 15.7764 9.75771 15.7684 9.76862 15.7608C10.4636 15.271 11.2918 15.0056 12.142 15.0002C12.1553 15.0001 12.169 15.0001 12.1963 15.0001H12.6536C14.0612 15.0001 14.765 15.0001 15.3391 14.8317C16.7009 14.4325 17.7658 13.3675 18.1651 12.0058C18.3334 11.4317 18.3334 10.7279 18.3334 9.32026V8.33342Z" stroke="#4E3292" stroke-width="1.5"/>
</svg>
