<svg width="20" height="20" viewBox="0 0 20 20" fill="none" xmlns="http://www.w3.org/2000/svg">
<path d="M5.37405 17.5376L5.87828 16.9824H5.87828L5.37405 17.5376ZM4.63661 16.6158L3.98818 16.9927L4.63661 16.6158ZM15.3634 16.6158L16.0118 16.9927L15.3634 16.6158ZM14.626 17.5376L14.1217 16.9824L14.626 17.5376ZM14.626 2.46242L14.1217 3.01763L14.626 2.46242ZM15.3634 3.38422L16.0118 3.00733L15.3634 3.38422ZM5.37405 2.46242L5.87828 3.01763H5.87828L5.37405 2.46242ZM4.63661 3.38422L3.98818 3.00733L4.63661 3.38422ZM8.33333 15.5C7.91912 15.5 7.58333 15.8358 7.58333 16.25C7.58333 16.6642 7.91912 17 8.33333 17V15.5ZM11.6667 17C12.0809 17 12.4167 16.6642 12.4167 16.25C12.4167 15.8358 12.0809 15.5 11.6667 15.5V17ZM15.25 9.16666V10.8333H16.75V9.16666H15.25ZM4.75 10.8333V9.16666H3.25V10.8333H4.75ZM10 17.5833C8.72931 17.5833 7.85141 17.5817 7.17883 17.4906C6.5326 17.4031 6.1651 17.2428 5.87828 16.9824L4.86982 18.0928C5.45922 18.628 6.15478 18.8656 6.97752 18.9771C7.7739 19.0849 8.77087 19.0833 10 19.0833V17.5833ZM3.25 10.8333C3.25 12.3823 3.24934 13.5923 3.33238 14.5504C3.41596 15.5147 3.58931 16.3064 3.98818 16.9927L5.28504 16.2389C5.0473 15.8299 4.90234 15.2927 4.82677 14.4208C4.75066 13.5427 4.75 12.4091 4.75 10.8333H3.25ZM5.87828 16.9824C5.65609 16.7806 5.45471 16.5308 5.28504 16.2389L3.98818 16.9927C4.22971 17.4082 4.52605 17.7806 4.86982 18.0928L5.87828 16.9824ZM15.25 10.8333C15.25 12.4091 15.2493 13.5427 15.1732 14.4208C15.0977 15.2927 14.9527 15.8299 14.715 16.2389L16.0118 16.9927C16.4107 16.3064 16.584 15.5147 16.6676 14.5504C16.7507 13.5923 16.75 12.3823 16.75 10.8333H15.25ZM10 19.0833C11.2291 19.0833 12.2261 19.0849 13.0225 18.9771C13.8452 18.8656 14.5408 18.628 15.1302 18.0928L14.1217 16.9824C13.8349 17.2428 13.4674 17.4031 12.8212 17.4906C12.1486 17.5817 11.2707 17.5833 10 17.5833V19.0833ZM14.715 16.2389C14.5453 16.5308 14.3439 16.7806 14.1217 16.9824L15.1302 18.0928C15.474 17.7806 15.7703 17.4082 16.0118 16.9927L14.715 16.2389ZM10 2.41666C11.2707 2.41666 12.1486 2.41825 12.8212 2.50934C13.4674 2.59686 13.8349 2.75714 14.1217 3.01763L15.1302 1.90721C14.5408 1.37193 13.8452 1.13433 13.0225 1.02291C12.2261 0.915059 11.2291 0.916656 10 0.916656V2.41666ZM16.75 9.16666C16.75 7.61768 16.7507 6.40767 16.6676 5.44961C16.584 4.48525 16.4107 3.69358 16.0118 3.00733L14.715 3.76111C14.9527 4.17013 15.0977 4.70729 15.1732 5.57914C15.2493 6.45728 15.25 7.59086 15.25 9.16666H16.75ZM14.1217 3.01763C14.3439 3.21942 14.5453 3.46918 14.715 3.76111L16.0118 3.00733C15.7703 2.5918 15.474 2.21942 15.1302 1.90721L14.1217 3.01763ZM10 0.916656C8.77087 0.916656 7.7739 0.915059 6.97752 1.02291C6.15478 1.13433 5.45922 1.37193 4.86982 1.90721L5.87828 3.01763C6.1651 2.75714 6.5326 2.59686 7.17883 2.50934C7.85141 2.41825 8.72931 2.41666 10 2.41666V0.916656ZM4.75 9.16666C4.75 7.59086 4.75066 6.45728 4.82677 5.57914C4.90234 4.70729 5.0473 4.17013 5.28504 3.76111L3.98818 3.00733C3.58931 3.69358 3.41596 4.48525 3.33238 5.44961C3.24934 6.40767 3.25 7.61768 3.25 9.16666H4.75ZM4.86982 1.90721C4.52605 2.21942 4.22971 2.5918 3.98818 3.00733L5.28504 3.76111C5.45471 3.46918 5.65609 3.21942 5.87828 3.01763L4.86982 1.90721ZM7.66667 5.33332H12.3333V3.83332H7.66667V5.33332ZM12.5833 5.58332V13.1667H14.0833V5.58332H12.5833ZM12.3333 13.4167H7.66667V14.9167H12.3333V13.4167ZM7.41667 13.1667V5.58332H5.91667V13.1667H7.41667ZM8.33333 17H11.6667V15.5H8.33333V17ZM7.66667 13.4167C7.5286 13.4167 7.41667 13.3047 7.41667 13.1667H5.91667C5.91667 14.1332 6.70017 14.9167 7.66667 14.9167V13.4167ZM12.5833 13.1667C12.5833 13.3047 12.4714 13.4167 12.3333 13.4167V14.9167C13.2998 14.9167 14.0833 14.1332 14.0833 13.1667H12.5833ZM12.3333 5.33332C12.4714 5.33332 12.5833 5.44525 12.5833 5.58332H14.0833C14.0833 4.61683 13.2998 3.83332 12.3333 3.83332V5.33332ZM7.66667 3.83332C6.70017 3.83332 5.91667 4.61682 5.91667 5.58332H7.41667C7.41667 5.44525 7.52859 5.33332 7.66667 5.33332V3.83332Z" fill="#AFAFAF"/>
</svg>
