<svg width="20" height="20" viewBox="0 0 20 20" fill="none" xmlns="http://www.w3.org/2000/svg">
<path fill-rule="evenodd" clip-rule="evenodd" d="M9.95833 1C5.01078 1 1 5.01078 1 9.95833C1 14.9059 5.01078 18.9167 9.95833 18.9167C14.9059 18.9167 18.9167 14.9059 18.9167 9.95833C18.9167 5.01078 14.9059 1 9.95833 1ZM2.25 9.95833C2.25 5.70114 5.70114 2.25 9.95833 2.25C14.2155 2.25 17.6667 5.70114 17.6667 9.95833C17.6667 14.2155 14.2155 17.6667 9.95833 17.6667C5.70114 17.6667 2.25 14.2155 2.25 9.95833Z" fill="#4E3292"/>
<path d="M13.8536 9.7H14.7857C14.9036 9.7 15 9.6 15 9.47778V8.31111C15 8.18889 14.9036 8.08889 14.7857 8.08889H13.8536V4.5C13.3929 4.5 12.9857 4.67778 12.6536 5.02222C12.3214 5.36667 12.15 5.78889 12.15 6.26667V6.6H9.75C8.625 6.6 7.65 7.01111 6.84643 7.82222C6.76071 7.91111 6.68571 7.98889 6.61071 8.07778H4.71429C4.59643 8.07778 4.5 8.17778 4.5 8.3V9.46667C4.5 9.58889 4.59643 9.68889 4.71429 9.68889H5.76429C5.67857 10.0333 5.63571 10.4 5.63571 10.7889C5.63571 10.9556 5.64643 11.1111 5.65714 11.2778H4.71429C4.59643 11.2778 4.5 11.3778 4.5 11.5V12.6667C4.5 12.7889 4.59643 12.8889 4.71429 12.8889H6.17143C6.35357 13.2 6.57857 13.5 6.84643 13.7667C7.66071 14.5889 8.625 15 9.73929 15C10.8643 15 11.8286 14.5889 12.6321 13.7667C12.9 13.4889 13.125 13.2 13.3071 12.8889H14.7857C14.9036 12.8889 15 12.7889 15 12.6667V11.5C15 11.3778 14.9036 11.2778 14.7857 11.2778H13.8214C13.8429 11.1222 13.8429 10.9556 13.8429 10.7889V9.7H13.8536ZM12.1393 10.8C12.1393 11.4889 11.9036 12.0889 11.4429 12.5889C10.9821 13.0889 10.4143 13.3444 9.75 13.3444C9.08571 13.3444 8.51786 13.0889 8.05714 12.5889C7.59643 12.0889 7.36071 11.4889 7.36071 10.8C7.36071 10.1111 7.59643 9.51111 8.05714 9.02222C8.51786 8.53333 9.08571 8.27778 9.75 8.27778H12.1393V10.8Z" fill="#4E3292"/>
</svg>
