<svg width="35" height="34" viewBox="0 0 35 34" fill="none" xmlns="http://www.w3.org/2000/svg">
<path d="M27.6544 28.5702C27.6544 29.971 26.5154 31.1142 25.0626 31.1705H24.1358H23.904V27.1571L24.0578 27.1025C24.9485 26.7941 25.5467 25.9766 25.5467 25.0692V19.0403L25.9734 19.6622C27.0722 21.2726 27.6544 23.1418 27.6544 25.0692V28.5702ZM22.4945 26.0928C21.914 26.0928 21.4408 25.6331 21.4408 25.0692V16.0239L21.7708 16.1718C22.6921 16.5841 23.5393 17.1285 24.2919 17.7858L24.368 17.8528V25.0692C24.368 25.6331 23.8967 26.0928 23.3163 26.0928H22.4945ZM22.7267 31.1705H12.4068V27.2364H12.639C13.8695 27.2364 14.8707 26.2639 14.8707 25.0692V17.3066L17.5667 20.3616L20.2629 17.3066V25.0692C20.2629 26.2639 21.2629 27.2364 22.4945 27.2364H22.7267V31.1705ZM10.7637 25.0692V17.8528L10.8406 17.7858C11.6007 17.1232 12.4495 16.5806 13.3624 16.1718L13.692 16.0239V25.0692C13.692 25.6331 13.2191 26.0928 12.639 26.0928H11.8173C11.2361 26.0928 10.7637 25.6331 10.7637 25.0692ZM11.2277 31.1705L10.7498 31.19H10.1752C8.68879 31.19 7.47911 30.0148 7.47911 28.5702V25.0692C7.47911 23.1418 8.06026 21.2709 9.1602 19.6622L9.58567 19.0403V25.0692C9.58567 25.9766 10.184 26.7941 11.0739 27.1025L11.2277 27.1571V31.1705ZM8.30052 13.1009C8.30052 11.8061 9.26082 10.7223 10.585 10.5233L10.7735 10.4936L10.8387 10.6677C11.4082 12.1988 12.5183 13.4936 13.9654 14.3168L14.4037 14.5651L13.9239 14.7237C11.8698 15.4073 10.0687 16.6511 8.71505 18.3196L8.30052 18.8306V13.1009ZM20.2074 15.6116L17.5667 18.605L14.925 15.6116L15.298 15.5269C16.8212 15.1852 18.3113 15.1852 19.8348 15.5269L20.2074 15.6116ZM11.654 7.48598L11.6831 7.29222H23.4486L23.4792 7.48417C23.5266 7.79407 23.5481 8.05827 23.5481 8.31404C23.5481 11.5188 20.8659 14.1244 17.5667 14.1244C14.2683 14.1244 11.585 11.5188 11.585 8.31404C11.585 8.06181 11.6069 7.7976 11.654 7.48598ZM12.1702 5.82451C13.1611 3.80691 15.2797 2.50493 17.5667 2.50493C19.8527 2.50493 21.9706 3.80691 22.9626 5.82451L23.1219 6.14683H12.0113L12.1702 5.82451ZM24.359 10.4936L24.5493 10.5233C25.8516 10.7188 26.833 11.827 26.833 13.1009V18.8342L26.4174 18.3214C25.0663 16.6528 23.2652 15.409 21.2086 14.7237L20.7317 14.5651L21.167 14.3168C22.614 13.4919 23.726 12.1971 24.2955 10.6677L24.359 10.4936ZM24.854 9.40974L24.64 9.37121L24.6674 9.15978C24.7071 8.85124 24.7253 8.57471 24.7253 8.31404C24.7253 8.06888 24.709 7.81002 24.6784 7.544L24.6474 7.29222H26.3685V6.14683H24.3644L24.3083 5.99706C23.2943 3.22392 20.5848 1.35991 17.5667 1.35991C14.5477 1.35991 11.838 3.22392 10.8245 5.99706L10.7698 6.14683H8.76499V7.29222H10.4825L10.4534 7.54228C10.4228 7.81537 10.4071 8.06888 10.4071 8.31404C10.4071 8.57471 10.4264 8.85124 10.465 9.15978L10.4917 9.37121L10.2777 9.40974C8.44926 9.74267 7.12182 11.295 7.12182 13.1009L7.10541 21.0293C6.57129 22.3312 6.30005 23.6916 6.30005 25.0692V28.5702C6.30005 30.6456 8.03838 32.3335 10.1752 32.3335L10.982 32.3442H25.3966V32.3034L25.5905 32.272C27.4677 31.9688 28.8317 30.4111 28.8317 28.5702V25.0692C28.8317 23.688 28.5611 22.3297 28.0281 21.0293L28.0117 20.9464V13.1009C28.0117 11.2968 26.6843 9.74267 24.854 9.40974Z" fill="#4E3292"/>
</svg>
