<svg width="16" height="19" viewBox="0 0 16 19" fill="none" xmlns="http://www.w3.org/2000/svg">
<path fill-rule="evenodd" clip-rule="evenodd" d="M7.2499 0.041748C4.42027 0.041748 2.23095 2.52177 2.58192 5.32955L2.64805 5.85859C2.74482 6.63272 2.46205 7.40596 1.8887 7.93504C0.700638 9.03137 0.370558 10.7763 1.0761 12.2309L1.16223 12.4084C1.81987 13.7642 3.19428 14.6251 4.70114 14.6251H11.5518C12.8516 14.6251 14.0613 13.9611 14.7591 12.8645C15.7442 11.3167 15.4833 9.28609 14.1389 8.03755L14.1023 8.00359C13.4869 7.43203 13.1839 6.59935 13.2881 5.76592L13.3419 5.33515C13.6933 2.5244 11.5016 0.041748 8.669 0.041748H7.2499ZM3.82227 5.17451C3.56456 3.11279 5.17214 1.29175 7.2499 1.29175H8.669C10.7497 1.29175 12.3597 3.11542 12.1016 5.1801L12.0477 5.61088C11.8937 6.8432 12.3417 8.07441 13.2517 8.91952L13.2883 8.95349C14.1907 9.79152 14.3658 11.1545 13.7046 12.1934C13.2362 12.9294 12.4242 13.3751 11.5518 13.3751H4.70114C3.67317 13.3751 2.73554 12.7878 2.2869 11.8629L2.20077 11.6853C1.73571 10.7265 1.95328 9.57634 2.73641 8.85367C3.60621 8.05103 4.0352 6.87796 3.8884 5.70355L3.82227 5.17451Z" fill="#4E3292"/>
<path d="M6.15275 16.1251C5.94564 15.8489 5.55389 15.793 5.27775 16.0001C5.0016 16.2072 4.94564 16.5989 5.15275 16.8751L5.40275 17.2084C6.77775 19.0417 9.52775 19.0417 10.9027 17.2084L11.1527 16.8751C11.3599 16.5989 11.3039 16.2072 11.0277 16.0001C10.7516 15.793 10.3599 15.8489 10.1527 16.1251L9.90275 16.4584C9.02775 17.6251 7.27775 17.6251 6.40275 16.4584L6.15275 16.1251Z" fill="#4E3292"/>
</svg>
