<svg width="27" height="38" viewBox="0 0 27 38" fill="none" xmlns="http://www.w3.org/2000/svg">
<path d="M22.5596 12.8661C22.2233 13.4065 21.9242 13.9705 21.6003 14.5189C21.565 14.579 21.5507 14.6892 21.4396 14.6908C21.2981 13.5829 21.7691 12.6457 22.2173 11.702C22.3131 11.5009 22.4553 11.3197 22.4946 11.0944C22.5047 11.0358 22.5179 11.0046 22.5764 11.0006C22.657 10.995 22.6638 11.0475 22.6763 11.1112C22.7255 11.3706 22.7792 11.6292 22.8362 11.8868C22.92 12.2645 22.7512 12.5587 22.5596 12.8661ZM20.3124 6.58683C19.9004 6.91952 19.6911 7.39813 19.3981 7.81537C19.0105 8.36776 18.4934 8.78952 17.9991 9.23447C17.733 9.47419 17.4756 9.71103 17.5414 10.1179C17.3402 10.1243 17.225 10.0109 17.1882 9.87696C17.0992 9.55546 16.9678 9.23806 16.9476 8.90651C17.274 8.06514 17.1217 7.06739 16.4887 6.37677C16.4787 6.2565 16.3893 6.1623 16.2758 6.08533C15.97 5.87887 15.6533 5.69046 15.2584 5.68205C14.9205 5.67527 14.6099 5.57389 14.4207 5.25475C14.5281 5.02868 14.7735 4.90923 14.8857 4.67793C14.9258 4.59502 14.9935 4.6178 15.0765 4.67198C15.1983 4.75212 15.3062 4.84274 15.4157 4.93735C15.6742 5.16054 15.9332 5.12093 16.0325 4.79738C16.1351 4.46387 16.4763 4.33118 16.5853 4.01297C16.6378 3.85945 16.8423 3.97007 16.9697 3.88387C17.1028 3.60332 16.9196 3.285 17.017 2.98156C17.0587 3.39244 17.1794 3.76884 17.3137 4.15366C17.3313 4.20414 17.3545 4.24868 17.381 4.28952C17.5133 4.63021 17.6315 4.98343 17.6472 5.21709C17.66 5.40672 17.9258 5.30123 18.0801 5.2371C18.1791 5.28522 18.2545 5.40272 18.2381 5.47609C18.2196 5.55747 18.3935 5.59225 18.4524 5.57029C18.4938 5.5546 18.4938 5.79349 18.6244 5.69128C18.6353 5.68287 18.7507 5.70329 18.764 5.70534C18.9924 6.30258 19.2574 6.1819 19.7982 5.77994C19.9929 5.91181 20.1368 6.08257 20.2844 6.24727C20.3733 6.34629 20.4282 6.49303 20.3124 6.58683ZM17.9378 12.3831C17.8043 12.165 17.6733 11.951 17.5133 11.6889C17.9393 11.8399 18.1046 12.1322 17.9378 12.3831ZM6.16198 14.5886C5.77837 14.2327 5.58235 13.7941 5.59598 13.2742C5.62324 12.2136 6.11508 11.3176 6.58928 10.2874C7.08634 10.7441 7.09356 13.7412 7.019 15.4099C7.0178 15.4091 7.0174 15.408 7.01619 15.4067C6.74281 15.1233 6.451 14.8568 6.16198 14.5886ZM26.1151 34.8023C26.0498 34.5851 25.9344 34.3882 25.786 34.2095C25.5591 33.9365 25.3631 33.637 25.2197 33.3139C24.8477 32.477 24.5827 31.6007 24.3943 30.7068C24.2067 29.8181 24.0051 28.9451 23.565 28.1342C23.1985 27.4599 22.8141 26.7937 22.2709 26.2606C21.9107 25.9062 21.6977 25.5314 21.6769 25.0492C21.6076 23.4771 21.4717 21.9129 21.1711 20.3656C21.153 20.2723 21.1242 20.1352 21.1715 20.083C21.3145 19.9243 21.2536 19.7829 21.1879 19.6325C21.0773 19.3788 21.1755 19.1615 21.3458 18.9956C21.9227 18.4331 22.2862 17.2907 21.9198 16.4983C21.7227 16.0717 21.8377 15.7354 22.1159 15.4212C22.7813 14.6688 23.5192 13.9753 23.9982 13.073C24.0764 12.9263 24.1826 12.7847 24.1746 12.6156C24.1338 11.7918 24.1008 10.9665 24.0271 10.1452C23.9738 9.54828 23.8567 8.95905 23.9807 8.35699C24.0752 7.89644 24.199 7.42542 24.0869 6.95882C23.9694 6.4722 23.7637 6.02397 23.2519 5.79873C23.1396 5.74947 23.037 5.67969 22.9295 5.61996C21.5675 4.29311 22.121 2.73701 20.2755 1.74778C19.5793 1.37456 19.1616 1.22586 18.3202 1.57056C17.9871 1.70684 17.721 1.93937 17.4411 2.16821C17.3669 2.03634 17.4163 1.9289 17.4159 1.82628C17.4138 1.37292 17.2419 1.00411 16.9003 0.707134C16.544 0.396816 16.1328 0.213234 15.6806 0.0761375C14.6155 -0.246494 13.5934 0.500256 13.3352 1.48641C13.1793 2.08324 13.2314 2.71537 12.936 3.29618C12.667 3.82579 12.4373 4.35366 11.9034 4.68152C11.5297 4.91087 11.1482 5.1313 10.854 5.47486C10.767 5.57584 10.6275 5.64202 10.4907 5.70411C10.1056 5.87815 9.67824 5.87846 9.29223 6.03885C9.14872 6.09816 9.02085 6.17112 8.899 6.25332C8.85129 6.15553 8.81361 6.06009 8.80719 5.9703C8.12014 5.06398 7.35412 4.20291 7.46715 2.98156C7.47677 2.87617 7.36013 2.50654 7.44069 2.48129C7.42827 2.0191 7.44591 1.70489 7.2062 1.41181C7.23907 1.41899 7.26913 1.42587 7.29919 1.43264C6.75404 0.817757 6.03932 0.371162 5.22399 0.207691C5.13981 0.275829 5.03279 0.298611 4.91053 0.327549C3.41535 0.678295 3.04617 1.17374 3.12473 2.65287C3.13636 2.87052 3.08104 3.09053 3.07022 3.31024C3.04015 3.93036 3.00447 4.55407 3.47828 5.1001C3.61578 4.85638 3.10669 3.89024 3.55084 3.84057C3.52277 4.22097 4.09119 5.25362 4.5209 5.29046C4.16013 5.58107 3.75046 5.57625 3.38329 5.65362C2.33425 5.87405 1.34776 6.23085 0.475909 6.86616C-0.149019 7.32157 -0.151824 7.55564 0.428208 8.06719C0.871549 8.45796 1.45839 8.4949 2.0292 8.7338C1.72296 9.16869 1.84001 9.58799 2.14826 9.94233C2.41002 10.2434 2.42083 10.528 2.3106 10.8899C1.96266 12.0355 2.05607 13.1439 2.46413 14.2863C2.8758 15.4376 3.156 16.655 3.02853 17.8969C2.871 19.4321 2.88221 20.9449 3.30391 22.4409C3.41736 22.8429 3.63181 23.2898 3.54883 23.6599C3.25782 24.9598 3.48991 26.0895 4.35334 27.0991C4.40785 27.1632 4.40825 27.2871 4.40825 27.383C4.41347 30.2422 5.2264 33.1207 4.17816 35.958C4.02905 36.3608 4.08677 36.8082 3.58972 37.0631C3.26263 37.2315 3.34721 37.5598 3.49632 37.6772C4.56218 37.6716 5.2272 37.1986 5.65891 36.3672C5.72626 36.2374 5.94272 36.1864 6.08902 36.0967C6.62015 35.7712 6.86187 35.3595 6.52756 34.7442C6.16639 34.0796 6.20648 33.3849 6.41492 32.6674C6.60452 32.8762 6.60051 33.1292 6.65823 33.3645C6.89233 34.3133 6.69751 35.2845 6.82017 36.2358C6.87108 36.631 6.79693 36.8831 6.4065 37.0527C6.11709 37.1778 5.82326 37.3637 5.94752 37.7798C6.08101 37.9522 6.23975 37.8536 6.39207 37.8203C6.61975 37.7494 6.82619 38.1418 6.98292 37.9434C7.32165 37.5145 7.9121 37.2555 7.98745 36.6522C8.06161 36.0586 8.33299 35.6 8.71019 35.1547C9.1403 34.6472 9.23691 34.1032 8.65608 33.6006C8.14419 33.1576 7.95178 32.5684 7.83072 31.9166C7.48319 30.047 7.6752 28.0472 6.51913 26.3672C6.48226 26.3139 6.49589 26.2237 6.49188 26.1503C6.39809 24.4163 6.47424 22.6922 6.72437 20.9802C6.72518 20.9842 6.72437 20.9882 6.72518 20.9922C6.90035 20.9858 6.89634 20.8451 6.96288 20.6727C7.11641 21.1582 7.42386 21.4099 7.77941 21.6376C7.91811 21.4006 7.86159 21.1421 7.76379 20.9746C7.46033 20.4558 7.58741 19.9736 7.78383 19.4786C7.80627 19.4229 7.7738 19.3331 7.88283 19.331C8.01151 19.3287 7.97904 19.4393 7.99628 19.501C8.03035 19.6233 8.03716 19.7524 8.06241 19.8774C8.08807 20.0053 8.08967 20.1933 8.23919 20.2001C8.41998 20.2089 8.44002 20.0069 8.45686 19.8727C8.50215 19.511 8.49133 19.1475 8.44723 18.7843C8.40915 18.4697 8.35263 18.165 8.13536 17.9185C8.0091 17.7754 8.02794 17.6098 8.04397 17.4431C8.12134 16.6318 8.46847 15.9078 8.7619 15.163C9.11225 14.2731 9.53675 13.3973 9.46339 12.3959C9.45217 12.242 9.50388 12.0845 9.5151 11.9282C9.5596 11.3 9.77485 10.714 9.95724 10.1199C10.0386 10.1175 10.0679 10.1592 10.0967 10.2357C10.1717 10.4362 10.2511 10.635 10.3313 10.8335C10.3613 11.0719 10.4358 11.292 10.5481 11.5157C10.8608 12.1394 10.813 12.7439 10.7253 13.4193C10.7173 13.4814 10.7308 13.538 10.7586 13.5869C10.743 13.6935 10.7533 13.8138 10.7598 13.9404C10.7842 14.4118 10.9646 14.8768 10.8881 15.3446C10.8055 15.8545 10.6603 16.3543 10.5609 16.8642C10.4655 17.3556 10.4166 17.8455 10.4182 18.341C10.4194 18.6837 10.5161 19.0132 10.5994 19.3479C10.7209 19.8357 10.6599 20.3496 10.5914 20.8447C10.4398 21.9362 10.3056 23.0241 10.3477 24.1324C10.3677 24.6684 10.4282 25.2099 10.3172 25.7503C10.14 26.6125 9.76844 27.405 9.44695 28.2135C9.11023 29.0597 8.98597 29.9368 9.07376 30.8235C9.1419 31.5085 9.21887 32.1904 9.23049 32.879C9.24893 34.0186 9.26817 35.1563 8.91382 36.2634C8.72262 36.8615 8.92104 37.1537 9.53755 37.1753C10.4415 37.2066 11.3466 37.2022 12.2509 37.2283C12.8193 37.2443 13.3885 37.2724 13.9538 37.3293C14.1305 37.3473 14.3189 37.4471 14.3866 37.2226C14.454 36.9994 14.282 36.9164 14.0823 36.8491C13.7016 36.7204 13.2895 36.6627 12.9588 36.4069C12.6069 36.1351 12.2545 35.863 11.8373 35.6982C11.2428 35.4637 11.0488 34.9651 10.993 34.3958C10.9005 33.4482 11.0227 32.5139 11.2055 31.5843C11.3682 30.7553 11.6396 29.9528 11.7274 29.103C11.7931 28.4689 11.8629 27.8051 12.2329 27.2543C12.4749 26.8936 12.6133 26.4962 12.7552 26.1006C13.0346 25.3214 13.3637 24.5593 13.619 23.7461C13.7393 24.1597 13.8952 24.5666 13.9694 24.9879C14.0411 25.3943 14.1176 25.8344 13.8026 26.1928C13.2662 26.8017 12.9893 27.5549 12.6518 28.2704C12.4293 28.7418 12.4189 29.2714 12.3704 29.7917C12.2562 31.0147 11.9707 32.2068 11.6328 33.3877C11.5097 33.8174 11.339 34.2403 11.3213 34.6969C11.3069 35.0609 11.4195 35.218 11.7839 35.2645C12.0854 35.303 12.3884 35.3386 12.6959 35.321C13.1621 35.2946 13.6081 35.3719 14.0399 35.5679C14.3561 35.711 14.686 35.9026 15.0485 35.7832C15.2897 35.7038 15.5238 35.6766 15.7712 35.6818C15.8577 35.6838 15.9443 35.6537 16.0318 35.6445C16.1304 35.6341 16.2253 35.5812 16.2245 35.495C16.2234 35.3916 16.1479 35.2962 16.0305 35.2709C15.9067 35.2448 15.7788 35.2056 15.6554 35.2128C15.3663 35.2288 15.1234 35.117 14.8789 34.9891C14.4688 34.7743 14.1802 34.4019 13.8001 34.1545C13.3023 33.831 13.2317 33.3893 13.328 32.859C13.5144 31.832 14.0139 30.9293 14.4616 30.0097C14.7758 29.3636 15.1795 28.7583 15.3724 28.0572C15.5311 27.4807 15.754 26.9408 16.063 26.4241C16.2995 26.0289 16.4322 25.5491 16.3716 25.0993C16.2154 23.9396 16.3681 22.7969 16.5272 21.6648C16.7344 20.1936 16.4734 18.7971 16.1043 17.395C15.9639 16.8634 15.7928 16.3383 15.7808 15.7747C15.7644 15.0091 15.8193 14.2435 15.7307 13.4766C15.689 13.1167 15.7728 12.7439 15.9676 12.3438C16.0907 12.6605 16.2001 12.9162 16.2899 13.1788C16.5609 13.9701 16.7769 14.7818 17.3009 15.4652C17.5076 15.7354 17.5991 16.0729 17.5145 16.414C17.349 17.0847 17.2391 17.7629 17.1301 18.4451C16.9293 19.6986 17.0026 20.9317 17.2464 22.1646C17.3822 22.8509 17.5069 23.5416 17.7153 24.2094C17.9599 24.9943 17.9555 25.8425 18.2957 26.5961C18.6229 27.3188 18.6004 28.07 18.5952 28.8284C18.5912 29.4481 18.5832 30.0687 18.5968 30.688C18.6192 31.6969 18.4881 32.6862 18.2465 33.6627C18.1871 33.902 18.147 34.1706 17.957 34.3317C17.6432 34.5979 17.4191 34.9438 17.0803 35.1943C16.6093 35.5427 16.1435 35.8537 15.5431 35.8974C15.4445 35.9046 15.3259 35.9034 15.309 36.0265C15.2922 36.1508 15.39 36.2137 15.4982 36.2506C15.9006 36.3889 16.3087 36.3716 16.7148 36.2807C17.1909 36.174 17.6611 35.9664 18.1567 36.0842C18.5287 36.1728 18.8974 36.1628 19.269 36.1612C19.8026 36.1584 20.0302 35.8493 19.8835 35.3411C19.7965 35.0404 19.7252 34.7434 19.7151 34.4223C19.6911 33.6535 19.9052 32.9283 20.0659 32.1932C20.2179 31.5017 20.4271 30.8211 20.5501 30.1248C20.6957 29.2982 20.6564 28.4592 20.5617 27.6239C20.7377 27.613 20.8071 27.7614 20.8688 27.8616C21.0725 28.1903 21.2544 28.5326 21.4296 28.8777C21.6962 29.4037 21.901 29.9677 22.2189 30.4591C22.8658 31.4584 23.3453 32.5271 23.7321 33.6459C23.8941 34.1132 23.7208 34.4804 23.4266 34.8191C23.304 34.9598 23.1769 35.0945 23.0819 35.2581C22.8478 35.6613 22.6073 36.0546 22.0316 35.9588C21.9555 35.9459 21.8216 35.9391 21.8003 36.081C21.7824 36.2001 21.8758 36.2975 21.9491 36.3095C22.5388 36.4053 23.1328 36.6278 23.7153 36.2662C23.949 36.1211 24.1906 35.9977 24.4616 35.9127C24.9034 35.7736 25.366 35.6874 25.7761 35.4501C26.0554 35.2885 26.1957 35.0713 26.1151 34.8023Z" fill="#4E3292"/>
</svg>
