<svg width="20" height="20" viewBox="0 0 20 20" fill="none" xmlns="http://www.w3.org/2000/svg">
<path fill-rule="evenodd" clip-rule="evenodd" d="M9 4.25C7.48122 4.25 6.25 5.48122 6.25 7C6.25 8.51878 7.48122 9.75 9 9.75C10.5188 9.75 11.75 8.51878 11.75 7C11.75 5.48122 10.5188 4.25 9 4.25ZM7.75 7C7.75 6.30964 8.30964 5.75 9 5.75C9.69036 5.75 10.25 6.30964 10.25 7C10.25 7.69036 9.69036 8.25 9 8.25C8.30964 8.25 7.75 7.69036 7.75 7Z" fill="#4E3292"/>
<path fill-rule="evenodd" clip-rule="evenodd" d="M14.4635 0.373728C13.3214 0.249985 11.8818 0.249992 10.0452 0.25H9.95475C8.11821 0.249992 6.67861 0.249985 5.53648 0.373728C4.37094 0.500006 3.42656 0.762324 2.62024 1.34815C2.13209 1.70281 1.70281 2.13209 1.34815 2.62024C0.762324 3.42656 0.500006 4.37094 0.373728 5.53648C0.249985 6.67861 0.249992 8.11821 0.25 9.95475V10.0452C0.249992 11.8818 0.249985 13.3214 0.373728 14.4635C0.500006 15.6291 0.762324 16.5734 1.34815 17.3798C1.36102 17.3975 1.37399 17.4151 1.38706 17.4327C1.73405 17.899 2.14981 18.3101 2.62024 18.6518C3.42656 19.2377 4.37094 19.5 5.53648 19.6263C6.67859 19.75 8.11817 19.75 9.95465 19.75H10.0453C11.8818 19.75 13.3214 19.75 14.4635 19.6263C15.6291 19.5 16.5734 19.2377 17.3798 18.6518C17.8679 18.2972 18.2972 17.8679 18.6518 17.3798C19.5217 16.1825 19.6903 14.6546 19.7348 12.5005C19.75 11.7682 19.75 10.9403 19.75 10.006V9.95473C19.75 8.11824 19.75 6.67859 19.6263 5.53648C19.5 4.37094 19.2377 3.42656 18.6518 2.62024C18.2972 2.13209 17.8679 1.70281 17.3798 1.34815C16.5734 0.762324 15.6291 0.500006 14.4635 0.373728ZM3.50191 2.56168C4.00992 2.19259 4.66013 1.97745 5.69804 1.865C6.74999 1.75103 8.10843 1.75 10 1.75C11.8916 1.75 13.25 1.75103 14.302 1.865C15.3399 1.97745 15.9901 2.19259 16.4981 2.56168C16.8589 2.82382 17.1762 3.14111 17.4383 3.50191C17.8074 4.00992 18.0225 4.66013 18.135 5.69804C18.249 6.74999 18.25 8.10843 18.25 10C18.25 10.255 18.25 10.5006 18.2497 10.7373C18.1438 10.6476 18.0435 10.5687 17.9448 10.4986C15.4737 8.7441 12.0651 9.20873 10.1537 11.5606C9.99513 11.7558 9.8432 11.9843 9.67111 12.2694L9.54618 12.2444C8.44707 12.0244 7.77404 11.8897 7.14216 11.9032C5.45369 11.939 3.86636 12.7154 2.80143 14.0261C2.53101 14.359 2.30278 14.7487 2.02741 15.2781C1.95858 14.9948 1.90522 14.6732 1.865 14.302C1.75103 13.25 1.75 11.8916 1.75 10C1.75 8.10843 1.75103 6.74999 1.865 5.69804C1.97745 4.66013 2.19259 4.00992 2.56168 3.50191C2.82382 3.14111 3.14111 2.82382 3.50191 2.56168ZM17.0764 11.7217C17.3239 11.8974 17.6104 12.1728 18.2273 12.7882C18.1701 14.7589 17.972 15.7636 17.4383 16.4981C17.1762 16.8589 16.8589 17.1762 16.4981 17.4383C15.9901 17.8074 15.3399 18.0225 14.302 18.135C13.25 18.249 11.8916 18.25 10 18.25C9.2582 18.25 8.59839 18.2498 8.0069 18.2428L10.3256 14.1404C10.4556 13.9105 10.5685 13.7108 10.6693 13.5345C10.9887 12.9758 11.1615 12.699 11.3178 12.5066C12.7305 10.7683 15.25 10.4249 17.0764 11.7217ZM6.34708 18.131C6.33655 18.1496 6.3269 18.1685 6.31812 18.1876C6.09986 18.1735 5.89365 18.1562 5.69804 18.135C4.66013 18.0225 4.00992 17.8074 3.50191 17.4383C3.28075 17.2776 3.07593 17.0962 2.89014 16.8968C3.45192 15.7732 3.68417 15.3184 3.96564 14.972C4.75276 14.0031 5.92601 13.4293 7.17401 13.4028C7.55888 13.3947 7.98434 13.4647 8.88421 13.6422L6.34708 18.131Z" fill="#4E3292"/>
</svg>
