<svg width="48" height="48" viewBox="0 0 48 48" fill="none" xmlns="http://www.w3.org/2000/svg">
<path d="M6.26719 44.5597L6.70803 43.9529L6.26719 44.5597ZM3.44034 41.7328L2.83358 42.1736L3.44034 41.7328ZM44.5597 41.7328L43.9529 41.292L44.5597 41.7328ZM41.7328 44.5597L41.292 43.9529L41.7328 44.5597ZM41.7328 3.44034L41.292 4.0471L41.7328 3.44034ZM44.5597 6.26719L43.9529 6.70803L44.5597 6.26719ZM6.26719 3.44034L6.70803 4.0471L6.26719 3.44034ZM3.44034 6.26719L4.0471 6.70803L3.44034 6.26719ZM4.11688 40.7662L3.44606 40.4308H3.44606L4.11688 40.7662ZM22.7222 31.6667L22.9462 30.9509L22.9083 30.939L22.8693 30.9312L22.7222 31.6667ZM16.7373 30.7799L16.7533 31.5297L16.7373 30.7799ZM7.09126 35.4976L6.50915 35.0247L7.09126 35.4976ZM23.1635 33.638L22.5106 33.269L23.1635 33.638ZM15.6804 45.3532C15.4766 45.7138 15.6037 46.1713 15.9643 46.3751C16.3249 46.579 16.7824 46.4519 16.9863 46.0913L15.6804 45.3532ZM43.1938 26.837L43.628 26.2255L43.1938 26.837ZM25.8803 29.197L25.2982 28.724L25.8803 29.197ZM3.83622 41.3276L4.48166 41.7095L4.49517 41.6867L4.50704 41.663L3.83622 41.3276ZM15.5833 16.3333C15.5833 19.5703 18.2074 22.1944 21.4444 22.1944V20.6944C19.0359 20.6944 17.0833 18.7419 17.0833 16.3333H15.5833ZM21.4444 22.1944C24.6814 22.1944 27.3056 19.5703 27.3056 16.3333H25.8056C25.8056 18.7419 23.853 20.6944 21.4444 20.6944V22.1944ZM27.3056 16.3333C27.3056 13.0963 24.6814 10.4722 21.4444 10.4722V11.9722C23.853 11.9722 25.8056 13.9248 25.8056 16.3333H27.3056ZM21.4444 10.4722C18.2074 10.4722 15.5833 13.0963 15.5833 16.3333H17.0833C17.0833 13.9248 19.0359 11.9722 21.4444 11.9722V10.4722ZM24 46.25C19.192 46.25 15.6462 46.249 12.8804 45.9493C10.1287 45.6512 8.23829 45.0647 6.70803 43.9529L5.82635 45.1664C7.65493 46.495 9.83955 47.1286 12.7189 47.4406C15.5842 47.751 19.2254 47.75 24 47.75V46.25ZM0.25 24C0.25 28.7746 0.248971 32.4158 0.559406 35.2811C0.871362 38.1604 1.50504 40.3451 2.83358 42.1736L4.0471 41.292C2.9353 39.7617 2.34881 37.8713 2.05068 35.1195C1.75103 32.3538 1.75 28.808 1.75 24H0.25ZM24 47.75C28.7746 47.75 32.4158 47.751 35.2811 47.4406C38.1604 47.1286 40.3451 46.495 42.1736 45.1664L41.292 43.9529C39.7617 45.0647 37.8713 45.6512 35.1195 45.9493C32.3538 46.249 28.808 46.25 24 46.25V47.75ZM43.9529 41.292C43.211 42.3131 42.3131 43.211 41.292 43.9529L42.1736 45.1664C43.3221 44.332 44.332 43.3221 45.1664 42.1736L43.9529 41.292ZM24 1.75C28.808 1.75 32.3538 1.75103 35.1195 2.05068C37.8713 2.34881 39.7617 2.9353 41.292 4.0471L42.1736 2.83358C40.3451 1.50504 38.1604 0.871362 35.2811 0.559406C32.4158 0.248971 28.7746 0.25 24 0.25V1.75ZM47.75 24C47.75 19.2254 47.751 15.5842 47.4406 12.7189C47.1286 9.83955 46.495 7.65493 45.1664 5.82635L43.9529 6.70803C45.0647 8.23829 45.6512 10.1287 45.9493 12.8804C46.249 15.6462 46.25 19.192 46.25 24H47.75ZM41.292 4.0471C42.3131 4.78897 43.211 5.68693 43.9529 6.70803L45.1664 5.82635C44.332 4.67791 43.3221 3.66796 42.1736 2.83358L41.292 4.0471ZM24 0.25C19.2254 0.25 15.5842 0.248971 12.7189 0.559406C9.83955 0.871362 7.65493 1.50504 5.82635 2.83358L6.70803 4.0471C8.23829 2.9353 10.1287 2.34881 12.8804 2.05068C15.6462 1.75103 19.192 1.75 24 1.75V0.25ZM1.75 24C1.75 19.192 1.75103 15.6462 2.05068 12.8804C2.34881 10.1287 2.9353 8.23829 4.0471 6.70803L2.83358 5.82635C1.50504 7.65493 0.871362 9.83955 0.559406 12.7189C0.248971 15.5842 0.25 19.2254 0.25 24H1.75ZM5.82635 2.83358C4.67791 3.66796 3.66796 4.67791 2.83358 5.82635L4.0471 6.70803C4.78897 5.68693 5.68693 4.78897 6.70803 4.0471L5.82635 2.83358ZM22.8693 30.9312C19.8503 30.3274 18.2258 29.9981 16.7214 30.03L16.7533 31.5297C18.053 31.5021 19.4837 31.7838 22.5751 32.4021L22.8693 30.9312ZM4.7877 41.1016C6.19763 38.2818 6.85363 36.9795 7.67336 35.9705L6.50915 35.0247C5.56032 36.1926 4.82292 37.6771 3.44606 40.4308L4.7877 41.1016ZM16.7214 30.03C12.749 30.1144 9.01455 31.9409 6.50915 35.0247L7.67336 35.9705C9.90096 33.2286 13.2213 31.6047 16.7533 31.5297L16.7214 30.03ZM22.5106 33.269L15.6804 45.3532L16.9863 46.0913L23.8165 34.007L22.5106 33.269ZM43.628 26.2255C37.8144 22.0977 29.795 23.1908 25.2982 28.724L26.4623 29.67C30.4604 24.7504 37.5906 23.7785 42.7596 27.4486L43.628 26.2255ZM23.8165 34.007C24.1482 33.4201 24.4382 32.907 24.6976 32.4534L23.3954 31.7089C23.1339 32.1663 22.8418 32.683 22.5106 33.269L23.8165 34.007ZM24.6976 32.4534C25.5084 31.0353 25.9937 30.2466 26.4623 29.67L25.2982 28.724C24.7409 29.4098 24.1991 30.3033 23.3954 31.7089L24.6976 32.4534ZM22.4982 32.3824L23.8225 32.7969L24.2705 31.3654L22.9462 30.9509L22.4982 32.3824ZM47.492 29.8202C45.5883 27.9165 44.5643 26.8903 43.628 26.2255L42.7596 27.4486C43.5661 28.0212 44.4807 28.9302 46.4313 30.8809L47.492 29.8202ZM46.25 24C46.25 26.402 46.25 28.4929 46.2118 30.335L47.7115 30.3661C47.75 28.5052 47.75 26.3975 47.75 24H46.25ZM46.2118 30.335C46.0968 35.8916 45.628 38.9864 43.9529 41.292L45.1664 42.1736C47.1497 39.4438 47.5971 35.8936 47.7115 30.3661L46.2118 30.335ZM3.44606 40.4308L3.1654 40.9922L4.50704 41.663L4.7877 41.1016L3.44606 40.4308ZM6.70803 43.9529C5.72399 43.238 4.85431 42.378 4.12849 41.4027L2.92511 42.2981C3.74145 43.3952 4.71959 44.3623 5.82635 45.1664L6.70803 43.9529ZM4.12849 41.4027C4.10116 41.3659 4.07403 41.329 4.0471 41.292L2.83358 42.1736C2.86385 42.2153 2.89437 42.2568 2.92511 42.2981L4.12849 41.4027ZM3.19078 40.9456L2.88136 41.4684L4.17224 42.2324L4.48166 41.7095L3.19078 40.9456Z" fill="#C4C4C4"/>
</svg>
