<svg width="20" height="20" viewBox="0 0 20 20" fill="none" xmlns="http://www.w3.org/2000/svg">
<path fill-rule="evenodd" clip-rule="evenodd" d="M9.16663 0.208332C4.67931 0.208332 1.04163 3.84602 1.04163 8.33333C1.04163 12.8206 4.67931 16.4583 9.16663 16.4583C13.6539 16.4583 17.2916 12.8206 17.2916 8.33333C17.2916 3.84602 13.6539 0.208332 9.16663 0.208332ZM2.29163 8.33333C2.29163 4.53637 5.36967 1.45833 9.16663 1.45833C12.9636 1.45833 16.0416 4.53637 16.0416 8.33333C16.0416 12.1303 12.9636 15.2083 9.16663 15.2083C5.36967 15.2083 2.29163 12.1303 2.29163 8.33333Z" fill="#4E3292"/>
<path d="M16.2753 14.5581C16.0312 14.3141 15.6355 14.3141 15.3914 14.5581C15.1473 14.8022 15.1473 15.1979 15.3914 15.442L18.7246 18.7753C18.9687 19.0194 19.3645 19.0194 19.6085 18.7753C19.8526 18.5312 19.8526 18.1355 19.6085 17.8914L16.2753 14.5581Z" fill="#4E3292"/>
</svg>
