<svg width="23" height="38" viewBox="0 0 23 38" fill="none" xmlns="http://www.w3.org/2000/svg">
<path d="M12.0577 29.9232C12.324 29.6875 12.3838 29.3925 12.5083 29.1427C12.8965 28.3618 13.1811 27.5586 13.026 26.6585C12.9516 26.2294 12.8795 25.7965 12.8625 25.3566C12.8493 25.004 12.7783 24.6534 12.7331 24.302C12.685 24.3016 12.6369 24.3012 12.5891 24.3008C12.5182 26.1656 11.9229 27.9745 12.0577 29.9232ZM8.23506 22.8993C7.95842 23.9583 7.83109 25.0326 7.78171 26.1165C7.77428 26.281 7.71863 26.422 7.58461 26.5425C7.42245 26.6887 7.36192 26.883 7.51824 27.0635C7.86295 27.4612 7.71863 27.9999 7.96468 28.4351C8.12642 28.7212 8.1758 29.071 8.25248 29.4062C8.51053 27.2327 8.29358 25.066 8.23506 22.8993ZM11.1854 3.84899C11.9989 3.93719 12.8393 3.7446 13.5581 4.31195C13.7178 3.76358 14.1376 3.42791 14.5484 3.12608C15.4294 2.47847 17.083 2.32342 17.8508 3.6205C18.0096 3.88881 18.2266 4.12091 18.456 4.34383C18.6074 4.49041 18.8509 4.60977 18.7671 4.91924C18.7406 5.0163 18.892 5.18073 18.9937 5.28513C19.1782 5.47442 19.2376 5.69445 19.1998 5.93748C19.1649 6.16309 19.0812 6.38033 19.1928 6.61161C19.2185 6.66515 19.2284 6.82803 19.0613 6.71394C19.0318 6.88363 19.031 7.03393 19.2591 7.07499C19.7553 7.16442 20.039 7.56776 20.4073 7.84061C20.5069 7.91436 20.5779 8.01391 20.7069 8.08199C20.8811 8.17349 21.0541 8.31729 21.052 8.56549C21.0503 8.73714 21.1159 8.91044 21.106 9.08044C21.0799 9.52896 21.1702 9.94282 21.4187 10.3232C21.437 10.3514 21.4544 10.388 21.4519 10.4191C21.3872 11.2173 21.8555 11.918 21.8871 12.7022C21.9099 13.2749 22.1638 13.8027 22.3442 14.339C22.4931 14.7831 22.3961 15.1207 22.0837 15.4359C22.0758 15.4443 22.0721 15.4576 22.0629 15.4632C21.1607 16.0303 21.3946 16.8075 21.6025 17.6134C21.8908 18.7299 22.2616 19.8253 22.64 20.9095C22.9246 21.7248 22.4363 22.0543 21.963 22.4259C21.7016 22.631 21.644 22.8228 21.6622 23.1153C21.7186 24.0276 21.8921 24.9209 22.075 25.8151C22.3409 27.1126 22.5902 28.4133 22.8511 29.7121C22.9079 29.9949 22.9449 30.2802 22.9893 30.5647C23.0494 30.9479 22.8507 31.1643 22.5495 31.3049C22.2969 31.423 22.019 31.5455 21.7365 31.5286C20.7085 31.4669 19.71 31.703 18.6755 31.7977C18.4689 32.4803 18.2694 33.1924 18.0346 33.8939C17.8757 34.3694 17.7633 34.8537 17.6762 35.3429C17.5762 35.9006 17.862 36.3986 18.3967 36.6332C18.5767 36.7117 18.5987 36.8028 18.4967 36.9523C18.3399 37.1804 18.1204 37.3331 17.8492 37.375C17.5571 37.4205 17.2663 37.4616 17.0099 37.6079C16.849 37.6998 16.6682 37.7425 16.5009 37.7433C16.0169 37.7453 15.7327 37.6667 15.6593 37.0941C15.5871 36.5288 15.7044 36.0199 15.9562 35.5259C16.1592 35.1277 16.2545 34.7018 16.2977 34.2662C16.3711 33.5187 16.4242 32.7697 16.4922 32.0218C16.5043 31.8936 16.5022 31.7953 16.3487 31.7558C16.1276 31.699 15.9649 31.5076 15.6688 31.4911C15.7966 32.5142 15.4174 33.5187 15.6422 34.5499C15.7364 34.9827 15.7488 35.4445 15.561 35.8801C15.4863 36.0533 15.388 36.1492 15.178 36.1585C14.9628 36.1686 14.7517 36.1533 14.538 36.1408C14.3136 36.1279 14.187 36.0368 14.1622 35.8132C14.1352 35.5738 14.019 35.4545 13.7415 35.4622C13.3881 35.4723 12.9799 34.8441 13.106 34.5169C13.1595 34.377 13.2885 34.3605 13.4242 34.3448C13.997 34.2779 14.1858 34.0353 14.0875 33.503C14.0053 33.0606 13.9204 32.6186 13.8407 32.1761C13.8025 31.9658 13.7374 31.8296 13.4595 31.8368C12.9832 31.8489 12.6289 31.5552 12.2705 31.2957C12.1461 31.2054 12.0291 31.1127 11.8363 31.1393C11.8105 32.44 11.309 33.684 11.3741 35C11.3907 35.3421 11.2289 35.6741 11.0647 35.98C10.9278 36.2351 10.9286 36.3999 11.2381 36.5284C11.4555 36.6183 11.7205 36.7589 11.6507 37.041C11.5757 37.3432 11.3003 37.4959 11 37.5749C10.7162 37.6494 10.4362 37.5676 10.1561 37.5293C9.96987 37.504 9.81016 37.5588 9.68952 37.6857C9.34268 38.0508 8.3454 38.1225 8.01566 37.7695C7.90904 37.6555 7.89789 37.4512 7.86008 37.2843C7.82483 37.128 7.83481 36.9616 7.73976 36.7996C7.50454 36.8403 7.26273 36.9052 7.03993 36.7452C6.84995 36.609 6.71307 36.4486 6.63183 36.2246C6.57002 36.0537 6.42973 35.9433 6.21734 35.8917C6.01206 35.8414 5.78013 35.766 5.80668 35.4481C5.83164 35.1491 5.75656 34.8312 6.18049 34.7397C6.22318 34.7304 6.25929 34.6921 6.32566 34.6502C6.06718 34.2292 6.05103 33.7593 6.02863 33.2915C6.01493 33.0018 5.86976 32.7697 5.69762 32.5513C5.49224 32.2901 5.36735 32.0117 5.38975 31.6732C5.45199 30.744 5.11683 29.9002 4.71244 29.0947C4.02546 27.7263 3.95908 26.2854 4.0399 24.8106C4.08397 24.0143 4.08769 23.2165 4.11625 22.419C4.12294 22.2336 4.07484 22.1047 3.91512 21.9762C3.60768 21.7284 3.41727 21.4217 3.42099 20.9946C3.42641 20.399 3.36461 19.8031 3.26924 19.2059C3.044 20.677 2.84562 22.1531 2.58555 23.6182C2.3242 25.0877 2.13464 26.5678 1.8443 28.0338C1.60908 29.2201 1.49747 30.4289 1.31534 31.6257C1.12992 32.8454 0.925394 34.0627 0.729675 35.2813C0.676577 35.6113 0.625067 35.9417 0.572818 36.2717C0.507295 36.6839 0.462483 36.7057 0 36.5119C0.930806 30.6102 1.86331 24.6973 2.79592 18.7856C2.11967 18.6675 1.93595 18.1251 1.76838 17.6178C1.6916 17.3845 1.63149 17.1549 1.4568 16.9876C1.31991 16.8566 1.29633 16.7169 1.29251 16.5524C1.26596 15.3166 1.19799 14.0803 1.30621 12.8445C1.35973 12.2336 1.5083 11.6392 1.65846 11.0485C1.89485 10.1185 1.93807 9.1578 2.16788 8.22785C2.40597 7.26562 2.61423 6.29245 3.04273 5.38901C3.23898 4.97525 3.69445 4.83939 4.09969 4.69673C4.8626 4.42842 5.62795 4.16568 6.41688 3.96989C6.97483 3.83166 7.34153 3.30216 7.32453 2.75616C7.31753 2.53654 7.33367 2.31569 7.31711 2.09731C7.23704 1.04357 8.49396 0.0515175 9.41362 0.00272751C10.1898 -0.0383301 10.7075 0.389561 11.1691 0.918236C11.8764 1.72821 11.63 2.58131 11.2907 3.43833C11.2568 3.52415 11.2152 3.60802 11.1874 3.6954C11.1741 3.73738 11.1854 3.78648 11.1854 3.84899Z" fill="#4E3292"/>
</svg>
