<svg width="17" height="16" viewBox="0 0 17 16" fill="none" xmlns="http://www.w3.org/2000/svg">
<path d="M6.67629 11.1819L7.36172 10.8774L6.67629 11.1819ZM5.19484 9.99305L4.94136 10.6989L5.19484 9.99305ZM5.81773 10.2443L6.1812 9.58823L5.81773 10.2443ZM15.4593 1.45348L14.9198 1.97447L15.4593 1.45348ZM7.70217 14.3407L7.11177 14.8032L7.70217 14.3407ZM10.6105 14.5974L11.1107 15.1562L10.6105 14.5974ZM1.94352 8.50733L1.35648 8.97411L1.94352 8.50733ZM1.87948 6.10296L1.26842 5.6681L1.87948 6.10296ZM5.44832 9.28718L5.31995 9.24108L4.81299 10.6528L4.94136 10.6989L5.44832 9.28718ZM12.9914 8.04909L11.1881 11.9509L12.5497 12.5802L14.353 8.6784L12.9914 8.04909ZM5.21206 5.19051L8.78159 3.68963L8.2002 2.30689L4.63066 3.80776L5.21206 5.19051ZM7.59724 11.6339C7.51694 11.3282 7.45767 11.0934 7.36172 10.8774L5.99086 11.4863C6.02604 11.5655 6.05342 11.6607 6.14644 12.0149L7.59724 11.6339ZM4.94136 10.6989C5.28599 10.8227 5.37845 10.8583 5.45426 10.9003L6.1812 9.58823C5.97444 9.47368 5.74583 9.39402 5.44832 9.28718L4.94136 10.6989ZM7.36172 10.8774C7.1189 10.3307 6.70444 9.87813 6.1812 9.58823L5.45426 10.9003C5.6921 11.0321 5.88049 11.2378 5.99086 11.4863L7.36172 10.8774ZM14.353 8.6784C15.2554 6.72595 15.9684 5.18752 16.3248 4.01484C16.6694 2.88078 16.7887 1.75039 15.9988 0.932487L14.9198 1.97447C15.0814 2.14176 15.2199 2.49147 14.8896 3.57873C14.5709 4.62738 13.9147 6.05148 12.9914 8.04909L14.353 8.6784ZM8.78159 3.68963C10.8102 2.83667 12.2563 2.23055 13.3155 1.94871C14.4136 1.65648 14.7583 1.80718 14.9198 1.97447L15.9988 0.932487C15.209 0.114588 14.0751 0.194353 12.9297 0.499156C11.7453 0.814337 10.183 1.47321 8.2002 2.30689L8.78159 3.68963ZM6.14644 12.0149C6.33619 12.7374 6.48533 13.3062 6.61984 13.7334C6.74786 14.14 6.89211 14.5228 7.11177 14.8032L8.29257 13.8781C8.25725 13.8331 8.17811 13.6879 8.05061 13.2829C7.92959 12.8986 7.79105 12.3719 7.59724 11.6339L6.14644 12.0149ZM11.1881 11.9509C10.8679 12.6435 10.6393 13.1378 10.4528 13.495C10.2563 13.8714 10.153 14.0004 10.1103 14.0386L11.1107 15.1562C11.3761 14.9187 11.5852 14.5671 11.7825 14.1892C11.9898 13.7921 12.2363 13.2583 12.5497 12.5802L11.1881 11.9509ZM7.11177 14.8032C8.09215 16.0546 9.92627 16.2165 11.1107 15.1562L10.1103 14.0386C9.57189 14.5206 8.7382 14.447 8.29257 13.8781L7.11177 14.8032ZM5.31995 9.24108C4.38636 8.90583 3.72306 8.66718 3.24631 8.45849C2.7476 8.24019 2.58291 8.10638 2.53057 8.04056L1.35648 8.97411C1.65821 9.35358 2.13203 9.60814 2.6448 9.83261C3.17953 10.0667 3.90066 10.3252 4.81299 10.6528L5.31995 9.24108ZM4.63066 3.80776C3.73706 4.18349 3.03072 4.48003 2.50921 4.74224C2.00912 4.99368 1.54952 5.27311 1.26842 5.6681L2.49054 6.53783C2.5393 6.46931 2.69664 6.32693 3.18302 6.08238C3.64798 5.8486 4.29764 5.57499 5.21206 5.19051L4.63066 3.80776ZM2.53057 8.04056C2.18387 7.60453 2.16754 6.9917 2.49054 6.53783L1.26842 5.6681C0.557826 6.66661 0.593739 8.01484 1.35648 8.97411L2.53057 8.04056Z" fill="#4E3292"/>
</svg>
