<svg width="12" height="12" viewBox="0 0 12 12" fill="none" xmlns="http://www.w3.org/2000/svg">
<path d="M2.64124 8.29798C2.34835 8.59087 2.34835 9.06575 2.64124 9.35864C2.93414 9.65153 3.40901 9.65153 3.7019 9.35864L2.64124 8.29798ZM3.73391 1.85578C3.3197 1.85763 2.98542 2.19491 2.98727 2.60912C2.98911 3.02333 3.32639 3.35761 3.7406 3.35576L3.73391 1.85578ZM5.72297 2.59691L5.71962 1.84692L5.72297 2.59691ZM9.40297 6.27691L8.65298 6.27357L8.65298 6.27357L9.40297 6.27691ZM8.64412 8.25928C8.64227 8.67349 8.97656 9.01077 9.39077 9.01262C9.80498 9.01447 10.1423 8.68018 10.1441 8.26597L8.64412 8.25928ZM8.63993 3.00546L9.09895 2.41233L9.09895 2.41233L8.63993 3.00546ZM8.99442 3.35995L9.58755 2.90094L9.58755 2.90093L8.99442 3.35995ZM9.34751 3.71304C9.6404 3.42014 9.6404 2.94527 9.34751 2.65238C9.05461 2.35948 8.57974 2.35948 8.28685 2.65238L9.34751 3.71304ZM3.7019 9.35864L8.79307 4.26747L7.73241 3.20681L2.64124 8.29798L3.7019 9.35864ZM3.7406 3.35576L5.72632 3.3469L5.71962 1.84692L3.73391 1.85578L3.7406 3.35576ZM8.65298 6.27357L8.64412 8.25928L10.1441 8.26597L10.153 6.28026L8.65298 6.27357ZM5.72632 3.3469C6.53574 3.34329 7.07942 3.342 7.49077 3.38692C7.88702 3.4302 8.06438 3.50841 8.18091 3.59859L9.09895 2.41233C8.67387 2.08336 8.18454 1.95377 7.65361 1.89579C7.13776 1.83946 6.49377 1.84346 5.71962 1.84692L5.72632 3.3469ZM10.153 6.28026C10.1564 5.50611 10.1604 4.86212 10.1041 4.34628C10.0461 3.81535 9.91652 3.32602 9.58755 2.90094L8.4013 3.81897C8.49147 3.9355 8.56969 4.11286 8.61296 4.50912C8.65788 4.92046 8.65659 5.46415 8.65298 6.27357L10.153 6.28026ZM8.18091 3.59859C8.26341 3.66243 8.33745 3.73647 8.4013 3.81898L9.58755 2.90093C9.44601 2.71804 9.28184 2.55387 9.09895 2.41233L8.18091 3.59859ZM8.79307 4.26747L9.34751 3.71304L8.28685 2.65238L7.73241 3.20681L8.79307 4.26747Z" fill="#FF394F"/>
</svg>
