<svg width="12" height="12" viewBox="0 0 12 12" fill="none" xmlns="http://www.w3.org/2000/svg">
<path d="M9.35876 3.70202C9.65165 3.40913 9.65165 2.93425 9.35876 2.64136C9.06586 2.34847 8.59099 2.34847 8.2981 2.64136L9.35876 3.70202ZM8.26609 10.1442C8.6803 10.1424 9.01458 9.80509 9.01273 9.39088C9.01089 8.97667 8.67361 8.64239 8.2594 8.64424L8.26609 10.1442ZM6.27703 9.40309L6.28038 10.1531L6.27703 9.40309ZM2.59703 5.72309L3.34702 5.72643L3.34702 5.72643L2.59703 5.72309ZM3.35588 3.74072C3.35773 3.32651 3.02344 2.98923 2.60923 2.98738C2.19502 2.98553 1.85774 3.31982 1.85589 3.73403L3.35588 3.74072ZM3.36007 8.99454L2.90105 9.58767L2.90105 9.58767L3.36007 8.99454ZM3.00558 8.64005L2.41245 9.09906L2.41245 9.09907L3.00558 8.64005ZM2.65249 8.28696C2.3596 8.57986 2.3596 9.05473 2.65249 9.34762C2.94539 9.64052 3.42026 9.64052 3.71315 9.34762L2.65249 8.28696ZM8.2981 2.64136L3.20693 7.73253L4.26759 8.79319L9.35876 3.70202L8.2981 2.64136ZM8.2594 8.64424L6.27368 8.6531L6.28038 10.1531L8.26609 10.1442L8.2594 8.64424ZM3.34702 5.72643L3.35588 3.74072L1.85589 3.73403L1.84704 5.71974L3.34702 5.72643ZM6.27368 8.6531C5.46426 8.65671 4.92058 8.658 4.50923 8.61308C4.11298 8.5698 3.93562 8.49159 3.81909 8.40141L2.90105 9.58767C3.32613 9.91664 3.81546 10.0462 4.34639 10.1042C4.86224 10.1605 5.50623 10.1565 6.28038 10.1531L6.27368 8.6531ZM1.84704 5.71974C1.84358 6.49389 1.83957 7.13788 1.89591 7.65372C1.95389 8.18465 2.08348 8.67398 2.41245 9.09906L3.5987 8.18103C3.50853 8.0645 3.43031 7.88714 3.38704 7.49088C3.34212 7.07954 3.34341 6.53585 3.34702 5.72643L1.84704 5.71974ZM3.81909 8.40141C3.73659 8.33757 3.66255 8.26353 3.5987 8.18102L2.41245 9.09907C2.55399 9.28196 2.71816 9.44613 2.90105 9.58767L3.81909 8.40141ZM3.20693 7.73253L2.65249 8.28696L3.71315 9.34762L4.26759 8.79319L3.20693 7.73253Z" fill="#00FFA3"/>
</svg>
