<svg width="24" height="24" viewBox="0 0 24 24" fill="none" xmlns="http://www.w3.org/2000/svg">
<path d="M18.4575 6.11987C18.2903 5.9038 18.0963 5.70986 17.8803 5.54264C17.3875 5.16128 16.8148 5.00571 16.168 4.93507C15.546 4.86714 14.7681 4.87063 13.8164 4.87489L11.2896 4.88617C10.8754 4.88801 10.5411 5.22529 10.5429 5.6395C10.5448 6.05371 10.882 6.388 11.2963 6.38615L13.7784 6.37508C14.7858 6.37058 15.4779 6.36863 16.0051 6.42621C16.1765 6.44492 16.3197 6.46903 16.4413 6.49818L5.81283 17.1266C5.51994 17.4195 5.51994 17.8944 5.81283 18.1873C6.10573 18.4802 6.5806 18.4802 6.87349 18.1873L17.502 7.55884C17.5311 7.68044 17.5552 7.82364 17.5739 7.99499C17.6315 8.52223 17.6296 9.21437 17.6251 10.2217L17.614 12.7039C17.6121 13.1181 17.9464 13.4554 18.3606 13.4572C18.7748 13.4591 19.1121 13.1248 19.114 12.7106L19.1252 10.1837C19.1295 9.23199 19.133 8.45417 19.0651 7.83215C18.9944 7.18532 18.8389 6.61265 18.4575 6.11987Z" fill="#C4C4C4"/>
</svg>
