<svg width="20" height="20" viewBox="0 0 20 20" fill="none" xmlns="http://www.w3.org/2000/svg">
<path d="M8.5046 2.59377C8.84136 2.2557 9.21514 1.97546 9.69278 1.89936C9.79454 1.88315 9.89719 1.875 10 1.875C10.1028 1.875 10.2055 1.88315 10.3072 1.89936C10.7849 1.97546 11.1587 2.25571 11.4954 2.59377C11.8236 2.9232 12.1902 3.38563 12.6345 3.94603L13.8231 5.44503C14.0375 5.7155 13.9921 6.10861 13.7216 6.32307C13.4512 6.53753 13.0581 6.49212 12.8436 6.22164L11.6787 4.7525C11.2136 4.16581 10.8939 3.76414 10.625 3.49127V14.1667C10.625 14.5118 10.3452 14.7917 10 14.7917C9.65483 14.7917 9.37501 14.5118 9.37501 14.1667V3.49127C9.10613 3.76414 8.78646 4.16581 8.32128 4.7525L7.15641 6.22164C6.94195 6.49212 6.54884 6.53753 6.27837 6.32307C6.00789 6.10861 5.96248 5.7155 6.17694 5.44502L7.36547 3.94604C7.80978 3.38565 8.17644 2.92319 8.5046 2.59377Z" fill="#2D264B"/>
<path d="M17.1667 8.7913C16.9594 8.51531 16.5676 8.45963 16.2916 8.66694C16.0156 8.87424 15.9599 9.26603 16.1672 9.54203C16.6118 10.1339 16.875 10.8686 16.875 11.6667V12.5C16.875 13.2981 16.8731 13.6243 16.8314 13.8874C16.5914 15.4028 15.4028 16.5914 13.8874 16.8314C13.6243 16.8731 13.2981 16.875 12.5 16.875H7.50001C6.70195 16.875 6.37569 16.8731 6.11263 16.8314C4.59718 16.5914 3.40863 15.4028 3.16861 13.8874C3.12695 13.6243 3.12501 13.2981 3.12501 12.5V11.6667C3.12501 10.8686 3.3882 10.1339 3.83276 9.54203C4.04007 9.26603 3.98439 8.87424 3.7084 8.66694C3.4324 8.45963 3.04061 8.51531 2.83331 8.7913C2.23173 9.5922 1.87501 10.5887 1.87501 11.6667L1.875 12.5673C1.87495 13.2774 1.87491 13.7098 1.934 14.0829C2.25874 16.1332 3.86677 17.7413 5.91709 18.066C6.29016 18.1251 6.72265 18.1251 7.43267 18.125H12.5673C13.2774 18.1251 13.7099 18.1251 14.0829 18.066C16.1332 17.7413 17.7413 16.1332 18.066 14.0829C18.1251 13.7098 18.1251 13.2774 18.125 12.5673L18.125 11.6667C18.125 10.5887 17.7683 9.5922 17.1667 8.7913Z" fill="#2D264B"/>
</svg>
