<svg width="26" height="26" viewBox="0 0 26 26" fill="none" xmlns="http://www.w3.org/2000/svg">
<path d="M25.5 13C25.5 19.9036 19.9036 25.5 13 25.5C6.09644 25.5 0.5 19.9036 0.5 13C0.5 6.09644 6.09644 0.5 13 0.5C19.9036 0.5 25.5 6.09644 25.5 13Z" fill="white" stroke="#EC1C80"/>
<path d="M12.5371 9.6329L12.9802 10.7215L13.4572 9.64731C14.0394 8.33617 15.2893 7.43311 16.7638 7.43311C18.7236 7.43311 20.3002 9.01041 20.3002 10.973V11.1368C20.3002 14.0006 18.487 16.2893 16.5778 17.8994C15.631 18.698 14.6817 19.3112 13.9682 19.7249C13.6119 19.9314 13.3159 20.0874 13.1102 20.1912C13.07 20.2114 13.0332 20.2297 13.0002 20.246C12.9672 20.2297 12.9304 20.2114 12.8902 20.1912C12.6845 20.0874 12.3885 19.9314 12.0322 19.7249C11.3186 19.3112 10.3694 18.698 9.42255 17.8994C7.51339 16.2893 5.7002 14.0006 5.7002 11.1368V10.973C5.7002 9.01041 7.27675 7.43311 9.23656 7.43311C10.7213 7.43311 12.0127 8.34463 12.5371 9.6329Z" stroke="#EC1C80"/>
</svg>
