<svg width="14" height="14" viewBox="0 0 14 14" fill="none" xmlns="http://www.w3.org/2000/svg">
<path d="M9.33344 5.24988L7.31303 7.67437C6.89767 8.1728 6.68999 8.42201 6.41677 8.42201C6.14355 8.42201 5.93587 8.1728 5.52051 7.67437L4.66677 6.64988M3.26375 2.92762C4.16661 3.15393 5.08616 2.62302 5.3416 1.72797C5.81778 0.0594275 8.18243 0.0594275 8.65861 1.72797C8.91404 2.62302 9.8336 3.15393 10.7365 2.92762C12.4195 2.50573 13.6019 4.55357 12.395 5.80023C11.7475 6.46897 11.7475 7.53078 12.395 8.19952C13.6019 9.44618 12.4195 11.494 10.7365 11.0721C9.8336 10.8458 8.91404 11.3767 8.65861 12.2718C8.18243 13.9403 5.81778 13.9403 5.3416 12.2718C5.08616 11.3767 4.16661 10.8458 3.26375 11.0721C1.58066 11.494 0.398336 9.44618 1.60524 8.19953C2.25267 7.53078 2.25267 6.46897 1.60524 5.80023C0.398336 4.55358 1.58066 2.50573 3.26375 2.92762Z" stroke="#EC1C80" stroke-linecap="round"/>
</svg>
