<svg width="18" height="19" viewBox="0 0 18 19" fill="none" xmlns="http://www.w3.org/2000/svg">
<path d="M3.84066 1.08718C4.10393 0.876564 4.14661 0.492403 3.936 0.229133C3.72538 -0.0341373 3.34122 -0.0768218 3.07795 0.133794L1.04306 1.7617C0.779794 1.97232 0.737109 2.35648 0.947725 2.61975C1.15834 2.88302 1.5425 2.9257 1.80577 2.71509L3.84066 1.08718Z" fill="#4E3292"/>
<path d="M14.4221 0.133794C14.1588 -0.0768218 13.7746 -0.0341373 13.564 0.229133C13.3534 0.492403 13.3961 0.876564 13.6593 1.08718L15.6942 2.71509C15.9575 2.9257 16.3417 2.88302 16.5523 2.61975C16.7629 2.35648 16.7202 1.97232 16.4569 1.7617L14.4221 0.133794Z" fill="#4E3292"/>
<path d="M9.36047 6.10467C9.36047 5.76752 9.08715 5.49421 8.75 5.49421C8.41285 5.49421 8.13953 5.76752 8.13953 6.10467V8.70065L7.55376 8.11487C7.31536 7.87647 6.92883 7.87647 6.69043 8.11487C6.45203 8.35327 6.45203 8.7398 6.69043 8.9782L7.91136 10.1991C8.44612 10.7339 9.36047 10.3551 9.36047 9.59889L9.36047 6.10467Z" fill="#4E3292"/>
<path fill-rule="evenodd" clip-rule="evenodd" d="M8.75 0.610488C3.91751 0.610488 0 4.528 0 9.36049C0 14.193 3.91751 18.1105 8.75 18.1105C13.5825 18.1105 17.5 14.193 17.5 9.36049C17.5 4.528 13.5825 0.610488 8.75 0.610488ZM1.22093 9.36049C1.22093 5.2023 4.59181 1.83142 8.75 1.83142C12.9082 1.83142 16.2791 5.2023 16.2791 9.36049C16.2791 13.5187 12.9082 16.8896 8.75 16.8896C4.59181 16.8896 1.22093 13.5187 1.22093 9.36049Z" fill="#4E3292"/>
</svg>
