<svg width="20" height="20" viewBox="0 0 20 20" fill="none" xmlns="http://www.w3.org/2000/svg">
<path fill-rule="evenodd" clip-rule="evenodd" d="M10 3.33325C8.27412 3.33325 6.87501 4.73236 6.87501 6.45825C6.87501 8.18414 8.27412 9.58325 10 9.58325C11.7259 9.58325 13.125 8.18414 13.125 6.45825C13.125 4.73236 11.7259 3.33325 10 3.33325ZM8.12501 6.45825C8.12501 5.42272 8.96448 4.58325 10 4.58325C11.0355 4.58325 11.875 5.42272 11.875 6.45825C11.875 7.49379 11.0355 8.33325 10 8.33325C8.96448 8.33325 8.12501 7.49379 8.12501 6.45825Z" fill="#2D264B"/>
<path fill-rule="evenodd" clip-rule="evenodd" d="M7.50001 10.8333C5.77412 10.8333 4.37501 12.2324 4.37501 13.9583C4.37501 15.6841 5.77412 17.0833 7.50001 17.0833H12.5C14.2259 17.0833 15.625 15.6841 15.625 13.9583C15.625 12.2324 14.2259 10.8333 12.5 10.8333H7.50001ZM5.62501 13.9583C5.62501 12.9227 6.46448 12.0833 7.50001 12.0833H12.5C13.5355 12.0833 14.375 12.9227 14.375 13.9583C14.375 14.9938 13.5355 15.8333 12.5 15.8333H7.50001C6.46448 15.8333 5.62501 14.9938 5.62501 13.9583Z" fill="#2D264B"/>
<path d="M6.46013 8.65713C6.32869 8.44598 6.08206 8.33325 5.83334 8.33325C4.79781 8.33325 3.95834 7.49379 3.95834 6.45825C3.95834 5.42272 4.79781 4.58325 5.83334 4.58325C6.08206 4.58325 6.32869 4.47052 6.46013 4.25937C6.46594 4.25004 6.47179 4.24072 6.47767 4.23143C6.69651 3.88601 6.58563 3.39692 6.17918 3.35217C6.06562 3.33967 5.95023 3.33325 5.83334 3.33325C4.10745 3.33325 2.70834 4.73236 2.70834 6.45825C2.70834 8.18414 4.10745 9.58325 5.83334 9.58325C5.95023 9.58325 6.06562 9.57683 6.17918 9.56433C6.58563 9.51958 6.69651 9.0305 6.47767 8.68507C6.47179 8.67578 6.46594 8.66647 6.46013 8.65713Z" fill="#2D264B"/>
<path d="M3.92358 15.264C3.82898 15.1061 3.66201 14.9999 3.478 14.9999H3.33334C2.29781 14.9999 1.45834 14.1605 1.45834 13.1249C1.45834 12.0894 2.29781 11.2499 3.33334 11.2499H3.478C3.66201 11.2499 3.82898 11.1437 3.92358 10.9859C4.1545 10.6006 3.90391 9.99992 3.45475 9.99992H3.33334C1.60745 9.99992 0.208344 11.399 0.208344 13.1249C0.208344 14.8508 1.60745 16.2499 3.33334 16.2499H3.45475C3.90391 16.2499 4.1545 15.6492 3.92358 15.264Z" fill="#2D264B"/>
<path d="M13.5223 8.68507C13.3035 9.0305 13.4144 9.51958 13.8208 9.56433C13.9344 9.57683 14.0498 9.58325 14.1667 9.58325C15.8926 9.58325 17.2917 8.18414 17.2917 6.45825C17.2917 4.73236 15.8926 3.33325 14.1667 3.33325C14.0498 3.33325 13.9344 3.33967 13.8208 3.35217C13.4144 3.39692 13.3035 3.88601 13.5223 4.23143C13.5282 4.24072 13.5341 4.25003 13.5399 4.25937C13.6713 4.47052 13.918 4.58325 14.1667 4.58325C15.2022 4.58325 16.0417 5.42272 16.0417 6.45825C16.0417 7.49379 15.2022 8.33325 14.1667 8.33325C13.918 8.33325 13.6713 8.44598 13.5399 8.65713C13.5341 8.66647 13.5282 8.67578 13.5223 8.68507Z" fill="#2D264B"/>
<path d="M16.0764 15.264C15.8455 15.6492 16.0961 16.2499 16.5453 16.2499H16.6667C18.3926 16.2499 19.7917 14.8508 19.7917 13.1249C19.7917 11.399 18.3926 9.99992 16.6667 9.99992H16.5453C16.0961 9.99992 15.8455 10.6006 16.0764 10.9859C16.171 11.1437 16.338 11.2499 16.522 11.2499H16.6667C17.7022 11.2499 18.5417 12.0894 18.5417 13.1249C18.5417 14.1605 17.7022 14.9999 16.6667 14.9999H16.522C16.338 14.9999 16.171 15.1061 16.0764 15.264Z" fill="#2D264B"/>
</svg>
