<svg width="20" height="20" viewBox="0 0 20 20" fill="none" xmlns="http://www.w3.org/2000/svg">
<path fill-rule="evenodd" clip-rule="evenodd" d="M10.1757 1.04497C10.0586 1.04067 9.94141 1.04067 9.82434 1.04497C9.05153 1.07332 8.35563 1.33611 7.59263 1.77356C6.84907 2.19986 5.99304 2.82181 4.90689 3.61096L4.84784 3.65385C3.76168 4.44299 2.90563 5.06494 2.27042 5.64037C1.6186 6.23085 1.15363 6.81148 0.887851 7.53771C0.847591 7.64772 0.811378 7.75917 0.779286 7.87184C0.567436 8.61559 0.602321 9.35863 0.78258 10.2195C0.958244 11.0584 1.28523 12.0647 1.70011 13.3415L3.14557 17.7902C3.45713 18.7491 4.35067 19.3983 5.35888 19.3983C6.64415 19.3983 7.68608 18.3564 7.68608 17.0711V14.7803C7.68608 14.2434 8.12134 13.8081 8.65827 13.8081H11.3417C11.8787 13.8081 12.3139 14.2434 12.3139 14.7803V17.0711C12.3139 18.3564 13.3559 19.3983 14.6411 19.3983C15.6493 19.3983 16.5429 18.7491 16.8544 17.7902L18.2999 13.3415C18.7148 12.0647 19.0418 11.0584 19.2174 10.2195C19.3977 9.35863 19.4326 8.61559 19.2207 7.87184C19.1886 7.75918 19.1524 7.64773 19.1122 7.53771C18.8464 6.81148 18.3814 6.23085 17.7296 5.64037C17.0944 5.06493 16.2383 4.44299 15.1522 3.65385L15.0931 3.61094C14.007 2.82181 13.1509 2.19986 12.4074 1.77356C11.6444 1.33611 10.9485 1.07332 10.1757 1.04497ZM9.87017 2.29413C9.9567 2.29095 10.0433 2.29095 10.1298 2.29413C10.626 2.31233 11.1202 2.47648 11.7857 2.85798C12.4638 3.24677 13.2658 3.82838 14.3879 4.64368C15.5101 5.45898 16.311 6.04196 16.8904 6.56677C17.4588 7.08173 17.7677 7.50102 17.9383 7.9673C17.9681 8.04861 17.9948 8.13099 18.0185 8.21427C18.1546 8.69181 18.1512 9.21254 17.994 9.96328C17.8338 10.7284 17.5284 11.6708 17.0998 12.99L15.6656 17.404C15.5214 17.8478 15.1078 18.1483 14.6411 18.1483C14.0462 18.1483 13.5639 17.666 13.5639 17.0711V14.7803C13.5639 13.553 12.569 12.5581 11.3417 12.5581H8.65827C7.43099 12.5581 6.43608 13.553 6.43608 14.7803V17.0711C6.43608 17.666 5.9538 18.1483 5.35888 18.1483C4.8922 18.1483 4.4786 17.8478 4.33439 17.404L2.90021 12.99C2.47158 11.6708 2.16625 10.7284 2.00604 9.96328C1.84884 9.21254 1.84545 8.69181 1.98147 8.21427C2.00519 8.131 2.03195 8.04862 2.06171 7.9673C2.23236 7.50102 2.54118 7.08173 3.10964 6.56677C3.68896 6.04196 4.48993 5.45898 5.61209 4.64368C6.73425 3.82838 7.53621 3.24677 8.21435 2.85798C8.87977 2.47648 9.37397 2.31233 9.87017 2.29413Z" fill="#EC1C80"/>
</svg>
