<svg width="20" height="20" viewBox="0 0 20 20" fill="none" xmlns="http://www.w3.org/2000/svg">
<path d="M10.8333 4.375C10.4882 4.375 10.2083 4.65482 10.2083 5C10.2083 5.34518 10.4882 5.625 10.8333 5.625L15.8333 5.625C16.1785 5.625 16.4583 5.34518 16.4583 5C16.4583 4.65482 16.1785 4.375 15.8333 4.375H10.8333Z" fill="#2D264B"/>
<path d="M4.16667 9.375C3.82149 9.375 3.54167 9.65482 3.54167 10C3.54167 10.3452 3.82149 10.625 4.16667 10.625H15.8333C16.1785 10.625 16.4583 10.3452 16.4583 10C16.4583 9.65482 16.1785 9.375 15.8333 9.375H4.16667Z" fill="#2D264B"/>
<path d="M7.50001 14.375C7.15483 14.375 6.87501 14.6548 6.87501 15C6.87501 15.3452 7.15483 15.625 7.50001 15.625L15.8333 15.625C16.1785 15.625 16.4583 15.3452 16.4583 15C16.4583 14.6548 16.1785 14.375 15.8333 14.375L7.50001 14.375Z" fill="#2D264B"/>
</svg>
