<svg width="20" height="20" viewBox="0 0 20 20" fill="none" xmlns="http://www.w3.org/2000/svg">
<path d="M6.66667 7.29167L9.16667 7.29167C9.51185 7.29167 9.79167 7.01185 9.79167 6.66667C9.79167 6.32149 9.51184 6.04167 9.16667 6.04167L6.66667 6.04167C6.32149 6.04167 6.04167 6.32149 6.04167 6.66667C6.04167 7.01185 6.32149 7.29167 6.66667 7.29167Z" fill="#2D264B"/>
<path d="M13.3333 10.625C13.6785 10.625 13.9583 10.3452 13.9583 10C13.9583 9.65482 13.6785 9.375 13.3333 9.375L6.66667 9.375C6.32149 9.375 6.04167 9.65482 6.04167 10C6.04167 10.3452 6.32149 10.625 6.66667 10.625L13.3333 10.625Z" fill="#2D264B"/>
<path fill-rule="evenodd" clip-rule="evenodd" d="M13.7196 1.97811C12.7678 1.87499 11.5682 1.87499 10.0377 1.875H9.96229C8.43185 1.87499 7.23218 1.87499 6.2804 1.97811C5.30912 2.08334 4.52213 2.30194 3.8502 2.79013C3.44341 3.08568 3.08568 3.44341 2.79013 3.8502C2.30194 4.52213 2.08334 5.30912 1.97811 6.2804C1.87499 7.23218 1.87499 8.43185 1.875 9.96229V10.0377C1.87499 11.5682 1.87499 12.7678 1.97811 13.7196C2.08334 14.6909 2.30194 15.4779 2.79013 16.1498C3.08567 16.5566 3.44341 16.9143 3.8502 17.2099C4.52213 17.6981 5.30912 17.9167 6.2804 18.0219C7.23216 18.125 8.4318 18.125 9.96221 18.125H10.0092C10.9759 18.125 11.8071 18.125 12.5214 18.1005C14.0826 18.047 15.2301 17.8781 16.1498 17.2099C16.5566 16.9143 16.9143 16.5566 17.2099 16.1498C17.8781 15.2301 18.047 14.0826 18.1005 12.5214C18.125 11.8071 18.125 10.9759 18.125 10.0092V9.96227C18.125 8.43187 18.125 7.23216 18.0219 6.2804C17.9167 5.30912 17.6981 4.52213 17.2099 3.8502C16.9143 3.44341 16.5566 3.08567 16.1498 2.79013C15.4779 2.30194 14.6909 2.08334 13.7196 1.97811ZM4.58493 3.8014C5.00826 3.49383 5.55011 3.31454 6.41504 3.22083C7.29166 3.12586 8.42369 3.125 10 3.125C11.5763 3.125 12.7083 3.12586 13.585 3.22083C14.4499 3.31454 14.9917 3.49383 15.4151 3.8014C15.7157 4.01985 15.9802 4.28426 16.1986 4.58493C16.5062 5.00826 16.6855 5.55011 16.7792 6.41504C16.8741 7.29166 16.875 8.42369 16.875 10C16.875 10.707 16.875 11.3265 16.866 11.8765C16.4704 11.8802 16.1793 11.8925 15.9171 11.934C13.8668 12.2587 12.2587 13.8668 11.934 15.9171C11.8925 16.1793 11.8802 16.4704 11.8765 16.866C11.3265 16.875 10.707 16.875 10 16.875C8.42369 16.875 7.29166 16.8741 6.41504 16.7792C5.55011 16.6855 5.00826 16.5062 4.58493 16.1986C4.28426 15.9802 4.01985 15.7157 3.8014 15.4151C3.49383 14.9917 3.31454 14.4499 3.22083 13.585C3.12586 12.7083 3.125 11.5763 3.125 10C3.125 8.42369 3.12586 7.29166 3.22083 6.41504C3.31454 5.55011 3.49383 5.00826 3.8014 4.58493C4.01985 4.28426 4.28426 4.01985 4.58493 3.8014ZM16.1126 13.1686C16.2835 13.1415 16.4813 13.1312 16.8188 13.1273C16.7407 14.2609 16.5615 14.9155 16.1986 15.4151C15.9802 15.7157 15.7157 15.9802 15.4151 16.1986C14.9155 16.5615 14.2609 16.7407 13.1273 16.8188C13.1312 16.4813 13.1415 16.2835 13.1686 16.1126C13.4086 14.5972 14.5972 13.4086 16.1126 13.1686Z" fill="#2D264B"/>
</svg>
