<svg width="20" height="20" viewBox="0 0 20 20" fill="none" xmlns="http://www.w3.org/2000/svg">
<g clip-path="url(#clip0_281_1612)">
<path fill-rule="evenodd" clip-rule="evenodd" d="M12.0015 4.69348C10.8766 4.15307 9.8681 4.22499 9.03192 4.59883C8.21836 4.96256 7.59699 5.59755 7.17354 6.14525C6.8396 6.57716 6.22258 6.80054 5.68954 6.6825C5.01362 6.53281 4.12976 6.44277 3.27191 6.68414C2.39021 6.93222 1.56942 7.52254 1.05116 8.65783C0.439308 9.99812 0.577055 11.3293 1.14641 12.5202C1.7092 13.6974 2.69405 14.7446 3.80643 15.5858C4.92178 16.4292 6.19501 17.088 7.37302 17.4746C8.52513 17.8527 9.68393 18.0024 10.5177 17.7005C11.3514 17.3987 12.1458 16.5419 12.7889 15.5139C13.4464 14.4628 14.0028 13.1416 14.3197 11.7796C14.6359 10.4213 14.7221 8.98635 14.4009 7.72173C14.0759 6.44236 13.3295 5.33147 12.0015 4.69348ZM7.95459 6.74912C8.32905 6.26479 8.83056 5.77031 9.43488 5.50013C10.0166 5.24006 10.721 5.17362 11.574 5.58339C12.5935 6.07319 13.1777 6.91661 13.444 7.96477C13.7139 9.02768 13.652 10.2935 13.3582 11.5559C13.0652 12.8146 12.55 14.0341 11.9519 14.9903C11.3393 15.9696 10.6939 16.5867 10.1816 16.7722C9.66923 16.9577 8.77841 16.8967 7.68086 16.5365C6.60923 16.1848 5.43277 15.5778 4.4019 14.7983C3.36806 14.0165 2.51014 13.0838 2.03712 12.0944C1.57066 11.1187 1.47954 10.0968 1.94927 9.06782C2.34225 8.20698 2.92594 7.80709 3.53931 7.63451C4.17653 7.45522 4.87835 7.51405 5.47608 7.64642C6.38237 7.84712 7.38682 7.48348 7.95459 6.74912Z" fill="#2D264B"/>
<path fill-rule="evenodd" clip-rule="evenodd" d="M18.8915 3.08727C18.1006 2.1219 17.1563 1.76068 16.2404 1.74592C15.3494 1.73155 14.5178 2.04425 13.9025 2.36154C13.4173 2.61175 12.7637 2.5533 12.3305 2.22095C11.7813 1.79951 11.0184 1.3442 10.1389 1.20022C9.23503 1.05223 8.24162 1.24014 7.29194 2.04983C6.17077 3.00572 5.73274 4.27033 5.74516 5.59027C5.75745 6.89499 6.20714 8.26042 6.85955 9.49301C7.5137 10.7289 8.38896 11.8643 9.29304 12.7127C10.1772 13.5424 11.1641 14.1681 12.0472 14.2471C12.9304 14.326 14.0126 13.8855 15.03 13.2258C16.0703 12.5513 17.1331 11.5892 17.9962 10.4891C18.857 9.39179 19.5418 8.12784 19.7854 6.84601C20.0319 5.54923 19.8252 4.22695 18.8915 3.08727ZM14.355 3.23902C14.8991 2.95844 15.5626 2.72239 16.2245 2.73306C16.8616 2.74333 17.5281 2.98097 18.1278 3.71296C18.8447 4.58791 19.0174 5.59924 18.8155 6.66167C18.6108 7.73904 18.0194 8.8599 17.2194 9.87969C16.4217 10.8965 15.4392 11.7838 14.4928 12.3974C13.5236 13.0258 12.6779 13.3123 12.1352 13.2637C11.5924 13.2152 10.811 12.7832 9.96863 11.9928C9.1462 11.221 8.33673 10.1734 7.73213 9.03116C7.12579 7.8856 6.74272 6.67759 6.73239 5.58097C6.72221 4.49958 7.07173 3.53497 7.93247 2.80111C8.65257 2.18716 9.3506 2.07157 9.97942 2.17452C10.6327 2.28147 11.2438 2.63153 11.7295 3.00421C12.4659 3.56928 13.5299 3.66445 14.355 3.23902Z" fill="#2D264B"/>
</g>
<defs>
<clipPath id="clip0_281_1612">
<rect width="20" height="20" fill="white"/>
</clipPath>
</defs>
</svg>
