<svg width="110" height="35" viewBox="0 0 110 35" fill="none" xmlns="http://www.w3.org/2000/svg">
<path d="M33.2015 22.5658L33.0541 22.2886C32.9934 22.176 32.3864 21.0152 31.4673 19.5513C31.8314 19.2048 32.1349 18.7803 32.3517 18.2866C32.7766 17.3163 32.8373 16.1729 32.4991 15.1334C32.3344 14.6136 32.0482 14.1459 31.6667 13.7474C31.2505 13.3143 30.7216 12.9591 30.0972 12.7079C30.4701 12.1102 30.6955 11.4865 30.7649 10.8628C30.8256 10.3517 30.7736 9.83194 30.6088 9.34684C30.2707 8.316 29.551 7.4151 28.6318 6.88669C28.1809 6.62681 27.6954 6.46223 27.2098 6.39293C27.071 4.74705 26.8803 3.51697 26.8629 3.3957L26.8109 3.08385L26.4987 3.13582C26.3774 3.15315 25.1634 3.36105 23.5766 3.75086C23.3598 3.26576 23.039 2.82397 22.6141 2.45149C21.825 1.74116 20.7498 1.34268 19.6573 1.33402C19.137 1.33402 18.6341 1.44663 18.1659 1.65453C17.5936 1.91441 17.0646 2.32155 16.6224 2.85862C16.1715 2.32155 15.6513 1.91441 15.0876 1.65453C14.6107 1.43797 14.1078 1.32536 13.5875 1.32536H13.5789C12.495 1.32536 11.4111 1.7325 10.622 2.44282C10.1972 2.82397 9.86766 3.27442 9.65089 3.76819C8.00338 3.37837 6.73741 3.17047 6.61602 3.15315L6.30386 3.10117L6.2605 3.41302C6.24316 3.5343 6.06974 4.70374 5.94834 6.29764C4.45692 6.5142 3.10424 7.623 2.56663 9.25155C2.41055 9.73665 2.35853 10.2391 2.41055 10.7502C2.47992 11.3825 2.70537 12.0149 3.0869 12.6213C2.46258 12.8638 1.94232 13.219 1.52611 13.6434C1.14458 14.0419 0.858434 14.5097 0.685013 15.0381C0.346842 16.0689 0.40754 17.2211 0.832421 18.1913C1.05787 18.6937 1.37003 19.1355 1.75155 19.482C0.815079 20.9979 0.199434 22.2107 0.138737 22.3233L0 22.6005L0.277474 22.7391C0.390198 22.7911 1.50876 23.3455 3.04354 23.9692C2.99151 24.4023 3.00019 24.8441 3.10424 25.2945C3.32969 26.334 3.96267 27.2869 4.83845 27.9279C5.272 28.2398 5.75758 28.4477 6.28652 28.5516C6.88482 28.6729 7.53515 28.6469 8.20282 28.4737C8.24617 29.1233 8.41092 29.7211 8.67973 30.2408C8.93986 30.7432 9.30404 31.1677 9.76361 31.4969C10.5267 32.0513 11.4631 32.3545 12.3909 32.3545C12.5297 32.3545 12.6771 32.3458 12.8158 32.3371C13.3014 32.2852 13.7523 32.1552 14.1685 31.9473C15.3304 33.316 16.3103 34.2949 16.4056 34.3902L16.6311 34.6154L16.8479 34.3902C16.9346 34.3035 17.8624 33.3507 18.9809 32.0253C19.5185 32.2852 20.1255 32.4238 20.7412 32.4238C21.6343 32.4238 22.5447 32.1466 23.3425 31.5662C23.7934 31.237 24.1576 30.8212 24.4177 30.3274C24.6952 29.8077 24.8599 29.2013 24.9033 28.543C25.5623 28.7075 26.1953 28.7335 26.7936 28.6209C27.3312 28.517 27.8254 28.3091 28.2676 27.9886C29.6117 27.0097 30.2446 25.4504 30.0539 23.9951C31.6407 23.3368 32.8113 22.7477 32.924 22.6871L33.2015 22.5658ZM28.337 7.43243C29.1261 7.89154 29.7417 8.6625 30.0365 9.54608C30.1493 9.89258 30.1926 10.2477 30.1753 10.6116C30.1406 11.2353 29.9238 11.8763 29.5163 12.4827L29.1521 13.0111L29.7591 13.245C30.4094 13.4875 30.947 13.8427 31.3372 14.3018C31.5973 14.605 31.7881 14.9428 31.9095 15.3153C32.1956 16.2075 32.1523 17.1951 31.7881 18.0267C31.6233 18.3992 31.3979 18.7283 31.1291 19.0055C30.6782 18.3125 30.1753 17.5762 29.629 16.8659C28.7446 15.7138 27.7647 14.631 26.7936 13.938C27.2011 12.7339 27.3485 11.1486 27.3572 9.5634C27.3659 8.69715 27.3312 7.8309 27.2705 7.03395C27.6433 7.10325 27.9988 7.23319 28.337 7.43243ZM21.6343 19.0748C21.799 19.2308 21.9378 19.3953 22.0592 19.5599C23.4032 21.4051 22.6748 24.359 22.4407 25.1732C21.5909 25.1473 18.5561 24.922 17.212 23.0769C17.0907 22.9123 16.9866 22.7304 16.8825 22.5225L16.6051 21.9335L16.3276 22.5225C16.2322 22.7304 16.1195 22.9123 15.9981 23.0769C14.6541 24.922 11.6192 25.1473 10.7695 25.1732C10.5353 24.359 9.80696 21.4051 11.151 19.5599C11.2724 19.3953 11.4111 19.2308 11.5759 19.0748L12.0441 18.6244L11.4024 18.5378C11.177 18.5031 10.9689 18.4598 10.7695 18.3992C8.6277 17.7062 7.47445 14.9515 7.17096 14.1112L7.16229 14.0766C7.86465 13.6001 10.4486 11.9976 12.6164 12.7079C12.8158 12.7685 13.0066 12.8552 13.206 12.9678L13.7783 13.2796L13.6569 12.6386C13.6136 12.4134 13.5962 12.2055 13.5962 11.9976C13.5962 9.75398 15.8507 7.81358 16.5617 7.25918L16.6224 7.30249L16.6571 7.2765C17.3941 7.85689 19.5879 9.7713 19.5879 11.9889C19.5879 12.1968 19.5706 12.4047 19.5272 12.6299L19.4058 13.271L19.9781 12.9591C20.1775 12.8465 20.377 12.7685 20.5677 12.6992C22.7355 11.9976 25.3282 13.6001 26.0305 14.0766C25.7444 14.8735 24.5911 17.6888 22.4234 18.3905C22.2239 18.4511 22.0245 18.5031 21.7904 18.5291L21.1487 18.6157L21.6343 19.0748ZM9.08727 18.148C7.78661 18.9189 6.72874 19.352 5.88765 19.5859C4.18812 20.0624 3.39038 19.7245 3.38171 19.7245L3.33836 19.7072C3.07822 19.6206 2.82676 19.4993 2.60132 19.352C3.0262 18.685 3.49444 17.992 3.99736 17.3163C4.82978 16.1989 5.74891 15.1507 6.64203 14.4837C6.95419 15.2807 7.72591 17.0218 9.08727 18.148ZM26.5508 14.5357C27.4612 15.22 28.389 16.2768 29.2388 17.403C29.7417 18.07 30.2186 18.7717 30.6435 19.4213C30.4094 19.5773 30.1579 19.7072 29.8805 19.7938L29.8371 19.8112C29.8198 19.8198 29.022 20.1577 27.3052 19.6726C26.4554 19.43 25.3889 18.9882 24.0709 18.1999C25.4409 17.0998 26.2299 15.3673 26.5508 14.5357ZM26.7329 9.37283C26.7329 10.8455 26.6201 12.3354 26.282 13.4875C25.5796 13.0197 23.8194 11.9802 21.9638 11.9109C22.6228 10.343 23.2905 9.2862 23.8801 8.57588C24.9206 7.31981 25.701 7.14656 25.7097 7.1379L25.753 7.12924C26.0392 7.03395 26.3427 6.99064 26.6375 6.98198C26.6895 7.73561 26.7329 8.54989 26.7329 9.37283ZM23.9234 5.2668C23.9234 4.95495 23.8801 4.65176 23.802 4.35724C24.9206 4.08004 25.8484 3.89812 26.308 3.8115C26.3774 4.27061 26.4987 5.20616 26.5941 6.35828C26.256 6.36694 25.9178 6.41891 25.5796 6.53153C25.3975 6.56618 24.5044 6.82605 23.3945 8.1774C22.7355 8.98302 21.9898 10.1698 21.2788 11.9283C20.984 11.9543 20.6891 12.0149 20.3943 12.1102C20.3336 12.1275 20.2816 12.1535 20.2209 12.1708C20.2209 12.1102 20.2296 12.0495 20.2296 11.9889C20.2296 11.6597 20.1862 11.3306 20.1168 11.0187C21.5562 9.81462 22.4494 8.75779 23.013 7.88288C23.9755 6.39293 23.9408 5.44871 23.9234 5.2668ZM23.2991 5.28413V5.32744C23.2991 5.34476 23.3772 6.15038 22.484 7.54504C21.9898 8.32467 21.1921 9.27754 19.9087 10.3777C19.2844 8.7318 17.871 7.44975 17.1774 6.89535C18.1659 6.21968 19.5359 5.63929 20.9319 5.18018C21.695 4.92896 22.4754 4.70374 23.1951 4.51316C23.2644 4.76437 23.2991 5.01559 23.2991 5.28413ZM11.0556 2.92792C11.7319 2.32155 12.6597 1.97505 13.5962 1.97505C13.5962 1.97505 13.5962 1.97505 13.6049 1.97505C13.9691 1.97505 14.3333 2.04435 14.6714 2.17429C15.2524 2.39951 15.79 2.80665 16.2322 3.36971L16.6224 3.8808L17.03 3.37837C17.4808 2.80665 18.0185 2.39951 18.6081 2.17429C18.9463 2.04435 19.3018 1.97505 19.666 1.97505C19.666 1.97505 19.666 1.97505 19.6746 1.97505C20.6111 1.97505 21.5389 2.32155 22.2152 2.92792C22.5361 3.21379 22.7962 3.55162 22.9696 3.92411C22.2066 4.12335 21.3742 4.3659 20.5591 4.6431C19.1023 5.13686 17.6716 5.76056 16.6484 6.50554L16.5964 6.47089L16.5791 6.47955C15.5732 5.74324 14.1598 5.13686 12.7118 4.65176C11.888 4.37456 11.0556 4.14067 10.2752 3.94144C10.466 3.56895 10.7261 3.22245 11.0556 2.92792ZM9.97171 5.32744V5.28413C9.97171 5.02425 10.0064 4.7817 10.0671 4.53049C10.7955 4.7124 11.5759 4.92896 12.3389 5.18018C13.7263 5.63063 15.079 6.19369 16.0501 6.8607C15.3738 7.40644 13.9517 8.68849 13.3101 10.3344C12.0441 9.23423 11.255 8.28135 10.7608 7.51039C9.90235 6.14171 9.97171 5.34476 9.97171 5.32744ZM6.85013 3.84615C7.32704 3.93277 8.2982 4.11469 9.46879 4.39189C9.39942 4.67775 9.35607 4.97228 9.35607 5.27546C9.33873 5.45738 9.30404 6.39293 10.2492 7.87422C10.8041 8.74047 11.6886 9.78863 13.1106 10.9927C13.0326 11.3219 12.9806 11.6597 12.9806 12.0062C12.9806 12.0669 12.9806 12.1275 12.9892 12.1881C12.9285 12.1622 12.8765 12.1448 12.8158 12.1275C12.5383 12.0409 12.2522 11.9802 11.9661 11.9456C11.255 10.1698 10.518 8.97435 9.85899 8.15141C8.73175 6.75675 7.81262 6.48821 7.63053 6.45356C7.29236 6.34095 6.94552 6.28898 6.59867 6.28031C6.68538 5.18018 6.78944 4.28794 6.85013 3.84615ZM6.55532 6.90401C6.85881 6.91268 7.15362 6.95599 7.45711 7.05128L7.50046 7.05994C7.51781 7.05994 8.32421 7.22453 9.38208 8.53257C9.97171 9.25155 10.6307 10.3257 11.2897 11.9109C9.44278 11.9629 7.68256 12.9851 6.95419 13.4702C6.60734 12.2921 6.48595 10.7675 6.47728 9.26888C6.48595 8.4546 6.51196 7.64033 6.55532 6.90401ZM1.43072 17.9487C1.06654 17.1171 1.01451 16.1296 1.30933 15.2373C1.43072 14.8562 1.63016 14.5184 1.89029 14.2152C2.28049 13.7647 2.80942 13.4009 3.45975 13.167L4.06673 12.9504L3.71121 12.4047C3.295 11.7897 3.07822 11.14 3.05221 10.5076C3.03487 10.1525 3.0869 9.79729 3.19095 9.45945C3.63317 8.11677 4.71705 7.18121 5.931 6.95599C5.88765 7.74428 5.85296 8.60187 5.86163 9.45945C5.87898 11.036 6.02638 12.6386 6.43392 13.86C5.46276 14.5443 4.49161 15.6272 3.60716 16.7966C3.06955 17.5069 2.56663 18.2519 2.11574 18.9536C1.82959 18.6764 1.59547 18.3385 1.43072 17.9487ZM0.867106 22.3406C1.10122 21.8988 1.61282 20.9633 2.28049 19.8805C2.54062 20.0537 2.82676 20.1923 3.13892 20.2963C3.24297 20.3396 3.60716 20.4782 4.25749 20.4782C4.71705 20.4782 5.31536 20.4089 6.06974 20.201C7.01488 19.9324 8.20282 19.4387 9.64221 18.5551C9.93703 18.737 10.2492 18.8929 10.5874 19.0055C10.6481 19.0229 10.7001 19.0402 10.7608 19.0575C10.7261 19.1095 10.6827 19.1528 10.6481 19.2048C10.492 19.4213 10.3619 19.6466 10.2492 19.8805C8.47162 20.0017 7.17096 20.2963 6.20848 20.6428C4.38755 21.3011 3.82394 22.1327 3.72855 22.306C3.48576 22.6351 3.31234 22.999 3.19095 23.3801C2.13308 22.9383 1.28332 22.5398 0.867106 22.3406ZM3.78058 23.5967C3.87596 23.2588 4.03204 22.9383 4.24882 22.6438L4.27483 22.6005C4.2835 22.5832 4.70838 21.8209 6.43392 21.1972C7.28369 20.894 8.43694 20.6254 10.0151 20.4955C9.45145 22.3146 9.91102 24.3763 10.1451 25.2079C8.9572 25.1906 7.51781 24.8614 6.12177 24.4196C5.29802 24.1771 4.50028 23.8825 3.78058 23.5967ZM12.7551 31.7394C11.8533 31.8347 10.8995 31.5662 10.1365 31.0204C9.80696 30.7779 9.52949 30.4747 9.32139 30.1195C9.02657 29.6171 8.85315 29.0107 8.82714 28.3351L8.80979 27.694L8.18548 27.8673C7.50046 28.0579 6.84146 28.0838 6.24316 27.9279C5.8703 27.8326 5.53213 27.6767 5.21998 27.4515C4.46559 26.8971 3.91932 26.0741 3.72855 25.1906C3.65919 24.8701 3.64184 24.5495 3.65919 24.229C4.42224 24.5236 5.25466 24.8267 6.10442 25.0866C7.53515 25.5197 9.00056 25.8403 10.2318 25.8403C10.2492 25.8403 10.2579 25.8403 10.2752 25.8403C10.622 26.9404 11.3244 28.1705 12.1395 29.3486C12.6597 30.0935 13.2234 30.8212 13.761 31.4795C13.4488 31.6181 13.1106 31.7048 12.7551 31.7394ZM14.3159 31.1677C13.7957 30.544 13.258 29.851 12.7551 29.1407C11.9574 28.0145 11.2637 26.8364 10.9082 25.7883C11.7406 25.7536 13.761 25.5717 15.3131 24.5495C15.6252 25.9442 15.7206 27.0443 15.6946 27.8933C15.6426 29.747 15.053 30.4227 15.0443 30.4314L15.0096 30.466C14.8188 30.7432 14.5847 30.9771 14.3159 31.1677ZM16.6224 33.7491C16.2756 33.3853 15.5472 32.623 14.7148 31.6441C15.0183 31.4189 15.2871 31.159 15.5125 30.8472C15.6426 30.6999 16.2756 29.8943 16.3276 27.9279C16.3536 26.9664 16.2409 25.719 15.8594 24.1337C16.0935 23.9258 16.3103 23.7006 16.501 23.4407C16.5357 23.3888 16.5704 23.3368 16.6051 23.2935C16.6398 23.3455 16.6744 23.3974 16.7091 23.4407C16.8825 23.6746 17.0733 23.8825 17.2814 24.0731C16.8825 25.6843 16.7698 26.9491 16.7872 27.9279C16.8305 29.929 17.4722 30.7519 17.6022 30.8992C17.8364 31.2197 18.1225 31.4969 18.426 31.7134C17.6456 32.6577 16.9606 33.394 16.6224 33.7491ZM18.8335 31.237C18.5561 31.0464 18.3046 30.8039 18.0965 30.518L18.0705 30.4834C18.0618 30.4747 17.4635 29.7904 17.4202 27.9106C17.4028 27.0443 17.4982 25.9182 17.8277 24.4889C19.3451 25.5284 21.3655 25.7363 22.2413 25.7796C21.8857 26.8538 21.1747 28.0579 20.3683 29.21C19.8654 29.929 19.3365 30.6133 18.8335 31.237ZM29.3862 25.2425C29.1954 26.1261 28.6492 26.9577 27.8948 27.5035C27.5826 27.7287 27.2271 27.8933 26.8456 27.9886C26.256 28.1358 25.6056 28.1098 24.938 27.9193L24.3223 27.7373L24.2876 28.387C24.2703 28.9241 24.1489 29.5825 23.7847 30.1888C23.5939 30.5093 23.3338 30.8125 22.9783 31.0724C21.8684 31.878 20.4897 32.008 19.3885 31.5402C19.9174 30.8905 20.4724 30.1628 20.984 29.4179C21.799 28.2398 22.5101 26.9924 22.8656 25.8749C22.8916 25.8749 22.9263 25.8749 22.9523 25.8749C24.1489 25.8749 25.5796 25.5631 26.9843 25.1299C27.8428 24.8614 28.6839 24.5582 29.4556 24.255C29.4816 24.5755 29.4642 24.9134 29.3862 25.2425ZM23.2298 20.5735C24.7732 20.7121 25.9091 20.9893 26.7415 21.2924C28.3977 21.9075 28.8399 22.6438 28.8486 22.6525L28.8746 22.6958C29.0827 22.9816 29.2388 23.2935 29.3342 23.6313C28.5971 23.9258 27.7907 24.2204 26.9757 24.4802C25.6143 24.9134 24.2183 25.2425 23.065 25.2599C23.2905 24.4716 23.7674 22.4099 23.2298 20.5735ZM29.9151 23.3974C29.8024 23.0249 29.629 22.6784 29.3862 22.3493C29.2908 22.1847 28.7359 21.3704 26.9757 20.7121C26.0305 20.3656 24.7472 20.0624 22.9956 19.9324C22.8829 19.6726 22.7355 19.43 22.5708 19.1961C22.5361 19.1441 22.5014 19.1008 22.458 19.0489C22.5187 19.0315 22.5794 19.0142 22.6315 18.9969C22.9436 18.8929 23.2384 18.7543 23.5072 18.5897C24.9726 19.4906 26.1692 20.0017 27.1231 20.2703C27.8861 20.4868 28.4931 20.5561 28.9527 20.5561C29.603 20.5561 29.9758 20.4175 30.0712 20.3742C30.392 20.2703 30.6869 20.123 30.9557 19.9411C31.606 20.9806 32.1002 21.8642 32.3344 22.2973C31.9182 22.5052 31.025 22.9297 29.9151 23.3974Z" fill="#46164D"/>
<path d="M16.5877 15.3413C16.7075 15.3413 16.8045 15.2443 16.8045 15.1247C16.8045 15.0051 16.7075 14.9082 16.5877 14.9082C16.468 14.9082 16.371 15.0051 16.371 15.1247C16.371 15.2443 16.468 15.3413 16.5877 15.3413Z" fill="#46164D"/>
<path d="M16.5879 14.7176C16.6885 14.7176 16.77 14.6361 16.77 14.5357C16.77 14.4352 16.6885 14.3538 16.5879 14.3538C16.4873 14.3538 16.4058 14.4352 16.4058 14.5357C16.4058 14.6361 16.4873 14.7176 16.5879 14.7176Z" fill="#46164D"/>
<path d="M16.5878 14.1632C16.6788 14.1632 16.7525 14.0895 16.7525 13.9986C16.7525 13.9077 16.6788 13.834 16.5878 13.834C16.4968 13.834 16.423 13.9077 16.423 13.9986C16.423 14.0895 16.4968 14.1632 16.5878 14.1632Z" fill="#46164D"/>
<path d="M16.5877 13.5915C16.6595 13.5915 16.7178 13.5333 16.7178 13.4615C16.7178 13.3898 16.6595 13.3316 16.5877 13.3316C16.5159 13.3316 16.4576 13.3898 16.4576 13.4615C16.4576 13.5333 16.5159 13.5915 16.5877 13.5915Z" fill="#46164D"/>
<path d="M16.5878 13.0371C16.65 13.0371 16.7005 12.9867 16.7005 12.9245C16.7005 12.8623 16.65 12.8118 16.5878 12.8118C16.5255 12.8118 16.475 12.8623 16.475 12.9245C16.475 12.9867 16.5255 13.0371 16.5878 13.0371Z" fill="#46164D"/>
<path d="M16.5877 19.1701C16.7075 19.1701 16.8045 19.0732 16.8045 18.9536C16.8045 18.834 16.7075 18.737 16.5877 18.737C16.468 18.737 16.371 18.834 16.371 18.9536C16.371 19.0732 16.468 19.1701 16.5877 19.1701Z" fill="#46164D"/>
<path d="M16.5879 19.7245C16.6885 19.7245 16.77 19.6431 16.77 19.5426C16.77 19.4421 16.6885 19.3607 16.5879 19.3607C16.4873 19.3607 16.4058 19.4421 16.4058 19.5426C16.4058 19.6431 16.4873 19.7245 16.5879 19.7245Z" fill="#46164D"/>
<path d="M16.5878 20.2443C16.6788 20.2443 16.7525 20.1706 16.7525 20.0797C16.7525 19.9888 16.6788 19.9151 16.5878 19.9151C16.4968 19.9151 16.423 19.9888 16.423 20.0797C16.423 20.1706 16.4968 20.2443 16.5878 20.2443Z" fill="#46164D"/>
<path d="M16.5877 20.7467C16.6595 20.7467 16.7178 20.6885 16.7178 20.6167C16.7178 20.545 16.6595 20.4868 16.5877 20.4868C16.5159 20.4868 16.4576 20.545 16.4576 20.6167C16.4576 20.6885 16.5159 20.7467 16.5877 20.7467Z" fill="#46164D"/>
<path d="M16.5878 21.2664C16.65 21.2664 16.7005 21.216 16.7005 21.1538C16.7005 21.0916 16.65 21.0412 16.5878 21.0412C16.5255 21.0412 16.475 21.0916 16.475 21.1538C16.475 21.216 16.5255 21.2664 16.5878 21.2664Z" fill="#46164D"/>
<path d="M16.1021 15.3933C16.2219 15.3933 16.3189 15.2963 16.3189 15.1767C16.3189 15.0571 16.2219 14.9602 16.1021 14.9602C15.9824 14.9602 15.8854 15.0571 15.8854 15.1767C15.8854 15.2963 15.9824 15.3933 16.1021 15.3933Z" fill="#46164D"/>
<path d="M15.9549 14.7956C16.0554 14.7956 16.1369 14.7141 16.1369 14.6136C16.1369 14.5132 16.0554 14.4317 15.9549 14.4317C15.8543 14.4317 15.7728 14.5132 15.7728 14.6136C15.7728 14.7141 15.8543 14.7956 15.9549 14.7956Z" fill="#46164D"/>
<path d="M15.8161 14.2585C15.9071 14.2585 15.9809 14.1848 15.9809 14.0939C15.9809 14.003 15.9071 13.9293 15.8161 13.9293C15.7251 13.9293 15.6514 14.003 15.6514 14.0939C15.6514 14.1848 15.7251 14.2585 15.8161 14.2585Z" fill="#46164D"/>
<path d="M15.6774 13.7041C15.7492 13.7041 15.8074 13.6459 15.8074 13.5741C15.8074 13.5024 15.7492 13.4442 15.6774 13.4442C15.6055 13.4442 15.5473 13.5024 15.5473 13.5741C15.5473 13.6459 15.6055 13.7041 15.6774 13.7041Z" fill="#46164D"/>
<path d="M15.53 13.167C15.5922 13.167 15.6427 13.1166 15.6427 13.0544C15.6427 12.9922 15.5922 12.9418 15.53 12.9418C15.4677 12.9418 15.4172 12.9922 15.4172 13.0544C15.4172 13.1166 15.4677 13.167 15.53 13.167Z" fill="#46164D"/>
<path d="M17.0995 19.1008C17.2192 19.1008 17.3162 19.0039 17.3162 18.8843C17.3162 18.7647 17.2192 18.6677 17.0995 18.6677C16.9797 18.6677 16.8827 18.7647 16.8827 18.8843C16.8827 19.0039 16.9797 19.1008 17.0995 19.1008Z" fill="#46164D"/>
<path d="M17.2467 19.6292C17.3473 19.6292 17.4288 19.5478 17.4288 19.4473C17.4288 19.3469 17.3473 19.2654 17.2467 19.2654C17.1462 19.2654 17.0646 19.3469 17.0646 19.4473C17.0646 19.5478 17.1462 19.6292 17.2467 19.6292Z" fill="#46164D"/>
<path d="M17.3855 20.1316C17.4765 20.1316 17.5503 20.058 17.5503 19.9671C17.5503 19.8762 17.4765 19.8025 17.3855 19.8025C17.2945 19.8025 17.2208 19.8762 17.2208 19.9671C17.2208 20.058 17.2945 20.1316 17.3855 20.1316Z" fill="#46164D"/>
<path d="M17.5242 20.6168C17.5961 20.6168 17.6543 20.5586 17.6543 20.4868C17.6543 20.4151 17.5961 20.3569 17.5242 20.3569C17.4524 20.3569 17.3942 20.4151 17.3942 20.4868C17.3942 20.5586 17.4524 20.6168 17.5242 20.6168Z" fill="#46164D"/>
<path d="M17.663 21.1192C17.7253 21.1192 17.7757 21.0688 17.7757 21.0066C17.7757 20.9444 17.7253 20.894 17.663 20.894C17.6008 20.894 17.5503 20.9444 17.5503 21.0066C17.5503 21.0688 17.6008 21.1192 17.663 21.1192Z" fill="#46164D"/>
<path d="M15.6513 15.5838C15.7711 15.5838 15.8681 15.4869 15.8681 15.3673C15.8681 15.2477 15.7711 15.1507 15.6513 15.1507C15.5316 15.1507 15.4346 15.2477 15.4346 15.3673C15.4346 15.4869 15.5316 15.5838 15.6513 15.5838Z" fill="#46164D"/>
<path d="M15.3565 15.0381C15.4571 15.0381 15.5386 14.9567 15.5386 14.8562C15.5386 14.7557 15.4571 14.6743 15.3565 14.6743C15.256 14.6743 15.1744 14.7557 15.1744 14.8562C15.1744 14.9567 15.256 15.0381 15.3565 15.0381Z" fill="#46164D"/>
<path d="M15.0878 14.553C15.1788 14.553 15.2525 14.4793 15.2525 14.3884C15.2525 14.2975 15.1788 14.2238 15.0878 14.2238C14.9968 14.2238 14.923 14.2975 14.923 14.3884C14.923 14.4793 14.9968 14.553 15.0878 14.553Z" fill="#46164D"/>
<path d="M14.819 14.0506C14.8908 14.0506 14.949 13.9924 14.949 13.9206C14.949 13.8489 14.8908 13.7907 14.819 13.7907C14.7471 13.7907 14.6889 13.8489 14.6889 13.9206C14.6889 13.9924 14.7471 14.0506 14.819 14.0506Z" fill="#46164D"/>
<path d="M14.5502 13.5741C14.6124 13.5741 14.6629 13.5237 14.6629 13.4615C14.6629 13.3993 14.6124 13.3489 14.5502 13.3489C14.4879 13.3489 14.4374 13.3993 14.4374 13.4615C14.4374 13.5237 14.4879 13.5741 14.5502 13.5741Z" fill="#46164D"/>
<path d="M17.5677 18.9016C17.6874 18.9016 17.7844 18.8046 17.7844 18.685C17.7844 18.5654 17.6874 18.4685 17.5677 18.4685C17.4479 18.4685 17.3509 18.5654 17.3509 18.685C17.3509 18.8046 17.4479 18.9016 17.5677 18.9016Z" fill="#46164D"/>
<path d="M17.8624 19.3694C17.963 19.3694 18.0445 19.2879 18.0445 19.1875C18.0445 19.087 17.963 19.0055 17.8624 19.0055C17.7618 19.0055 17.6803 19.087 17.6803 19.1875C17.6803 19.2879 17.7618 19.3694 17.8624 19.3694Z" fill="#46164D"/>
<path d="M18.1313 19.8198C18.2223 19.8198 18.2961 19.7461 18.2961 19.6552C18.2961 19.5643 18.2223 19.4906 18.1313 19.4906C18.0403 19.4906 17.9666 19.5643 17.9666 19.6552C17.9666 19.7461 18.0403 19.8198 18.1313 19.8198Z" fill="#46164D"/>
<path d="M18.4 20.2529C18.4718 20.2529 18.53 20.1948 18.53 20.123C18.53 20.0512 18.4718 19.9931 18.4 19.9931C18.3281 19.9931 18.2699 20.0512 18.2699 20.123C18.2699 20.1948 18.3281 20.2529 18.4 20.2529Z" fill="#46164D"/>
<path d="M18.6688 20.7034C18.731 20.7034 18.7815 20.653 18.7815 20.5908C18.7815 20.5286 18.731 20.4782 18.6688 20.4782C18.6065 20.4782 18.556 20.5286 18.556 20.5908C18.556 20.653 18.6065 20.7034 18.6688 20.7034Z" fill="#46164D"/>
<path d="M15.2524 15.8784C15.3721 15.8784 15.4692 15.7814 15.4692 15.6618C15.4692 15.5422 15.3721 15.4452 15.2524 15.4452C15.1327 15.4452 15.0356 15.5422 15.0356 15.6618C15.0356 15.7814 15.1327 15.8784 15.2524 15.8784Z" fill="#46164D"/>
<path d="M14.8361 15.4279C14.9367 15.4279 15.0182 15.3465 15.0182 15.246C15.0182 15.1455 14.9367 15.0641 14.8361 15.0641C14.7356 15.0641 14.6541 15.1455 14.6541 15.246C14.6541 15.3465 14.7356 15.4279 14.8361 15.4279Z" fill="#46164D"/>
<path d="M14.4547 15.0294C14.5457 15.0294 14.6195 14.9558 14.6195 14.8649C14.6195 14.774 14.5457 14.7003 14.4547 14.7003C14.3637 14.7003 14.29 14.774 14.29 14.8649C14.29 14.9558 14.3637 15.0294 14.4547 15.0294Z" fill="#46164D"/>
<path d="M14.0818 14.6136C14.1537 14.6136 14.2119 14.5555 14.2119 14.4837C14.2119 14.4119 14.1537 14.3538 14.0818 14.3538C14.01 14.3538 13.9518 14.4119 13.9518 14.4837C13.9518 14.5555 14.01 14.6136 14.0818 14.6136Z" fill="#46164D"/>
<path d="M13.7004 14.2152C13.7626 14.2152 13.8131 14.1647 13.8131 14.1025C13.8131 14.0404 13.7626 13.9899 13.7004 13.9899C13.6381 13.9899 13.5876 14.0404 13.5876 14.1025C13.5876 14.1647 13.6381 14.2152 13.7004 14.2152Z" fill="#46164D"/>
<path d="M17.9665 18.5897C18.0863 18.5897 18.1833 18.4928 18.1833 18.3732C18.1833 18.2536 18.0863 18.1566 17.9665 18.1566C17.8468 18.1566 17.7498 18.2536 17.7498 18.3732C17.7498 18.4928 17.8468 18.5897 17.9665 18.5897Z" fill="#46164D"/>
<path d="M18.3826 18.9709C18.4832 18.9709 18.5647 18.8894 18.5647 18.789C18.5647 18.6885 18.4832 18.6071 18.3826 18.6071C18.282 18.6071 18.2005 18.6885 18.2005 18.789C18.2005 18.8894 18.282 18.9709 18.3826 18.9709Z" fill="#46164D"/>
<path d="M18.7642 19.326C18.8552 19.326 18.9289 19.2524 18.9289 19.1615C18.9289 19.0706 18.8552 18.9969 18.7642 18.9969C18.6732 18.9969 18.5994 19.0706 18.5994 19.1615C18.5994 19.2524 18.6732 19.326 18.7642 19.326Z" fill="#46164D"/>
<path d="M19.1457 19.6725C19.2175 19.6725 19.2758 19.6144 19.2758 19.5426C19.2758 19.4708 19.2175 19.4127 19.1457 19.4127C19.0739 19.4127 19.0156 19.4708 19.0156 19.5426C19.0156 19.6144 19.0739 19.6725 19.1457 19.6725Z" fill="#46164D"/>
<path d="M19.5272 20.0364C19.5895 20.0364 19.6399 19.986 19.6399 19.9238C19.6399 19.8616 19.5895 19.8112 19.5272 19.8112C19.465 19.8112 19.4145 19.8616 19.4145 19.9238C19.4145 19.986 19.465 20.0364 19.5272 20.0364Z" fill="#46164D"/>
<path d="M14.949 16.2682C15.0687 16.2682 15.1657 16.1712 15.1657 16.0516C15.1657 15.932 15.0687 15.835 14.949 15.835C14.8292 15.835 14.7322 15.932 14.7322 16.0516C14.7322 16.1712 14.8292 16.2682 14.949 16.2682Z" fill="#46164D"/>
<path d="M14.4459 15.939C14.5465 15.939 14.628 15.8576 14.628 15.7571C14.628 15.6566 14.5465 15.5752 14.4459 15.5752C14.3454 15.5752 14.2639 15.6566 14.2639 15.7571C14.2639 15.8576 14.3454 15.939 14.4459 15.939Z" fill="#46164D"/>
<path d="M13.9777 15.6531C14.0687 15.6531 14.1425 15.5795 14.1425 15.4886C14.1425 15.3977 14.0687 15.324 13.9777 15.324C13.8867 15.324 13.813 15.3977 13.813 15.4886C13.813 15.5795 13.8867 15.6531 13.9777 15.6531Z" fill="#46164D"/>
<path d="M13.5096 15.3499C13.5815 15.3499 13.6397 15.2918 13.6397 15.22C13.6397 15.1482 13.5815 15.0901 13.5096 15.0901C13.4378 15.0901 13.3796 15.1482 13.3796 15.22C13.3796 15.2918 13.4378 15.3499 13.5096 15.3499Z" fill="#46164D"/>
<path d="M13.0412 15.0641C13.1035 15.0641 13.154 15.0137 13.154 14.9515C13.154 14.8893 13.1035 14.8389 13.0412 14.8389C12.979 14.8389 12.9285 14.8893 12.9285 14.9515C12.9285 15.0137 12.979 15.0641 13.0412 15.0641Z" fill="#46164D"/>
<path d="M18.2699 18.1826C18.3897 18.1826 18.4867 18.0856 18.4867 17.966C18.4867 17.8464 18.3897 17.7495 18.2699 17.7495C18.1502 17.7495 18.0532 17.8464 18.0532 17.966C18.0532 18.0856 18.1502 18.1826 18.2699 18.1826Z" fill="#46164D"/>
<path d="M18.7815 18.4425C18.8821 18.4425 18.9636 18.361 18.9636 18.2605C18.9636 18.1601 18.8821 18.0786 18.7815 18.0786C18.681 18.0786 18.5994 18.1601 18.5994 18.2605C18.5994 18.361 18.681 18.4425 18.7815 18.4425Z" fill="#46164D"/>
<path d="M19.2499 18.6937C19.3409 18.6937 19.4146 18.62 19.4146 18.5291C19.4146 18.4382 19.3409 18.3645 19.2499 18.3645C19.1589 18.3645 19.0851 18.4382 19.0851 18.5291C19.0851 18.62 19.1589 18.6937 19.2499 18.6937Z" fill="#46164D"/>
<path d="M19.7181 18.9276C19.7899 18.9276 19.8481 18.8694 19.8481 18.7976C19.8481 18.7259 19.7899 18.6677 19.7181 18.6677C19.6462 18.6677 19.588 18.7259 19.588 18.7976C19.588 18.8694 19.6462 18.9276 19.7181 18.9276Z" fill="#46164D"/>
<path d="M20.1777 19.1788C20.2399 19.1788 20.2904 19.1284 20.2904 19.0662C20.2904 19.004 20.2399 18.9536 20.1777 18.9536C20.1154 18.9536 20.0649 19.004 20.0649 19.0662C20.0649 19.1284 20.1154 19.1788 20.1777 19.1788Z" fill="#46164D"/>
<path d="M14.7582 16.7186C14.8779 16.7186 14.9749 16.6217 14.9749 16.5021C14.9749 16.3825 14.8779 16.2855 14.7582 16.2855C14.6384 16.2855 14.5414 16.3825 14.5414 16.5021C14.5414 16.6217 14.6384 16.7186 14.7582 16.7186Z" fill="#46164D"/>
<path d="M14.1945 16.5281C14.2951 16.5281 14.3766 16.4466 14.3766 16.3461C14.3766 16.2457 14.2951 16.1642 14.1945 16.1642C14.094 16.1642 14.0125 16.2457 14.0125 16.3461C14.0125 16.4466 14.094 16.5281 14.1945 16.5281Z" fill="#46164D"/>
<path d="M13.6743 16.3721C13.7653 16.3721 13.8391 16.2984 13.8391 16.2075C13.8391 16.1166 13.7653 16.0429 13.6743 16.0429C13.5833 16.0429 13.5096 16.1166 13.5096 16.2075C13.5096 16.2984 13.5833 16.3721 13.6743 16.3721Z" fill="#46164D"/>
<path d="M13.1541 16.1989C13.2259 16.1989 13.2841 16.1407 13.2841 16.0689C13.2841 15.9972 13.2259 15.939 13.1541 15.939C13.0822 15.939 13.024 15.9972 13.024 16.0689C13.024 16.1407 13.0822 16.1989 13.1541 16.1989Z" fill="#46164D"/>
<path d="M12.6338 16.0429C12.6961 16.0429 12.7466 15.9925 12.7466 15.9303C12.7466 15.8681 12.6961 15.8177 12.6338 15.8177C12.5716 15.8177 12.5211 15.8681 12.5211 15.9303C12.5211 15.9925 12.5716 16.0429 12.6338 16.0429Z" fill="#46164D"/>
<path d="M18.4607 17.7062C18.5805 17.7062 18.6775 17.6092 18.6775 17.4896C18.6775 17.37 18.5805 17.273 18.4607 17.273C18.341 17.273 18.244 17.37 18.244 17.4896C18.244 17.6092 18.341 17.7062 18.4607 17.7062Z" fill="#46164D"/>
<path d="M19.033 17.8274C19.1336 17.8274 19.2151 17.746 19.2151 17.6455C19.2151 17.545 19.1336 17.4636 19.033 17.4636C18.9325 17.4636 18.851 17.545 18.851 17.6455C18.851 17.746 18.9325 17.8274 19.033 17.8274Z" fill="#46164D"/>
<path d="M19.5532 17.9487C19.6442 17.9487 19.718 17.875 19.718 17.7841C19.718 17.6932 19.6442 17.6195 19.5532 17.6195C19.4622 17.6195 19.3885 17.6932 19.3885 17.7841C19.3885 17.875 19.4622 17.9487 19.5532 17.9487Z" fill="#46164D"/>
<path d="M20.0735 18.0527C20.1454 18.0527 20.2036 17.9945 20.2036 17.9227C20.2036 17.851 20.1454 17.7928 20.0735 17.7928C20.0017 17.7928 19.9435 17.851 19.9435 17.9227C19.9435 17.9945 20.0017 18.0527 20.0735 18.0527Z" fill="#46164D"/>
<path d="M20.5939 18.1739C20.6561 18.1739 20.7066 18.1235 20.7066 18.0613C20.7066 17.9991 20.6561 17.9487 20.5939 17.9487C20.5316 17.9487 20.4811 17.9991 20.4811 18.0613C20.4811 18.1235 20.5316 18.1739 20.5939 18.1739Z" fill="#46164D"/>
<path d="M14.6888 17.2037C14.8085 17.2037 14.9056 17.1068 14.9056 16.9872C14.9056 16.8676 14.8085 16.7706 14.6888 16.7706C14.5691 16.7706 14.472 16.8676 14.472 16.9872C14.472 17.1068 14.5691 17.2037 14.6888 17.2037Z" fill="#46164D"/>
<path d="M14.0992 17.1691C14.1998 17.1691 14.2813 17.0876 14.2813 16.9872C14.2813 16.8867 14.1998 16.8053 14.0992 16.8053C13.9986 16.8053 13.9171 16.8867 13.9171 16.9872C13.9171 17.0876 13.9986 17.1691 14.0992 17.1691Z" fill="#46164D"/>
<path d="M13.5616 17.1518C13.6526 17.1518 13.7263 17.0781 13.7263 16.9872C13.7263 16.8963 13.6526 16.8226 13.5616 16.8226C13.4706 16.8226 13.3969 16.8963 13.3969 16.9872C13.3969 17.0781 13.4706 17.1518 13.5616 17.1518Z" fill="#46164D"/>
<path d="M13.024 17.1171C13.0958 17.1171 13.1541 17.0589 13.1541 16.9872C13.1541 16.9154 13.0958 16.8572 13.024 16.8572C12.9522 16.8572 12.8939 16.9154 12.8939 16.9872C12.8939 17.0589 12.9522 17.1171 13.024 17.1171Z" fill="#46164D"/>
<path d="M12.4864 17.0998C12.5486 17.0998 12.5991 17.0494 12.5991 16.9872C12.5991 16.925 12.5486 16.8746 12.4864 16.8746C12.4241 16.8746 12.3737 16.925 12.3737 16.9872C12.3737 17.0494 12.4241 17.0998 12.4864 17.0998Z" fill="#46164D"/>
<path d="M18.5213 17.2037C18.6411 17.2037 18.7381 17.1068 18.7381 16.9872C18.7381 16.8676 18.6411 16.7706 18.5213 16.7706C18.4016 16.7706 18.3046 16.8676 18.3046 16.9872C18.3046 17.1068 18.4016 17.2037 18.5213 17.2037Z" fill="#46164D"/>
<path d="M19.111 17.1691C19.2116 17.1691 19.2931 17.0876 19.2931 16.9872C19.2931 16.8867 19.2116 16.8053 19.111 16.8053C19.0104 16.8053 18.9289 16.8867 18.9289 16.9872C18.9289 17.0876 19.0104 17.1691 19.111 17.1691Z" fill="#46164D"/>
<path d="M19.6486 17.1518C19.7396 17.1518 19.8134 17.0781 19.8134 16.9872C19.8134 16.8963 19.7396 16.8226 19.6486 16.8226C19.5576 16.8226 19.4839 16.8963 19.4839 16.9872C19.4839 17.0781 19.5576 17.1518 19.6486 17.1518Z" fill="#46164D"/>
<path d="M20.1863 17.1171C20.2581 17.1171 20.3163 17.0589 20.3163 16.9872C20.3163 16.9154 20.2581 16.8572 20.1863 16.8572C20.1144 16.8572 20.0562 16.9154 20.0562 16.9872C20.0562 17.0589 20.1144 17.1171 20.1863 17.1171Z" fill="#46164D"/>
<path d="M20.7239 17.0998C20.7861 17.0998 20.8366 17.0494 20.8366 16.9872C20.8366 16.925 20.7861 16.8746 20.7239 16.8746C20.6616 16.8746 20.6111 16.925 20.6111 16.9872C20.6111 17.0494 20.6616 17.0998 20.7239 17.0998Z" fill="#46164D"/>
<path d="M14.7494 17.6888C14.8691 17.6888 14.9661 17.5919 14.9661 17.4723C14.9661 17.3527 14.8691 17.2557 14.7494 17.2557C14.6296 17.2557 14.5326 17.3527 14.5326 17.4723C14.5326 17.5919 14.6296 17.6888 14.7494 17.6888Z" fill="#46164D"/>
<path d="M14.1859 17.8101C14.2864 17.8101 14.368 17.7286 14.368 17.6282C14.368 17.5277 14.2864 17.4463 14.1859 17.4463C14.0853 17.4463 14.0038 17.5277 14.0038 17.6282C14.0038 17.7286 14.0853 17.8101 14.1859 17.8101Z" fill="#46164D"/>
<path d="M13.6657 17.9314C13.7567 17.9314 13.8304 17.8577 13.8304 17.7668C13.8304 17.6759 13.7567 17.6022 13.6657 17.6022C13.5747 17.6022 13.5009 17.6759 13.5009 17.7668C13.5009 17.8577 13.5747 17.9314 13.6657 17.9314Z" fill="#46164D"/>
<path d="M13.1453 18.0353C13.2172 18.0353 13.2754 17.9772 13.2754 17.9054C13.2754 17.8336 13.2172 17.7755 13.1453 17.7755C13.0735 17.7755 13.0153 17.8336 13.0153 17.9054C13.0153 17.9772 13.0735 18.0353 13.1453 18.0353Z" fill="#46164D"/>
<path d="M12.6251 18.1566C12.6874 18.1566 12.7378 18.1062 12.7378 18.044C12.7378 17.9818 12.6874 17.9314 12.6251 17.9314C12.5629 17.9314 12.5124 17.9818 12.5124 18.044C12.5124 18.1062 12.5629 18.1566 12.6251 18.1566Z" fill="#46164D"/>
<path d="M18.4521 16.7013C18.5718 16.7013 18.6689 16.6044 18.6689 16.4848C18.6689 16.3651 18.5718 16.2682 18.4521 16.2682C18.3324 16.2682 18.2354 16.3651 18.2354 16.4848C18.2354 16.6044 18.3324 16.7013 18.4521 16.7013Z" fill="#46164D"/>
<path d="M19.0244 16.5107C19.1249 16.5107 19.2065 16.4293 19.2065 16.3288C19.2065 16.2283 19.1249 16.1469 19.0244 16.1469C18.9238 16.1469 18.8423 16.2283 18.8423 16.3288C18.8423 16.4293 18.9238 16.5107 19.0244 16.5107Z" fill="#46164D"/>
<path d="M19.5446 16.3548C19.6356 16.3548 19.7093 16.2811 19.7093 16.1902C19.7093 16.0993 19.6356 16.0256 19.5446 16.0256C19.4536 16.0256 19.3798 16.0993 19.3798 16.1902C19.3798 16.2811 19.4536 16.3548 19.5446 16.3548Z" fill="#46164D"/>
<path d="M20.065 16.1816C20.1368 16.1816 20.1951 16.1234 20.1951 16.0516C20.1951 15.9798 20.1368 15.9217 20.065 15.9217C19.9932 15.9217 19.9349 15.9798 19.9349 16.0516C19.9349 16.1234 19.9932 16.1816 20.065 16.1816Z" fill="#46164D"/>
<path d="M20.5851 16.0256C20.6473 16.0256 20.6978 15.9752 20.6978 15.913C20.6978 15.8508 20.6473 15.8004 20.5851 15.8004C20.5228 15.8004 20.4724 15.8508 20.4724 15.913C20.4724 15.9752 20.5228 16.0256 20.5851 16.0256Z" fill="#46164D"/>
<path d="M14.9316 18.1479C15.0513 18.1479 15.1484 18.051 15.1484 17.9314C15.1484 17.8118 15.0513 17.7148 14.9316 17.7148C14.8119 17.7148 14.7148 17.8118 14.7148 17.9314C14.7148 18.051 14.8119 18.1479 14.9316 18.1479Z" fill="#46164D"/>
<path d="M14.4287 18.4078C14.5293 18.4078 14.6108 18.3264 14.6108 18.2259C14.6108 18.1255 14.5293 18.044 14.4287 18.044C14.3282 18.044 14.2466 18.1255 14.2466 18.2259C14.2466 18.3264 14.3282 18.4078 14.4287 18.4078Z" fill="#46164D"/>
<path d="M13.9604 18.659C14.0514 18.659 14.1252 18.5853 14.1252 18.4944C14.1252 18.4035 14.0514 18.3298 13.9604 18.3298C13.8694 18.3298 13.7957 18.4035 13.7957 18.4944C13.7957 18.5853 13.8694 18.659 13.9604 18.659Z" fill="#46164D"/>
<path d="M13.4922 18.8929C13.5641 18.8929 13.6223 18.8347 13.6223 18.763C13.6223 18.6912 13.5641 18.633 13.4922 18.633C13.4204 18.633 13.3622 18.6912 13.3622 18.763C13.3622 18.8347 13.4204 18.8929 13.4922 18.8929Z" fill="#46164D"/>
<path d="M13.024 19.1441C13.0862 19.1441 13.1367 19.0937 13.1367 19.0315C13.1367 18.9693 13.0862 18.9189 13.024 18.9189C12.9617 18.9189 12.9113 18.9693 12.9113 19.0315C12.9113 19.0937 12.9617 19.1441 13.024 19.1441Z" fill="#46164D"/>
<path d="M18.2526 16.2335C18.3723 16.2335 18.4694 16.1366 18.4694 16.017C18.4694 15.8974 18.3723 15.8004 18.2526 15.8004C18.1329 15.8004 18.0358 15.8974 18.0358 16.017C18.0358 16.1366 18.1329 16.2335 18.2526 16.2335Z" fill="#46164D"/>
<path d="M18.7642 15.9044C18.8648 15.9044 18.9463 15.8229 18.9463 15.7224C18.9463 15.622 18.8648 15.5405 18.7642 15.5405C18.6637 15.5405 18.5822 15.622 18.5822 15.7224C18.5822 15.8229 18.6637 15.9044 18.7642 15.9044Z" fill="#46164D"/>
<path d="M19.2325 15.6185C19.3235 15.6185 19.3973 15.5448 19.3973 15.4539C19.3973 15.363 19.3235 15.2893 19.2325 15.2893C19.1415 15.2893 19.0677 15.363 19.0677 15.4539C19.0677 15.5448 19.1415 15.6185 19.2325 15.6185Z" fill="#46164D"/>
<path d="M19.7007 15.3153C19.7725 15.3153 19.8307 15.2571 19.8307 15.1854C19.8307 15.1136 19.7725 15.0554 19.7007 15.0554C19.6288 15.0554 19.5706 15.1136 19.5706 15.1854C19.5706 15.2571 19.6288 15.3153 19.7007 15.3153Z" fill="#46164D"/>
<path d="M20.1603 15.0294C20.2225 15.0294 20.273 14.979 20.273 14.9168C20.273 14.8546 20.2225 14.8042 20.1603 14.8042C20.098 14.8042 20.0475 14.8546 20.0475 14.9168C20.0475 14.979 20.098 15.0294 20.1603 15.0294Z" fill="#46164D"/>
<path d="M15.2264 18.5378C15.3461 18.5378 15.4431 18.4408 15.4431 18.3212C15.4431 18.2016 15.3461 18.1046 15.2264 18.1046C15.1066 18.1046 15.0096 18.2016 15.0096 18.3212C15.0096 18.4408 15.1066 18.5378 15.2264 18.5378Z" fill="#46164D"/>
<path d="M14.8103 18.9189C14.9108 18.9189 14.9924 18.8375 14.9924 18.737C14.9924 18.6365 14.9108 18.5551 14.8103 18.5551C14.7097 18.5551 14.6282 18.6365 14.6282 18.737C14.6282 18.8375 14.7097 18.9189 14.8103 18.9189Z" fill="#46164D"/>
<path d="M14.4373 19.2827C14.5283 19.2827 14.6021 19.2091 14.6021 19.1182C14.6021 19.0273 14.5283 18.9536 14.4373 18.9536C14.3463 18.9536 14.2726 19.0273 14.2726 19.1182C14.2726 19.2091 14.3463 19.2827 14.4373 19.2827Z" fill="#46164D"/>
<path d="M14.0557 19.6292C14.1276 19.6292 14.1858 19.5711 14.1858 19.4993C14.1858 19.4275 14.1276 19.3694 14.0557 19.3694C13.9839 19.3694 13.9257 19.4275 13.9257 19.4993C13.9257 19.5711 13.9839 19.6292 14.0557 19.6292Z" fill="#46164D"/>
<path d="M13.6742 19.9931C13.7365 19.9931 13.787 19.9426 13.787 19.8804C13.787 19.8182 13.7365 19.7678 13.6742 19.7678C13.612 19.7678 13.5615 19.8182 13.5615 19.8804C13.5615 19.9426 13.612 19.9931 13.6742 19.9931Z" fill="#46164D"/>
<path d="M17.9405 15.8264C18.0602 15.8264 18.1573 15.7294 18.1573 15.6098C18.1573 15.4902 18.0602 15.3933 17.9405 15.3933C17.8208 15.3933 17.7238 15.4902 17.7238 15.6098C17.7238 15.7294 17.8208 15.8264 17.9405 15.8264Z" fill="#46164D"/>
<path d="M18.3567 15.3759C18.4572 15.3759 18.5387 15.2945 18.5387 15.194C18.5387 15.0936 18.4572 15.0121 18.3567 15.0121C18.2561 15.0121 18.1746 15.0936 18.1746 15.194C18.1746 15.2945 18.2561 15.3759 18.3567 15.3759Z" fill="#46164D"/>
<path d="M18.7383 14.9861C18.8293 14.9861 18.903 14.9124 18.903 14.8215C18.903 14.7306 18.8293 14.6569 18.7383 14.6569C18.6473 14.6569 18.5735 14.7306 18.5735 14.8215C18.5735 14.9124 18.6473 14.9861 18.7383 14.9861Z" fill="#46164D"/>
<path d="M19.1198 14.5703C19.1916 14.5703 19.2498 14.5122 19.2498 14.4404C19.2498 14.3686 19.1916 14.3105 19.1198 14.3105C19.0479 14.3105 18.9897 14.3686 18.9897 14.4404C18.9897 14.5122 19.0479 14.5703 19.1198 14.5703Z" fill="#46164D"/>
<path d="M19.5012 14.1719C19.5635 14.1719 19.6139 14.1214 19.6139 14.0592C19.6139 13.997 19.5635 13.9466 19.5012 13.9466C19.439 13.9466 19.3885 13.997 19.3885 14.0592C19.3885 14.1214 19.439 14.1719 19.5012 14.1719Z" fill="#46164D"/>
<path d="M15.6166 18.8409C15.7363 18.8409 15.8333 18.744 15.8333 18.6244C15.8333 18.5048 15.7363 18.4078 15.6166 18.4078C15.4968 18.4078 15.3998 18.5048 15.3998 18.6244C15.3998 18.744 15.4968 18.8409 15.6166 18.8409Z" fill="#46164D"/>
<path d="M15.3217 19.3174C15.4223 19.3174 15.5038 19.2359 15.5038 19.1355C15.5038 19.035 15.4223 18.9536 15.3217 18.9536C15.2212 18.9536 15.1396 19.035 15.1396 19.1355C15.1396 19.2359 15.2212 19.3174 15.3217 19.3174Z" fill="#46164D"/>
<path d="M15.0531 19.7678C15.144 19.7678 15.2178 19.6941 15.2178 19.6032C15.2178 19.5123 15.144 19.4387 15.0531 19.4387C14.9621 19.4387 14.8883 19.5123 14.8883 19.6032C14.8883 19.6941 14.9621 19.7678 15.0531 19.7678Z" fill="#46164D"/>
<path d="M14.7841 20.1923C14.856 20.1923 14.9142 20.1341 14.9142 20.0624C14.9142 19.9906 14.856 19.9324 14.7841 19.9324C14.7123 19.9324 14.6541 19.9906 14.6541 20.0624C14.6541 20.1341 14.7123 20.1923 14.7841 20.1923Z" fill="#46164D"/>
<path d="M14.5153 20.6427C14.5776 20.6427 14.628 20.5923 14.628 20.5301C14.628 20.4679 14.5776 20.4175 14.5153 20.4175C14.4531 20.4175 14.4026 20.4679 14.4026 20.5301C14.4026 20.5923 14.4531 20.6427 14.5153 20.6427Z" fill="#46164D"/>
<path d="M17.5329 15.5232C17.6526 15.5232 17.7497 15.4262 17.7497 15.3066C17.7497 15.187 17.6526 15.0901 17.5329 15.0901C17.4132 15.0901 17.3161 15.187 17.3161 15.3066C17.3161 15.4262 17.4132 15.5232 17.5329 15.5232Z" fill="#46164D"/>
<path d="M17.8277 14.9775C17.9283 14.9775 18.0098 14.896 18.0098 14.7955C18.0098 14.6951 17.9283 14.6136 17.8277 14.6136C17.7272 14.6136 17.6456 14.6951 17.6456 14.7955C17.6456 14.896 17.7272 14.9775 17.8277 14.9775Z" fill="#46164D"/>
<path d="M18.0965 14.501C18.1874 14.501 18.2612 14.4273 18.2612 14.3364C18.2612 14.2455 18.1874 14.1719 18.0965 14.1719C18.0055 14.1719 17.9317 14.2455 17.9317 14.3364C17.9317 14.4273 18.0055 14.501 18.0965 14.501Z" fill="#46164D"/>
<path d="M18.3654 13.9986C18.4372 13.9986 18.4955 13.9404 18.4955 13.8686C18.4955 13.7969 18.4372 13.7387 18.3654 13.7387C18.2936 13.7387 18.2354 13.7969 18.2354 13.8686C18.2354 13.9404 18.2936 13.9986 18.3654 13.9986Z" fill="#46164D"/>
<path d="M18.6342 13.5135C18.6965 13.5135 18.7469 13.4631 18.7469 13.4009C18.7469 13.3387 18.6965 13.2883 18.6342 13.2883C18.572 13.2883 18.5215 13.3387 18.5215 13.4009C18.5215 13.4631 18.572 13.5135 18.6342 13.5135Z" fill="#46164D"/>
<path d="M16.0675 19.0315C16.1872 19.0315 16.2843 18.9346 16.2843 18.815C16.2843 18.6954 16.1872 18.5984 16.0675 18.5984C15.9478 18.5984 15.8507 18.6954 15.8507 18.815C15.8507 18.9346 15.9478 19.0315 16.0675 19.0315Z" fill="#46164D"/>
<path d="M15.9201 19.5686C16.0206 19.5686 16.1022 19.4872 16.1022 19.3867C16.1022 19.2862 16.0206 19.2048 15.9201 19.2048C15.8195 19.2048 15.738 19.2862 15.738 19.3867C15.738 19.4872 15.8195 19.5686 15.9201 19.5686Z" fill="#46164D"/>
<path d="M15.7813 20.071C15.8723 20.071 15.9461 19.9973 15.9461 19.9064C15.9461 19.8155 15.8723 19.7418 15.7813 19.7418C15.6903 19.7418 15.6166 19.8155 15.6166 19.9064C15.6166 19.9973 15.6903 20.071 15.7813 20.071Z" fill="#46164D"/>
<path d="M15.6426 20.5561C15.7144 20.5561 15.7726 20.4979 15.7726 20.4262C15.7726 20.3544 15.7144 20.2962 15.6426 20.2962C15.5707 20.2962 15.5125 20.3544 15.5125 20.4262C15.5125 20.4979 15.5707 20.5561 15.6426 20.5561Z" fill="#46164D"/>
<path d="M15.5038 21.0586C15.5661 21.0586 15.6166 21.0081 15.6166 20.9459C15.6166 20.8837 15.5661 20.8333 15.5038 20.8333C15.4416 20.8333 15.3911 20.8837 15.3911 20.9459C15.3911 21.0081 15.4416 21.0586 15.5038 21.0586Z" fill="#46164D"/>
<path d="M17.0647 15.3326C17.1844 15.3326 17.2815 15.2357 17.2815 15.1161C17.2815 14.9965 17.1844 14.8995 17.0647 14.8995C16.945 14.8995 16.8479 14.9965 16.8479 15.1161C16.8479 15.2357 16.945 15.3326 17.0647 15.3326Z" fill="#46164D"/>
<path d="M17.2121 14.7262C17.3127 14.7262 17.3942 14.6448 17.3942 14.5443C17.3942 14.4439 17.3127 14.3624 17.2121 14.3624C17.1116 14.3624 17.03 14.4439 17.03 14.5443C17.03 14.6448 17.1116 14.7262 17.2121 14.7262Z" fill="#46164D"/>
<path d="M17.3508 14.1978C17.4418 14.1978 17.5155 14.1241 17.5155 14.0332C17.5155 13.9423 17.4418 13.8687 17.3508 13.8687C17.2598 13.8687 17.186 13.9423 17.186 14.0332C17.186 14.1241 17.2598 14.1978 17.3508 14.1978Z" fill="#46164D"/>
<path d="M17.4897 13.6434C17.5615 13.6434 17.6198 13.5853 17.6198 13.5135C17.6198 13.4417 17.5615 13.3836 17.4897 13.3836C17.4179 13.3836 17.3596 13.4417 17.3596 13.5135C17.3596 13.5853 17.4179 13.6434 17.4897 13.6434Z" fill="#46164D"/>
<path d="M17.6369 13.1064C17.6991 13.1064 17.7496 13.0559 17.7496 12.9938C17.7496 12.9316 17.6991 12.8811 17.6369 12.8811C17.5746 12.8811 17.5242 12.9316 17.5242 12.9938C17.5242 13.0559 17.5746 13.1064 17.6369 13.1064Z" fill="#46164D"/>
<path d="M20.1083 11.0274C20.1777 11.3392 20.2211 11.6597 20.2211 11.9976C20.2211 12.0582 20.2211 12.1188 20.2124 12.1795C20.2731 12.1535 20.3251 12.1362 20.3858 12.1188C20.6806 12.0236 20.9754 11.9629 21.2703 11.9369C21.99 10.1784 22.727 8.98301 23.386 8.18606C23.2559 8.09077 23.1259 7.98683 22.9958 7.9002C22.4409 8.76645 21.5477 9.82328 20.1083 11.0274Z" fill="#EC1C80"/>
<path d="M10.2493 19.8718C10.362 19.6379 10.4921 19.4127 10.6481 19.1961C10.6828 19.1441 10.7175 19.1008 10.7609 19.0488C10.7002 19.0315 10.6395 19.0142 10.5874 18.9969C10.2493 18.8843 9.93712 18.737 9.6423 18.5464C8.19423 19.43 7.01497 19.9238 6.06982 20.1923C6.11318 20.3396 6.16521 20.4868 6.21723 20.6341C7.17105 20.2876 8.48038 19.9931 10.2493 19.8718Z" fill="#EC1C80"/>
<path d="M11.9748 11.9369C12.261 11.9716 12.5471 12.0236 12.8246 12.1189C12.8853 12.1362 12.9373 12.1622 12.998 12.1795C12.998 12.1189 12.9893 12.0582 12.9893 11.9976C12.9893 11.6511 13.0327 11.3132 13.1194 10.9841C11.6973 9.77998 10.8129 8.73181 10.2579 7.86556C10.1279 7.96085 9.9978 8.05614 9.86774 8.15142C10.5267 8.9657 11.2638 10.1698 11.9748 11.9369Z" fill="#EC1C80"/>
<path d="M23.5073 18.5897C23.2299 18.7543 22.9437 18.8929 22.6316 18.9969C22.5709 19.0142 22.5188 19.0315 22.4581 19.0489C22.4928 19.1008 22.5362 19.1441 22.5709 19.1961C22.7443 19.43 22.883 19.6812 22.9957 19.9324C24.7473 20.0624 26.0306 20.3656 26.9758 20.7121C27.0278 20.5648 27.0798 20.4175 27.1318 20.2703C26.1694 20.0017 24.9727 19.4906 23.5073 18.5897Z" fill="#EC1C80"/>
<path d="M16.7874 27.9279C16.7614 26.9491 16.8827 25.6843 17.2816 24.0731C17.0735 23.8825 16.8827 23.6746 16.7093 23.4408C16.6746 23.3888 16.64 23.3368 16.6053 23.2935C16.5706 23.3455 16.5359 23.3974 16.5012 23.4408C16.3105 23.7006 16.0937 23.9259 15.8596 24.1338C16.2411 25.719 16.3538 26.9577 16.3278 27.9279C16.4232 27.9279 16.5099 27.9366 16.6053 27.9366C16.666 27.9366 16.7267 27.9279 16.7874 27.9279Z" fill="#EC1C80"/>
<path d="M31.6755 13.7561C32.3519 12.6126 32.7768 11.7983 32.7768 11.7983C32.7768 11.7983 31.979 11.3912 30.7824 10.8801C30.713 11.5038 30.4876 12.1275 30.1147 12.7252C30.7391 12.9678 31.268 13.3143 31.6755 13.7561Z" fill="#EC1C80"/>
<path d="M24.9034 28.5603C24.8601 29.2186 24.6953 29.825 24.4178 30.3448C25.6665 30.622 26.5423 30.7606 26.5423 30.7606C26.5423 30.7606 26.6723 29.903 26.7937 28.6383C26.1954 28.7509 25.5624 28.7249 24.9034 28.5603Z" fill="#EC1C80"/>
<path d="M3.10428 12.6299C2.72275 12.0322 2.49731 11.3912 2.42794 10.7588C1.23133 11.2699 0.433594 11.6771 0.433594 11.6771C0.433594 11.6771 0.858476 12.5 1.54349 13.6521C1.9597 13.2277 2.48864 12.8812 3.10428 12.6299Z" fill="#EC1C80"/>
<path d="M16.6398 2.87595C17.0907 2.33021 17.6109 1.92308 18.1832 1.67186C17.2988 0.658351 16.6484 0 16.6484 0C16.6484 0 15.9894 0.658351 15.105 1.67186C15.6686 1.93174 16.1889 2.33888 16.6398 2.87595Z" fill="#EC1C80"/>
<path d="M6.29529 28.5863C6.41668 29.8423 6.54675 30.6999 6.54675 30.6999C6.54675 30.6999 7.42252 30.5613 8.6885 30.2755C8.41969 29.7557 8.25495 29.158 8.21159 28.5083C7.55259 28.6729 6.90226 28.6989 6.29529 28.5863Z" fill="#EC1C80"/>
<path d="M16.6052 18.3299C17.3187 18.3299 17.8971 17.752 17.8971 17.0392C17.8971 16.3263 17.3187 15.7485 16.6052 15.7485C15.8916 15.7485 15.3132 16.3263 15.3132 17.0392C15.3132 17.752 15.8916 18.3299 16.6052 18.3299Z" fill="#EC1C80"/>
<path d="M58.2555 23.4536C58.2555 24.2765 57.9607 24.9786 57.3713 25.575C56.7819 26.1638 56.0715 26.4583 55.2478 26.4583V19.2863C55.2478 17.3083 55.9582 15.6248 57.3864 14.2357C58.8147 12.8465 60.515 12.152 62.4949 12.152H66.7192C66.7192 12.9371 66.4396 13.609 65.888 14.1602C65.3363 14.7113 64.6637 14.9906 63.8778 14.9906H62.5025C61.3236 14.9906 60.3185 15.4134 59.4948 16.2514C58.6711 17.0894 58.263 18.101 58.263 19.2787V23.4536H58.2555Z" fill="url(#paint0_linear_119_2817)"/>
<path d="M83.3218 29.1534C82.7324 29.7423 82.022 30.0367 81.1983 30.0367V19.324C81.1983 17.346 81.9087 15.6549 83.3369 14.2583C84.7652 12.8541 86.4655 12.1595 88.4454 12.1595C90.4253 12.1595 92.1332 12.8616 93.5614 14.2583C94.9897 15.6625 95.7076 17.346 95.7076 19.324C95.7076 21.302 94.9973 22.9855 93.569 24.3746C92.1407 25.7637 90.4329 26.4583 88.4378 26.4583H84.1984V27.032C84.206 27.8549 83.9112 28.557 83.3218 29.1534ZM88.453 23.6121C89.6318 23.6121 90.6369 23.1893 91.4531 22.3513C92.2692 21.5133 92.6773 20.5017 92.6773 19.324C92.6773 18.1463 92.2692 17.1271 91.4531 16.274C90.6369 15.4209 89.6394 14.9981 88.453 14.9981C87.2741 14.9981 86.269 15.4209 85.4529 16.274C84.6367 17.1271 84.2286 18.1387 84.2286 19.324V23.6121H88.453Z" fill="url(#paint1_linear_119_2817)"/>
<path d="M51.9605 9.46436C52.55 8.8755 53.2603 8.58107 54.084 8.58107V19.2938C54.084 21.2718 53.3737 22.9628 51.9454 24.3595C50.5172 25.7637 48.8168 26.4583 46.8369 26.4583C44.857 26.4583 43.1491 25.7562 41.7209 24.3595C40.2926 22.9553 39.5747 21.2718 39.5747 19.2938C39.5747 17.3158 40.2851 15.6323 41.7133 14.2432C43.1416 12.8541 44.8495 12.1595 46.8445 12.1595H51.0839V11.5858C51.0764 10.7629 51.3711 10.0532 51.9605 9.46436ZM46.8294 14.9981C45.6505 14.9981 44.6454 15.4209 43.8293 16.2589C43.0131 17.0969 42.605 18.1085 42.605 19.2862C42.605 20.464 43.0131 21.4831 43.8293 22.3362C44.6454 23.1893 45.6429 23.6121 46.8294 23.6121C48.0083 23.6121 49.0133 23.1893 49.8295 22.3362C50.6456 21.4831 51.0537 20.4715 51.0537 19.2862V14.9981H46.8294Z" fill="url(#paint2_linear_119_2817)"/>
<path d="M107.202 10.4458C105.615 8.97365 104.413 8.53578 102.199 8.53578H96.947V17.0743V17.7613V26.2997H102.199C104.413 26.2997 105.615 25.8694 107.202 24.3897C108.789 22.9176 109.575 21.1283 109.575 19.022V17.9274V16.9006V15.8059C109.575 13.7072 108.781 11.918 107.202 10.4458ZM105.184 21.9437C104.277 22.8345 103.166 23.2799 101.851 23.2799H99.9018V17.6405V17.1875V11.5556H101.851C103.166 11.5556 104.277 12.001 105.184 12.8918C106.091 13.7827 106.544 14.8547 106.544 16.1155L106.552 17.4215L106.544 18.7276C106.544 19.9733 106.091 21.0528 105.184 21.9437Z" fill="url(#paint3_linear_119_2817)"/>
<path d="M77.9792 14.2583C76.5509 12.8541 74.8506 12.1595 72.8707 12.1595C70.8907 12.1595 69.1904 12.8616 67.7697 14.2583C66.349 15.6625 65.6387 17.346 65.6387 19.324C65.6387 21.302 66.349 22.9855 67.7697 24.3746C69.1904 25.7637 70.8907 26.4583 72.8707 26.4583C74.8506 26.4583 76.5509 25.7637 77.9792 24.3746C79.4074 22.9855 80.1178 21.302 80.1178 19.324C80.1178 17.346 79.4074 15.6549 77.9792 14.2583ZM70.7774 24.0877C67.1878 18.3954 68.5708 16.1532 68.5708 16.1532C69.2584 14.6886 71.0041 14.0544 72.4701 14.7414C73.3241 15.1416 73.838 15.9343 74.0344 16.7798C74.8128 16.3872 75.8103 16.2966 76.6642 16.6968C78.1303 17.3838 78.7651 19.1277 78.0774 20.5923C78.0698 20.5923 77.4502 23.1893 70.7774 24.0877Z" fill="url(#paint4_linear_119_2817)"/>
<defs>
<linearGradient id="paint0_linear_119_2817" x1="60.9884" y1="26.1971" x2="60.9884" y2="14.7619" gradientUnits="userSpaceOnUse">
<stop stop-color="#4D3292"/>
<stop offset="0.1223" stop-color="#543191"/>
<stop offset="0.2958" stop-color="#662F8F"/>
<stop offset="0.5" stop-color="#852A8C"/>
<stop offset="0.7275" stop-color="#AF2487"/>
<stop offset="0.9716" stop-color="#E51D81"/>
<stop offset="1" stop-color="#EC1C80"/>
</linearGradient>
<linearGradient id="paint1_linear_119_2817" x1="88.4589" y1="26.1971" x2="88.4589" y2="14.7619" gradientUnits="userSpaceOnUse">
<stop stop-color="#4D3292"/>
<stop offset="0.1223" stop-color="#543191"/>
<stop offset="0.2958" stop-color="#662F8F"/>
<stop offset="0.5" stop-color="#852A8C"/>
<stop offset="0.7275" stop-color="#AF2487"/>
<stop offset="0.9716" stop-color="#E51D81"/>
<stop offset="1" stop-color="#EC1C80"/>
</linearGradient>
<linearGradient id="paint2_linear_119_2817" x1="46.8225" y1="26.1971" x2="46.8225" y2="14.7619" gradientUnits="userSpaceOnUse">
<stop stop-color="#4D3292"/>
<stop offset="0.1223" stop-color="#543191"/>
<stop offset="0.2958" stop-color="#662F8F"/>
<stop offset="0.5" stop-color="#852A8C"/>
<stop offset="0.7275" stop-color="#AF2487"/>
<stop offset="0.9716" stop-color="#E51D81"/>
<stop offset="1" stop-color="#EC1C80"/>
</linearGradient>
<linearGradient id="paint3_linear_119_2817" x1="103.261" y1="26.1971" x2="103.261" y2="14.7619" gradientUnits="userSpaceOnUse">
<stop stop-color="#4D3292"/>
<stop offset="0.1223" stop-color="#543191"/>
<stop offset="0.2958" stop-color="#662F8F"/>
<stop offset="0.5" stop-color="#852A8C"/>
<stop offset="0.7275" stop-color="#AF2487"/>
<stop offset="0.9716" stop-color="#E51D81"/>
<stop offset="1" stop-color="#EC1C80"/>
</linearGradient>
<linearGradient id="paint4_linear_119_2817" x1="75.3218" y1="25.7772" x2="71.2626" y2="15.0388" gradientUnits="userSpaceOnUse">
<stop stop-color="#4D3292"/>
<stop offset="0.1223" stop-color="#543191"/>
<stop offset="0.2958" stop-color="#662F8F"/>
<stop offset="0.5" stop-color="#852A8C"/>
<stop offset="0.7275" stop-color="#AF2487"/>
<stop offset="0.9716" stop-color="#E51D81"/>
<stop offset="1" stop-color="#EC1C80"/>
</linearGradient>
</defs>
</svg>
