<svg width="40" height="40" viewBox="0 0 40 40" fill="none" xmlns="http://www.w3.org/2000/svg">
<path d="M19.9437 7.01227C21.9319 7.01227 23.5223 8.65067 23.5223 10.6859C23.5223 12.7221 21.9319 14.3605 19.9437 14.3605C17.9543 14.3605 16.3639 12.7221 16.3639 10.6859C16.3639 8.65067 18.0045 7.01227 19.9437 7.01227ZM19.9437 15.2544C22.429 15.2544 24.4173 13.2181 24.4173 10.6859C24.4173 8.1536 22.429 6.11841 19.9437 6.11841C17.4573 6.11841 15.469 8.1536 15.469 10.6859C15.469 13.2181 17.5074 15.2544 19.9437 15.2544Z" fill="#4E3292"/>
<path d="M11.79 9.84213H12.685C13.0828 9.84213 13.3314 9.64373 13.3804 9.3952C13.5298 8.50133 13.8786 7.6576 14.3756 6.91306C14.5239 6.66453 14.5239 6.36587 14.3255 6.16853L13.6791 5.52213L14.8226 4.33067L15.4188 4.97599C15.6183 5.17546 15.966 5.22454 16.1644 5.02614C16.9111 4.53014 17.7058 4.18134 18.6007 3.984C18.8994 3.93387 19.0978 3.68533 19.0978 3.38773V2.49386H20.6892V3.38773C20.6892 3.68533 20.8876 3.93387 21.1863 3.984C22.0812 4.18134 22.8759 4.53014 23.6226 5.02614C23.8711 5.17547 24.1687 5.17546 24.3682 4.97599L24.9644 4.33067L26.1079 5.52213L25.4615 6.16853C25.2631 6.36587 25.213 6.66453 25.4114 6.91306C25.9084 7.6576 26.2572 8.50133 26.4066 9.3952C26.4556 9.6928 26.7042 9.89227 27.0028 9.89227H27.8978V11.5797H27.0028C26.7042 11.5797 26.4556 11.7781 26.4066 12.0768C26.2572 12.9696 25.9084 13.8144 25.4114 14.5589C25.2631 14.8075 25.2631 15.1051 25.4615 15.3035L26.1079 15.9488L24.9644 17.1403L24.318 16.4949C24.1196 16.2965 23.7708 16.2464 23.5724 16.4459C22.8268 16.9419 22.0311 17.2896 21.1362 17.488C20.8386 17.5381 20.6391 17.7856 20.6391 18.0843V19.0272H19.0487V18.0843C19.0487 17.7856 18.8492 17.5381 18.5516 17.488C17.7058 17.2896 16.861 16.9419 16.1154 16.4459C15.8668 16.2965 15.5682 16.2965 15.3698 16.4949L14.7234 17.1403L13.5799 15.9488L14.2263 15.3035C14.4247 15.1051 14.4748 14.8075 14.2754 14.5589C13.7783 13.8144 13.4306 12.9696 13.2812 12.0768C13.2322 11.7781 12.9836 11.5797 12.685 11.5797H11.79V9.84213ZM11.6407 12.4235H12.5858C12.7842 13.2672 13.0828 14.0619 13.5298 14.8075L12.8343 15.5019C12.5858 15.7504 12.5858 16.0981 12.8343 16.3456L14.4247 17.9349C14.5239 18.0341 14.6732 18.1333 14.8727 18.1333C15.021 18.1333 15.1703 18.0843 15.3196 17.9349L16.0162 17.2395C16.7116 17.6864 17.5074 18.0341 18.3031 18.2325V19.2256C18.3031 19.5733 18.5516 19.8219 18.8994 19.8219H21.1362C21.4839 19.8219 21.7324 19.5733 21.7324 19.2256V18.2325C22.5282 18.0341 23.3239 17.7365 24.0194 17.2395L24.7159 17.9349C24.8151 18.0341 24.9644 18.1333 25.1628 18.1333C25.3122 18.1333 25.4615 18.0843 25.6108 17.9349L27.2012 16.3456C27.4498 16.0981 27.4498 15.7504 27.2012 15.5019L26.5058 14.8075C26.9527 14.0619 27.3004 13.2672 27.4498 12.4235H28.3948C28.7426 12.4235 28.9911 12.176 28.9911 11.8283V9.54454C28.9911 9.1968 28.7426 8.94826 28.3948 8.94826H27.4498C27.2514 8.10453 26.9527 7.30986 26.5058 6.56533L27.2012 5.86986C27.4498 5.62133 27.4498 5.27467 27.2012 5.02614L25.6108 3.4368C25.5116 3.3376 25.3623 3.2384 25.1628 3.2384C25.0146 3.2384 24.8652 3.28853 24.7159 3.4368L24.0695 4.13227C23.373 3.68534 22.5783 3.3376 21.7324 3.1392V2.19627C21.7324 1.84853 21.4839 1.59999 21.1362 1.59999H18.8994C18.5516 1.59999 18.3031 1.84853 18.3031 2.19627V3.1392C17.4572 3.3376 16.7116 3.68534 15.966 4.13227L15.3196 3.4368C15.2204 3.3376 15.0711 3.2384 14.8727 3.2384C14.7234 3.2384 14.574 3.28853 14.4247 3.4368L12.8343 5.02614C12.5858 5.27467 12.5858 5.62133 12.8343 5.86986L13.5298 6.56533C13.0828 7.30986 12.7351 8.10453 12.5858 8.94826H11.6407C11.293 8.94826 11.0444 9.1968 11.0444 9.54454V11.8283C11.0444 12.176 11.293 12.4235 11.6407 12.4235Z" fill="#4E3292"/>
<path d="M9.06667 30.1781C9.06667 25.5691 12.816 21.8197 17.4251 21.8197H17.6277L18.3221 24.8331C18.3232 24.8373 18.3243 24.8405 18.3253 24.8448C18.3701 25.0197 18.4704 25.1765 18.6112 25.2917L16.896 32.5355C16.8597 32.6891 16.9024 32.8512 17.0091 32.9664L19.456 35.6224C19.5456 35.7195 19.6715 35.7749 19.8027 35.776H19.8059C19.936 35.776 20.0608 35.7216 20.1504 35.6266L22.6581 32.9707C22.768 32.8555 22.8117 32.6912 22.7755 32.5355L22.7157 32.2837C22.7157 32.2837 22.7168 32.2837 22.7179 32.2837L21.0603 25.2917C21.2 25.1765 21.3003 25.0197 21.3451 24.8448C21.3461 24.8405 21.3472 24.8373 21.3483 24.8331L22.0427 21.8197H22.1675C26.7755 21.8197 30.5259 25.5691 30.5259 30.1781V35.5125C30.5259 36.5259 29.7013 37.3504 28.688 37.3504H20.3381H19.2544H10.9045C9.8912 37.3504 9.06667 36.5259 9.06667 35.5125V30.1781ZM21.7344 32.2837C21.7355 32.2827 21.7376 32.2827 21.7387 32.2827L21.792 32.5056L19.8091 34.6048L17.8784 32.5088L19.5403 25.4901H20.1312L21.7344 32.2837ZM21.0677 21.8197L20.4405 24.5408H19.2299L18.6037 21.8197H21.0677ZM10.9045 38.4171H28.688C30.2891 38.4171 31.5925 37.1147 31.5925 35.5125V30.1781C31.5925 25.7376 28.4395 21.8571 24.0949 20.9504L23.3707 20.8H16.2219L15.4965 20.9504C11.1531 21.8571 8 25.7376 8 30.1781V35.5125C8 37.1147 9.3024 38.4171 10.9045 38.4171Z" fill="#4E3292"/>
<path d="M24.0192 28.5739H27.8304C28.4725 28.5739 28.4725 27.6117 27.8304 27.6117H24.0192C23.3771 27.6117 23.3771 28.5739 24.0192 28.5739Z" fill="#4E3292"/>
</svg>
