<svg width="35" height="34" viewBox="0 0 35 34" fill="none" xmlns="http://www.w3.org/2000/svg">
<path d="M19.8979 8.9164C19.2325 7.65097 18.0042 6.79988 16.6005 6.79988C15.0381 6.79988 13.5895 7.6729 12.7253 9.13563C12.5806 9.38034 12.6683 9.69269 12.9203 9.83331C13.1723 9.97393 13.4943 9.88925 13.6381 9.64455C14.3129 8.50341 15.4198 7.82232 16.6005 7.82232C18.1283 7.82232 19.3715 9.28505 19.3715 11.0831C19.3715 11.3654 19.6077 11.5942 19.8979 11.5942C20.1891 11.5942 20.4243 11.3654 20.4243 11.0831C20.4243 9.28505 21.6675 7.82232 23.1954 7.82232C23.8627 7.82232 24.5142 8.03802 25.0789 8.44638C25.3122 8.61457 25.6426 8.56751 25.8153 8.34085C25.9889 8.11418 25.9403 7.79404 25.707 7.6254C24.9594 7.0853 24.0905 6.79988 23.1954 6.79988C21.7926 6.79988 20.5634 7.65097 19.8979 8.9164Z" fill="#4E3292"/>
<path d="M5.59262 23.2532L6.02195 23.0707C6.43821 22.893 6.90581 22.8714 7.33888 23.0098L18.1292 26.4637C18.6612 26.6344 19.2137 26.719 19.7662 26.719C20.4522 26.719 21.1364 26.588 21.7794 26.3273L26.3798 24.4629C26.6477 24.3542 26.7746 24.0549 26.6626 23.7943C26.5506 23.534 26.2426 23.4107 25.9738 23.5195L21.3743 25.3835C20.4475 25.7596 19.4125 25.7982 18.4577 25.4925L7.66835 22.0391C6.98888 21.8213 6.25342 21.8553 5.59916 22.1343L5.17075 22.3164C4.90475 22.4297 4.78342 22.7311 4.90009 22.9896C5.01676 23.2485 5.32662 23.3665 5.59262 23.2532Z" fill="#4E3292"/>
<path d="M29.6409 17.3151L29.3712 17.9519L26.5385 18.9149L27.7397 16.4916C27.9758 16.015 28.5564 15.7947 29.0622 15.9898C29.0622 15.9898 29.0688 15.9926 29.0697 15.993C29.3282 16.0946 29.5298 16.288 29.6381 16.5381C29.7464 16.7881 29.7473 17.064 29.6409 17.3151ZM13.9693 17.9558C13.4793 17.7893 13.2002 17.2779 13.3328 16.792C13.3972 16.5526 13.5521 16.3521 13.7649 16.2225C14.5041 17.0991 15.4496 17.9551 16.5798 18.7718C16.6424 18.8171 16.7058 18.8618 16.7693 18.9064L13.9693 17.9558ZM33.4928 18.94L33.489 18.9312C33.0158 17.8644 31.8221 17.2879 30.6788 17.5276C30.8244 17.0722 30.8001 16.5866 30.6078 16.1421C30.3913 15.6396 29.9853 15.2503 29.4654 15.0452C29.4645 15.0449 29.4514 15.04 29.4505 15.0396C28.4332 14.6472 27.2656 15.0902 26.7914 16.0479L25.1338 19.3923L22.4458 20.3057C21.9446 20.4761 21.3921 20.4761 20.8918 20.3061L20.8153 20.2799C24.1996 18.4478 27.8442 15.3311 27.8442 12.0259C27.8442 10.8738 27.5185 9.78267 26.9025 8.87038C26.7438 8.6341 26.4172 8.56828 26.1745 8.72341C25.9309 8.87817 25.8637 9.19515 26.0224 9.43097C26.5264 10.1765 26.7924 11.0739 26.7924 12.0259C26.7924 14.8303 23.3689 17.8202 19.8978 19.6002C18.9673 19.1231 18.0424 18.5565 17.2089 17.9519C16.4977 17.438 15.8537 16.8961 15.2993 16.3482L20.6613 18.1293C21.7225 18.4828 22.905 17.977 23.354 16.9786C23.5929 16.447 23.5948 15.8354 23.3568 15.3003C23.1234 14.7732 22.6913 14.3706 22.1416 14.1669L12.6253 10.621C12.5572 10.5944 12.4825 10.5678 12.3901 10.5374C10.5234 9.91404 8.39451 10.1985 6.69678 11.2978L1.63437 14.5739C1.39263 14.7304 1.3273 15.0478 1.48784 15.2829C1.6493 15.5177 1.97597 15.5814 2.2177 15.4249L7.28011 12.1489C8.70718 11.2252 10.4898 10.9844 12.0485 11.5046C12.125 11.5298 12.1848 11.551 12.2426 11.5733L21.7654 15.1218C22.0482 15.2266 22.2704 15.4337 22.3908 15.7051C22.5149 15.9849 22.514 16.2915 22.3889 16.5692C22.1584 17.0839 21.5489 17.3442 21.002 17.1621L14.9614 15.1554C14.4789 14.995 13.9544 15.0148 13.4858 15.211C12.9034 15.455 12.4769 15.9359 12.3145 16.5306C12.0429 17.529 12.6169 18.5788 13.6212 18.9209L20.5446 21.2711C21.2689 21.5169 22.0669 21.5169 22.793 21.2711L30.7301 18.5731C31.4385 18.3319 32.2253 18.6673 32.5249 19.3409L32.5277 19.3466C32.677 19.6905 32.6789 20.0702 32.5342 20.4159C32.3886 20.7622 32.1124 21.032 31.7568 21.1762L27.5185 22.8936C27.2506 23.0023 27.1237 23.3016 27.2357 23.5623C27.3197 23.7585 27.5157 23.8767 27.721 23.8767C27.7892 23.8767 27.8573 23.864 27.9236 23.8375L32.1628 22.1198C32.7778 21.8704 33.2566 21.4025 33.5086 20.8026C33.7606 20.203 33.756 19.5446 33.4965 18.9485C33.4965 18.9471 33.4937 18.9414 33.4928 18.94Z" fill="#4E3292"/>
</svg>
