<svg width="40" height="40" viewBox="0 0 40 40" fill="none" xmlns="http://www.w3.org/2000/svg">
<path d="M27.5958 8.2604L27.4719 9.75524L30.0313 9.9662L27.3298 12.6635C25.5749 11.2367 23.3045 10.7487 21.1973 11.1985C20.9362 10.5857 20.5868 10.0006 20.1499 9.46383L22.8514 6.76624L23.0626 9.32268L24.5593 9.19907L24.1609 4.39776L19.3541 4L19.2303 5.49493L21.7896 5.7058L19.0891 8.40424C16.2274 6.07775 11.9966 6.24556 9.3326 8.90651C6.48907 11.7469 6.48907 16.3687 9.3326 19.2098C9.48909 19.3664 9.65324 19.5102 9.81932 19.6492C9.96716 19.1323 10.1755 18.6423 10.4376 18.185C10.4241 18.1715 10.4068 18.1629 10.3934 18.1495C8.13547 15.893 8.13547 12.2234 10.3934 9.96725C12.6523 7.71201 16.3272 7.71201 18.5851 9.96725C19.0911 10.4726 19.4837 11.0487 19.7621 11.6645C18.9682 12.0162 18.2242 12.517 17.5733 13.1669C17.0674 13.6722 16.6622 14.237 16.3368 14.8356C16.8101 14.845 17.2738 14.8996 17.7192 15.0034C17.8066 15.0292 17.8805 15.0513 17.9496 15.0716C18.1503 14.7749 18.373 14.4895 18.6351 14.2277C19.1045 13.7587 19.6354 13.3875 20.2018 13.1133C20.3592 14.0703 20.2671 15.057 19.9436 15.9796C20.3852 16.2807 20.7836 16.6402 21.1407 17.0362C21.7608 15.6487 21.9308 14.1078 21.6399 12.6388C23.462 12.2926 25.4194 12.8219 26.8268 14.2277C29.0847 16.483 29.0847 20.1538 26.8268 22.409C25.6969 23.5376 24.2146 24.1014 22.7304 24.1014C22.596 24.1014 22.4626 24.0717 22.3272 24.0621C22.1746 24.416 22.02 24.7093 22.0114 24.7074C21.8568 24.9816 21.6783 25.2397 21.4882 25.4888C21.8991 25.5588 22.3148 25.6 22.7304 25.6C24.5986 25.6 26.4658 24.8895 27.8876 23.4695C30.5526 20.8085 30.7206 16.5826 28.3916 13.7242L31.0921 11.0266L31.3043 13.583L32.7999 13.4594L32.4025 8.65816L27.5958 8.2604Z" fill="#4E3292"/>
<path d="M17.1463 20.878C17.9791 20.497 18.7596 19.9567 19.4424 19.2552C19.7425 18.9458 20.0013 18.6113 20.242 18.2675C19.9177 17.8287 19.537 17.4391 19.106 17.1131C18.8814 17.4642 18.6287 17.8015 18.3286 18.1102C17.8361 18.6166 17.2792 19.0174 16.685 19.3135C16.5148 18.2481 16.6236 17.1482 16.9902 16.1254C16.9771 16.1221 16.965 16.1181 16.9509 16.1161C16.5904 16.0393 16.2177 16 15.8351 16C15.6729 16 15.5138 16.0101 15.3557 16.0247C14.9962 17.2591 14.9347 18.5669 15.1754 19.826C14.7988 19.8996 14.4151 19.9368 14.0324 19.9368C12.9568 19.9368 11.8904 19.6249 10.9367 19.0441C10.6869 19.5298 10.5036 20.0569 10.3999 20.6119C11.5298 21.2384 12.7806 21.5551 14.0324 21.5551C14.5722 21.5551 15.111 21.4972 15.6407 21.3804C16.0133 22.28 16.5551 23.1229 17.2671 23.855C18.0274 24.6369 18.9096 25.2165 19.8502 25.6C20.1121 25.3153 20.3518 25.0106 20.5532 24.6762C20.6478 24.526 20.7234 24.3655 20.7999 24.2049C19.9177 23.9108 19.0808 23.4303 18.3809 22.7099C17.8502 22.1651 17.4393 21.5418 17.1463 20.878Z" fill="#4E3292"/>
<path d="M21.0588 21.343C21.0588 21.8193 20.9958 22.2814 20.8838 22.7225C20.8791 22.7421 20.8744 22.7616 20.8687 22.7816C20.8593 22.8188 20.8518 22.8561 20.8405 22.8937L20.8395 22.8907C20.7595 23.1793 20.6485 23.4564 20.5214 23.7248C20.9656 23.8752 21.4193 23.9666 21.8805 24C21.968 23.7896 22.0536 23.5578 22.1101 23.3536C22.2983 22.7175 22.4 22.0427 22.4 21.343C22.4 19.5949 21.7581 18.0057 20.7172 16.8C20.5242 17.2491 20.2814 17.6794 20 18.0901C20.6579 18.9972 21.0588 20.1195 21.0588 21.343Z" fill="#4E3292"/>
<path d="M18.3277 17.0701C18.6543 17.2207 18.9575 17.4035 19.2502 17.6C19.5639 17.161 19.8146 16.6954 20 16.2114C19.684 16.0149 19.354 15.8363 19.0088 15.6807C18.2694 15.3823 18.2543 15.3802 17.5779 15.2C17.2537 15.6356 16.9936 16.0992 16.8 16.5811C17.4181 16.6983 17.9732 16.914 18.3277 17.0701Z" fill="#4E3292"/>
<path d="M16.2882 27.0462C13.3599 27.0462 10.9764 24.6956 10.9764 21.8078C10.9764 21.4667 11.0121 21.1344 11.0758 20.8115C10.6499 20.5857 10.2433 20.3152 9.86086 20C9.69474 20.5752 9.6001 21.1802 9.6001 21.8078C9.6001 25.2158 12.2348 28.0281 15.6006 28.3692V31.4453H13.1301V32.8025H15.6006V35.2H16.9768V32.8025H19.4464V31.4453H16.9768V28.3692C18.8601 28.1787 20.5078 27.2092 21.6001 25.8002C21.1027 25.7158 20.6131 25.5841 20.1388 25.3996C19.1702 26.4089 17.8065 27.0462 16.2882 27.0462Z" fill="#4E3292"/>
<path d="M15.444 16.5285C15.5789 16.0732 15.7693 15.6327 15.9999 15.2075C15.9589 15.2064 15.9197 15.2 15.8787 15.2C13.5339 15.2 11.488 16.4948 10.3999 18.4077C10.7207 18.7237 11.0752 18.9785 11.4452 19.2C12.2225 17.7223 13.707 16.6788 15.444 16.5285Z" fill="#4E3292"/>
<path d="M11.2001 19.2725C10.8374 19.0285 10.4899 18.7479 10.1754 18.4C9.93154 18.8811 9.73767 19.3967 9.6001 19.9404C9.95387 20.2743 10.33 20.5608 10.7239 20.8C10.816 20.2592 10.9785 19.7457 11.2001 19.2725Z" fill="#4E3292"/>
<path d="M20.1549 18.4C20.408 17.9846 20.6264 17.5493 20.7999 17.0951C20.485 16.6848 20.1337 16.3121 19.7443 16C19.6097 16.4503 19.4277 16.8835 19.2 17.292C19.5623 17.6049 19.8823 17.9788 20.1549 18.4Z" fill="#4E3292"/>
<path d="M22.4 24.2535C21.9073 24.2227 21.4227 24.1386 20.9481 24C20.8717 24.1404 20.7963 24.2806 20.7018 24.4119C20.5007 24.7042 20.2614 24.9704 20 25.2193C20.4937 25.3946 21.0034 25.5198 21.5212 25.6C21.7203 25.3649 21.9073 25.1214 22.0692 24.8626C22.0783 24.8644 22.2401 24.5875 22.4 24.2535Z" fill="#4E3292"/>
<path d="M15.6988 16.6741C16.0971 16.6741 16.4848 16.7135 16.86 16.7906C16.8747 16.7926 16.8873 16.7967 16.9009 16.8C17.0749 16.3309 17.3086 15.8798 17.6 15.4558C17.5245 15.4339 17.4438 15.4099 17.3484 15.3819C16.8621 15.2694 16.3559 15.2102 15.8393 15.2C15.5741 15.6824 15.3551 16.1823 15.2 16.6988C15.3645 16.6842 15.5301 16.6741 15.6988 16.6741Z" fill="#4E3292"/>
</svg>
