<svg width="40" height="40" viewBox="0 0 40 40" fill="none" xmlns="http://www.w3.org/2000/svg">
<path d="M26.5278 14.4875V13.0171C26.5278 12.7304 26.2952 12.4984 26.0094 12.4984C25.7224 12.4984 25.491 12.7304 25.491 13.0171V14.4875C25.491 14.7742 25.7224 15.0058 26.0094 15.0058C26.2952 15.0058 26.5278 14.7742 26.5278 14.4875Z" fill="#4E3292"/>
<path d="M10.6155 29.4759C10.4896 29.2188 10.1782 29.1121 9.92109 29.2379C9.66402 29.3637 9.55736 29.6746 9.68323 29.9316C10.0566 30.6929 10.9494 31.1658 12.015 31.1658C13.0806 31.1658 13.9744 30.6929 14.3467 29.9316C14.4726 29.6746 14.3659 29.3637 14.1088 29.2379C13.8518 29.1121 13.5414 29.2188 13.4155 29.4759C13.2214 29.8724 12.672 30.1292 12.015 30.1292C11.359 30.1292 10.8096 29.8724 10.6155 29.4759Z" fill="#4E3292"/>
<path d="M14.4008 24.7708C14.1139 24.7708 13.8813 25.0029 13.8813 25.2892V26.7604C13.8813 27.0466 14.1139 27.2787 14.4008 27.2787C14.6867 27.2787 14.9192 27.0466 14.9192 26.7604V25.2892C14.9192 25.0029 14.6867 24.7708 14.4008 24.7708Z" fill="#4E3292"/>
<path d="M16.6751 23.5288C16.8745 23.3237 16.866 22.9937 16.6601 22.7958C15.7183 21.8933 14.1001 21.8608 13.1977 22.7266C12.9908 22.9246 12.9833 23.2525 13.1817 23.4595C13.3801 23.6662 13.7076 23.6733 13.9145 23.475C14.4169 22.9933 15.3972 23.0324 15.9423 23.5441C16.1503 23.7395 16.4788 23.7296 16.6751 23.5288Z" fill="#4E3292"/>
<path d="M27.839 11.2571C28.0342 11.4654 28.3627 11.4763 28.5718 11.28C28.7798 11.0837 28.7905 10.7559 28.5942 10.5471C28.0971 10.0179 27.4337 9.72577 26.7254 9.72577C26.0171 9.72577 25.3537 10.0179 24.8566 10.5471C24.6603 10.7559 24.671 11.0837 24.8801 11.28C25.0881 11.4763 25.4166 11.4663 25.6129 11.2571C25.9115 10.9388 26.3073 10.7629 26.7254 10.7629C27.1446 10.7629 27.5393 10.9388 27.839 11.2571Z" fill="#4E3292"/>
<path d="M19.1018 26.0149V24.665C19.1018 24.4746 19.2565 24.3191 19.4474 24.3191C19.6383 24.3191 19.793 24.4746 19.793 24.665V26.0149C19.793 26.5354 19.6554 26.8842 19.0421 27.01C19.0816 26.6833 19.1018 26.3508 19.1018 26.0149ZM4.23675 26.0149V24.665C4.23675 24.4746 4.39248 24.3191 4.58235 24.3191C4.77328 24.3191 4.92901 24.4746 4.92901 24.665V26.0149C4.92901 26.3508 4.94822 26.6829 4.98769 27.01C4.37542 26.8842 4.23675 26.5354 4.23675 26.0149ZM15.8805 14.9183C15.1946 14.7879 15.1946 14.3799 15.1946 14.0679V12.5629C15.1946 12.3729 15.3493 12.2175 15.5402 12.2175C15.7109 12.2175 15.8527 12.3416 15.8805 12.5045V14.9183ZM31.0911 12.5045C31.1189 12.3416 31.2608 12.2175 31.4325 12.2175C31.6224 12.2175 31.7781 12.3729 31.7781 12.5629V14.0679C31.7781 14.3799 31.7781 14.7879 31.0911 14.9183V12.5045ZM36.9546 27.2191C37.1562 27.0166 37.1562 26.6883 36.9546 26.4858C36.7519 26.2837 36.4234 26.2829 36.2207 26.4858L30.1354 32.5708L27.6362 30.0713C27.4346 29.8687 27.1061 29.8687 26.9034 30.0713C26.7007 30.2741 26.7007 30.602 26.9034 30.805L29.7695 33.6708C29.9711 33.8728 30.3007 33.8728 30.5023 33.6708L35.4357 28.7371C35.8517 29.5209 36.0693 30.3933 36.0693 31.2933C36.0693 34.3087 33.6159 36.7616 30.6005 36.7616C27.5861 36.7616 25.1327 34.3083 25.1327 31.2933C25.1327 28.2779 27.5861 25.825 30.6005 25.825C32.1514 25.825 33.2426 26.4383 33.8815 26.9183C34.1109 27.0903 34.4362 27.0446 34.6079 26.8154C34.7797 26.5862 34.7338 26.2612 34.5045 26.0892C33.6917 25.4783 32.7669 25.0737 31.7845 24.8946C28.7391 24.242 28.0426 23.3696 27.9754 21.9404C28.2922 21.6842 28.5951 21.3987 28.8799 21.0866C30.1717 19.6712 30.9578 17.8295 31.0751 15.9683C32.4981 15.7933 32.8149 14.8621 32.8149 14.0679V12.5629C32.8149 11.8008 32.1941 11.1804 31.4325 11.1804C31.3141 11.1804 31.1999 11.1954 31.0911 11.2229V10.005C31.0911 9.10793 30.9365 8.22868 30.6304 7.39284C30.5322 7.12415 30.2346 6.9858 29.9648 7.08372C29.696 7.1825 29.5584 7.47999 29.6565 7.74911C29.92 8.47039 30.0533 9.22953 30.0533 10.005V15.4787C30.0533 19.2391 26.9845 22.5379 23.4858 22.5379C19.9872 22.5379 16.9173 19.2391 16.9173 15.4787V10.005C16.9173 6.38335 19.8645 3.437 23.4858 3.437C25.4464 3.437 27.2895 4.30335 28.5429 5.81375C28.7263 6.03412 29.0527 6.06495 29.2735 5.88201C29.4933 5.69908 29.5242 5.37204 29.3407 5.15166C27.8901 3.40287 25.7557 2.39999 23.4858 2.39999C19.2917 2.39999 15.8805 5.81119 15.8805 10.005V11.2229C15.7717 11.1954 15.6575 11.1804 15.5402 11.1804C14.7775 11.1804 14.1567 11.8008 14.1567 12.5629V14.0679C14.1567 14.8621 14.4736 15.7933 15.8965 15.9683C15.9242 16.405 15.9882 16.8408 16.0874 17.27C14.9343 16.4575 13.5296 15.9799 12.0149 15.9799C9.89969 15.9799 7.91035 16.915 6.55888 18.5445C6.37542 18.765 6.40635 19.0916 6.62715 19.2745C6.84688 19.4575 7.17435 19.4271 7.35675 19.2066C8.51088 17.8149 10.209 17.0171 12.0149 17.0171C15.3504 17.0171 18.0639 19.7312 18.0639 23.0667V26.0149C18.0639 29.9746 14.9365 32.6346 12.0149 32.6346C9.09329 32.6346 5.96582 29.9746 5.96582 26.0149V23.0667C5.96582 22.3521 6.08848 21.6533 6.33168 20.9891C6.42982 20.72 6.29115 20.4221 6.02235 20.3242C5.75355 20.2258 5.45595 20.3637 5.35782 20.6328C5.07302 21.4116 4.92795 22.2308 4.92795 23.0667V23.3258C4.81808 23.2975 4.70181 23.282 4.58235 23.282C3.81968 23.282 3.19995 23.9025 3.19995 24.665V26.0149C3.19995 26.8958 3.55835 27.9329 5.19035 28.0813C5.48475 29.21 6.02129 30.2492 6.77435 31.1312C5.92849 31.1266 4.93861 31.3154 4.19408 32.0425C3.07195 33.1371 2.90556 34.9004 3.68529 37.4324C3.76956 37.7062 4.05968 37.8599 4.33382 37.7754C4.60688 37.6912 4.76048 37.4013 4.67621 37.1275C4.02235 35.0025 4.10128 33.5821 4.91835 32.7841C5.90715 31.8195 7.71301 32.2483 8.10128 32.3554C9.27461 33.2013 10.6517 33.6717 12.0149 33.6717C13.3781 33.6717 14.7541 33.2016 15.9285 32.3558C16.3157 32.2508 18.1322 31.8279 19.1125 32.7841C19.9285 33.5821 20.0074 35.0025 19.3535 37.1275C19.2693 37.4013 19.4197 37.7037 19.697 37.7754C20.0213 37.8595 20.2762 37.6554 20.3445 37.4324C21.1242 34.9004 20.9578 33.1371 19.8367 32.042C19.0911 31.315 18.1002 31.1254 17.2565 31.1312C18.0085 30.2492 18.545 29.21 18.8405 28.0813C20.4725 27.9329 20.8309 26.8958 20.8309 26.0149V24.665C20.8309 23.9021 20.2101 23.282 19.4474 23.282C19.3279 23.282 19.2127 23.2971 19.1018 23.3258V23.0667C19.1018 22.6887 19.0719 22.3174 19.0143 21.9554C20.321 23.007 21.872 23.5746 23.4858 23.5746C24.7253 23.5746 25.9274 23.2396 27.0111 22.6079C27.1551 23.3904 27.5018 24.0013 28.0725 24.4916C28.2976 24.6854 28.5589 24.8616 28.865 25.0234C26.1183 25.7845 24.096 28.3071 24.096 31.2933C24.096 34.8804 27.0143 37.7983 30.6005 37.7983C34.1877 37.7983 37.1061 34.88 37.1061 31.2933C37.1061 30.1158 36.7935 28.9775 36.1973 27.9754L36.9546 27.2191Z" fill="#4E3292"/>
<path d="M22.0916 11.28C22.3007 11.0837 22.3114 10.7559 22.1151 10.5471C21.618 10.0179 20.9535 9.72577 20.2463 9.72577C19.538 9.72577 18.8746 10.0179 18.3764 10.5471C18.1812 10.7559 18.1908 11.0837 18.3999 11.28C18.609 11.4763 18.9375 11.4654 19.1327 11.2571C19.4324 10.9388 19.8271 10.7629 20.2463 10.7629C20.6644 10.7629 21.0602 10.9388 21.3588 11.2571C21.5551 11.4663 21.8836 11.4763 22.0916 11.28Z" fill="#4E3292"/>
<path d="M10.1481 26.7604V25.2892C10.1481 25.0029 9.91559 24.7708 9.62973 24.7708C9.34279 24.7708 9.11133 25.0029 9.11133 25.2892V26.7604C9.11133 27.0466 9.34279 27.2787 9.62973 27.2787C9.91559 27.2787 10.1481 27.0466 10.1481 26.7604Z" fill="#4E3292"/>
<path d="M20.9622 12.4984C20.6764 12.4984 20.4438 12.7304 20.4438 13.0171V14.4875C20.4438 14.7742 20.6764 15.0058 20.9622 15.0058C21.2492 15.0058 21.4806 14.7742 21.4806 14.4875V13.0171C21.4806 12.7304 21.2492 12.4984 20.9622 12.4984Z" fill="#4E3292"/>
<path d="M23.4857 20.2621C24.6623 20.2621 25.7652 19.7513 26.5919 18.8234C26.7817 18.6096 26.7636 18.2816 26.5492 18.0912C26.3359 17.9008 26.0084 17.92 25.8175 18.1338C25.1913 18.8374 24.3625 19.225 23.4857 19.225C22.6089 19.225 21.7801 18.8374 21.154 18.1338C20.9631 17.92 20.6356 17.9008 20.4223 18.0912C20.2079 18.2816 20.1887 18.6096 20.3796 18.8234C21.2052 19.7513 22.3092 20.2621 23.4857 20.2621Z" fill="#4E3292"/>
<path d="M7.3706 22.7958C7.16367 22.9937 7.15513 23.3237 7.35566 23.5288C7.55086 23.7296 7.8794 23.7395 8.08846 23.5441C8.63353 23.0324 9.61273 22.9933 10.1151 23.475C10.3221 23.6733 10.6506 23.6662 10.849 23.4595C11.0474 23.2529 11.0399 22.9246 10.833 22.7266C9.92953 21.8608 8.31247 21.8933 7.3706 22.7958Z" fill="#4E3292"/>
</svg>
