<svg width="40" height="40" viewBox="0 0 40 40" fill="none" xmlns="http://www.w3.org/2000/svg">
<path d="M11.4556 37.6C11.7567 37.6 12 37.3639 12 37.072V34.8924C12 34.4766 11.8523 34.0692 11.5834 33.7452L8.96916 30.5965C8.77979 30.3698 8.43704 30.334 8.20317 30.5166C7.96836 30.6992 7.93237 31.0315 8.11985 31.2591L10.735 34.4069C10.8486 34.5446 10.9111 34.7162 10.9111 34.8924V37.072C10.9111 37.3639 11.1554 37.6 11.4556 37.6Z" fill="#4E3292"/>
<path d="M8.71457 19.9145C8.71457 19.4251 9.11981 19.0266 9.61745 19.0266C10.1151 19.0266 10.5203 19.4251 10.5203 19.9145V25.3915L8.94655 23.8779C8.79928 23.7359 8.71457 23.539 8.71457 23.3365V19.9145ZM11.6273 19.5179V11.5419L20.0005 6.14447L28.3728 11.5419V18.4293V19.5179V21.1612V22.2498V25.4795C28.2553 25.2599 28.1042 25.0564 27.9204 24.8756C26.9337 23.9054 25.3292 23.9054 24.3426 24.8756L23.7823 25.4265V22.5811C23.7823 22.4694 23.7785 22.3444 23.7669 22.2498C23.688 21.6137 23.4974 21.1612 23.4974 21.1612C22.9266 19.7934 21.5589 18.8278 19.9649 18.8278C18.3718 18.8278 17.0041 19.7934 16.4333 21.1612C16.4333 21.1612 16.2388 21.5332 16.1638 22.2498C16.1609 22.369 16.1484 22.4694 16.1484 22.5811V25.3574L15.6584 24.8756C14.6718 23.9054 13.0672 23.9054 12.0806 24.8756C11.8968 25.0564 11.7447 25.2599 11.6273 25.4795V22.2498V21.1612V19.5179ZM29.4806 19.9145C29.4806 19.4251 29.8849 19.0266 30.3826 19.0266C30.8812 19.0266 31.2854 19.4251 31.2854 19.9145V23.3365H31.2864C31.2864 23.539 31.2017 23.7359 31.0544 23.8779L29.4806 25.3915V19.9145ZM22.6754 26.5151L20.2065 28.9431C20.1324 29.016 20.064 29.0917 20.0005 29.1722C19.937 29.0917 19.8676 29.016 19.7935 28.9431L17.2553 26.446V22.5811C17.2553 21.112 18.471 19.9164 19.9649 19.9164C21.4597 19.9164 22.6754 21.112 22.6754 22.5811V26.5151ZM6.17729 29.2517C6.36884 29.4855 6.71728 29.5224 6.95503 29.3341C7.19374 29.1457 7.23128 28.803 7.03973 28.5692L5.89526 27.1702C5.38703 26.5501 5.10693 25.7692 5.10693 24.9722V18.4823C5.10693 17.8046 5.6681 17.2537 6.35729 17.2537C7.04744 17.2537 7.60764 17.8046 7.60764 18.4823V23.3365C7.60764 23.8306 7.81362 24.3114 8.17266 24.656L14.7219 30.9527C14.9404 31.1629 15.2898 31.1591 15.5044 30.9452C15.7181 30.7303 15.7142 30.3857 15.4967 30.1756L12.8766 27.6368C12.6023 27.3746 12.4493 27.0215 12.4464 26.6439C12.4435 26.2671 12.5917 25.9121 12.8632 25.6452C13.4176 25.1 14.3205 25.1 14.8749 25.6452L19.011 29.7127C19.292 29.9891 19.447 30.3564 19.447 30.7464V37.0554C19.447 37.3564 19.6944 37.6 20.0005 37.6C20.3056 37.6 20.554 37.3564 20.554 37.0554V30.7464C20.554 30.3564 20.7089 29.9891 20.989 29.7127L25.1251 25.6452C25.6795 25.1 26.5824 25.1 27.1368 25.6452C27.4083 25.9121 27.5565 26.2671 27.5536 26.6439C27.5517 27.0215 27.3986 27.3737 27.1214 27.6397L24.5033 30.1756C24.2858 30.3857 24.2829 30.7303 24.4966 30.9442C24.7102 31.1591 25.0606 31.1629 25.2791 30.9527L31.8283 24.656C32.1873 24.3114 32.3933 23.8296 32.3933 23.3365V18.4823C32.3933 17.8046 32.9535 17.2527 33.6437 17.2527C34.3329 17.2527 34.8931 17.8046 34.8931 18.4823V24.9722C34.8931 25.7692 34.6139 26.5501 34.1057 27.1702L28.8242 33.624C28.5499 33.9582 28.3997 34.3785 28.3997 34.8073V36.8689C28.3997 37.169 28.6471 37.4132 28.9532 37.4132C29.2593 37.4132 29.5066 37.169 29.5066 36.8689V34.8073C29.5066 34.6265 29.5702 34.4485 29.6866 34.3065L34.9682 27.8536C35.6342 27.0395 36 26.0172 36 24.9722V18.4823C36 17.2044 34.9431 16.1641 33.6437 16.1641C32.454 16.1641 31.4683 17.035 31.3095 18.1614C31.0313 18.0185 30.7166 17.938 30.3826 17.938C30.0582 17.938 29.7521 18.0147 29.4806 18.1501V12.2557L31.6329 13.6434C31.8399 13.7768 32.0863 13.8223 32.3279 13.773C32.5695 13.7238 32.7774 13.5847 32.9121 13.3812L33.8015 12.0484C34.0807 11.629 33.9613 11.0648 33.5349 10.7903L28.4295 7.49998C28.1745 7.33527 27.8308 7.40532 27.6634 7.65617C27.4959 7.90796 27.5671 8.24495 27.8231 8.4106L32.7745 11.6016L32.0872 12.6343L20.5068 5.17042C20.1988 4.97163 19.8012 4.97163 19.4932 5.17042L7.91372 12.6343L7.22551 11.6016L19.6568 3.58961C19.8657 3.45425 20.1352 3.45425 20.3441 3.58961L25.8499 7.13839C26.105 7.30309 26.4486 7.23304 26.6161 6.98125C26.7836 6.7304 26.7123 6.39247 26.4563 6.22777L20.9505 2.679C20.374 2.30698 19.627 2.30698 19.0495 2.679L6.46606 10.7903C6.03965 11.0648 5.92029 11.629 6.19943 12.0484L7.08786 13.3812C7.22358 13.5847 7.43052 13.7238 7.67309 13.773C7.73565 13.7854 7.79919 13.7929 7.86272 13.7929C8.04079 13.7929 8.21501 13.7418 8.36806 13.6434L10.5203 12.2557V18.1501C10.2489 18.0147 9.94183 17.938 9.61745 17.938C9.28344 17.938 8.96869 18.0185 8.69147 18.1614C8.53169 17.035 7.54604 16.1641 6.35729 16.1641C5.05784 16.1641 4 17.2044 4 18.4823V24.9722C4 26.0172 4.36673 27.0395 5.03282 27.8536L6.17729 29.2517Z" fill="#4E3292"/>
<path d="M14.685 13.1066C14.685 13.0953 14.6954 13.0849 14.7076 13.0849H16.4926C16.5048 13.0849 16.5142 13.0953 16.5142 13.1066V14.8925C16.5142 14.9047 16.5048 14.9141 16.4926 14.9141H14.7076C14.6954 14.9141 14.685 14.9047 14.685 14.8925V13.1066ZM14.7076 16H16.4926C17.1029 16 17.6001 15.5028 17.6001 14.8925V13.1066C17.6001 12.4972 17.1029 12 16.4926 12H14.7076C14.0973 12 13.6001 12.4972 13.6001 13.1066V14.8925C13.6001 15.5028 14.0973 16 14.7076 16Z" fill="#4E3292"/>
<path d="M23.4851 13.1066C23.4851 13.0953 23.4945 13.0849 23.5068 13.0849H25.293C25.3044 13.0849 25.3147 13.0953 25.3147 13.1066V14.8925C25.3147 14.9047 25.3044 14.9141 25.293 14.9141H23.5068C23.4945 14.9141 23.4851 14.9047 23.4851 14.8925V13.1066ZM23.5068 16H25.293C25.9036 16 26.3999 15.5028 26.3999 14.8925V13.1066C26.3999 12.4972 25.9036 12 25.293 12H23.5068C22.8962 12 22.3999 12.4972 22.3999 13.1066V14.8925C22.3999 15.5028 22.8962 16 23.5068 16Z" fill="#4E3292"/>
</svg>
