<svg width="40" height="40" viewBox="0 0 40 40" fill="none" xmlns="http://www.w3.org/2000/svg">
<path d="M32.3329 31.6366C31.4509 32.4716 30.2925 32.8899 29.1333 32.8899C27.9746 32.8899 26.8158 32.4716 25.9337 31.6366C25.5382 31.2624 25.2324 30.8356 25.0142 30.3799C25.6345 30.1187 26.2159 29.7475 26.7239 29.2661C28.1182 27.9459 28.6368 26.1058 28.2817 24.3987C29.7049 24.1423 31.2338 24.5344 32.3329 25.5758C34.0971 27.2462 34.0971 29.9658 32.3329 31.6366ZM25.9337 25.5758C26.3004 25.2281 26.7152 24.9538 27.1577 24.7509C27.3861 26.0672 26.965 27.4674 25.8947 28.4808C25.528 28.828 25.1132 29.1027 24.6707 29.3064C24.4423 27.9888 24.8634 26.5898 25.9337 25.5758ZM23.5467 29.6578C23.2653 29.7083 22.9804 29.734 22.6951 29.734C21.5363 29.734 20.3775 29.3162 19.4951 28.4808C17.7313 26.81 17.7313 24.0915 19.4951 22.4207C21.2597 20.7491 24.1305 20.7491 25.8947 22.4207C26.2898 22.7948 26.5964 23.2217 26.8142 23.6773C26.1939 23.9382 25.6125 24.3097 25.1041 24.7901C23.7101 26.1107 23.1912 27.9504 23.5467 29.6578ZM32.9337 21.1558L32.837 22.263L34.8364 22.4199L32.7265 24.4178C31.3553 23.3615 29.5821 22.9997 27.9351 23.3327C27.731 22.8782 27.4587 22.4446 27.1173 22.0477L29.2273 20.0498L29.3927 21.9434L30.5617 21.8514L30.2511 18.2949L26.4958 18L26.3987 19.1071L28.3981 19.2641L26.2881 21.262C24.0523 19.5396 20.7477 19.663 18.6663 21.635C16.4446 23.7383 16.4446 27.1621 18.6663 29.2661C19.7769 30.3179 21.2359 30.8442 22.6951 30.8442C23.0968 30.8442 23.4986 30.8038 23.8933 30.7246C24.1703 31.3417 24.5736 31.9195 25.1041 32.4219C26.2151 33.4737 27.6743 34 29.1333 34C30.5925 34 32.0515 33.4737 33.1621 32.4219C35.2441 30.451 35.3751 27.3209 33.5557 25.2035L35.6656 23.2044L35.8309 25.0981L37 25.0072L36.689 21.4503L32.9337 21.1558Z" fill="#4E3292"/>
<path d="M14.5432 16.7042C14.2444 16.7042 13.9525 16.6741 13.6703 16.6168C13.8284 16.1118 13.9134 15.5752 13.9134 15.0184C13.9134 12.8877 12.6637 11.0411 10.8526 10.1596C11.6163 8.93322 12.9853 8.11361 14.5432 8.11361C16.9327 8.11361 18.8769 10.0396 18.8769 12.4089C18.8769 14.7777 16.9327 16.7042 14.5432 16.7042ZM12.6081 16.252C11.1874 15.5456 10.2095 14.0886 10.2095 12.4089C10.2095 11.9807 10.2739 11.5667 10.3919 11.1765C11.8126 11.8818 12.7905 13.3398 12.7905 15.0184C12.7905 15.4466 12.7262 15.8613 12.6081 16.252ZM8.45676 19.3149C6.0673 19.3149 4.12346 17.3873 4.12346 15.0184C4.12346 12.6507 6.0673 10.7231 8.45676 10.7231C8.75559 10.7231 9.04754 10.7539 9.32981 10.8105C9.17207 11.3163 9.08657 11.8529 9.08657 12.4089C9.08657 14.5396 10.3367 16.3862 12.1474 17.2673C11.3837 18.4953 10.0152 19.3149 8.45676 19.3149ZM20 12.4089C20 9.42657 17.5523 7 14.5432 7C12.4999 7 10.7157 8.11917 9.78106 9.77116C9.35664 9.66653 8.91333 9.61 8.45676 9.61C5.44814 9.61 3 12.0362 3 15.0184C3 17.8136 5.14931 20.1191 7.89503 20.3996V22.9218H5.88041V24.0342H7.89503V26H9.0185V24.0342H11.033V22.9218H9.01811V20.3996C10.8239 20.2151 12.371 19.1555 13.2193 17.6562C13.4671 17.7176 13.7217 17.7626 13.9819 17.7896V20.3122H11.967V21.4246H13.9819V23.3904H15.105V21.4246H17.12V20.3111H15.105V17.7896C17.8508 17.5091 20 15.2037 20 12.4089Z" fill="#4E3292"/>
</svg>
