<svg width="35" height="34" viewBox="0 0 35 34" fill="none" xmlns="http://www.w3.org/2000/svg">
<path d="M14.7318 15.2548H19.6787C24.4861 15.2548 28.3973 19.0544 28.3973 23.7247V29.1307C28.3973 30.1575 27.5377 30.993 26.4804 30.993H17.7701L17.9043 30.534C18.363 28.965 19.8552 27.8692 21.5337 27.8692H24.6254C24.9323 27.8692 25.1821 27.6267 25.1821 27.3287V24.3251C25.1821 24.0272 24.9323 23.7847 24.6254 23.7847C24.3184 23.7847 24.069 24.0272 24.069 24.3251V26.788H21.5337C19.9296 26.788 18.4257 27.5576 17.5106 28.8464L17.2051 29.2767L16.8999 28.8464C15.9848 27.5576 14.4805 26.788 12.8768 26.788H10.3414V24.3251C10.3414 24.0272 10.0917 23.7847 9.78509 23.7847C9.47802 23.7847 9.22836 24.0272 9.22836 24.3251V27.3287C9.22836 27.6267 9.47802 27.8692 9.78509 27.8692H12.8768C14.5553 27.8692 16.0475 28.965 16.5061 30.534L16.64 30.993H7.92972C6.87272 30.993 6.01302 30.1575 6.01302 29.1307V23.7247C6.01302 19.0544 9.92434 15.2548 14.7318 15.2548ZM11.5164 8.64722C11.5164 5.59991 14.0682 3.12072 17.2051 3.12072C20.3419 3.12072 22.894 5.59991 22.894 8.64722C22.894 11.6944 20.3419 14.1736 17.2051 14.1736C14.0682 14.1736 11.5164 11.6944 11.5164 8.64722ZM4.90002 23.7247V29.1307C4.90002 30.7536 6.25914 32.0742 7.92972 32.0742H26.4804C28.1513 32.0742 29.5104 30.7536 29.5104 29.1307V23.7247C29.5104 19.2254 26.2216 15.2934 21.6898 14.3747L20.934 14.2214L21.5294 13.744C23.104 12.4811 24.007 10.6234 24.007 8.64722C24.007 5.00387 20.9555 2.03988 17.2051 2.03988C13.4546 2.03988 10.4034 5.00387 10.4034 8.64722C10.4034 10.6234 11.3064 12.4811 12.8811 13.744L13.4764 14.2214L12.7207 14.3747C8.1889 15.2934 4.90002 19.2254 4.90002 23.7247Z" fill="#4E3292"/>
<path d="M13.9518 19.3298C14.2639 19.0262 14.6792 18.859 15.121 18.859C15.563 18.859 15.9782 19.0262 16.2907 19.3298L16.8117 19.8359C16.917 19.9379 17.0567 19.9942 17.2053 19.9942C17.3537 19.9942 17.4937 19.9379 17.5987 19.8359L18.1201 19.3298C18.4318 19.0262 18.8471 18.859 19.2894 18.859C19.7312 18.859 20.1465 19.0262 20.4586 19.3301C20.7707 19.633 20.9423 20.0363 20.9423 20.4659C20.9423 20.8952 20.7707 21.299 20.4586 21.6017L17.2051 24.7623L13.9518 21.6017C13.6397 21.299 13.468 20.8955 13.468 20.4659C13.468 20.0363 13.6397 19.633 13.9518 19.3298ZM16.812 25.9091C16.9167 26.0111 17.0567 26.0674 17.2051 26.0674C17.3537 26.0674 17.4934 26.0111 17.5984 25.9091L21.2456 22.3664C21.7681 21.8585 22.0562 21.1834 22.0562 20.4655C22.0562 19.748 21.7681 19.073 21.2456 18.5651C20.7233 18.0576 20.0284 17.7778 19.2894 17.7778C18.6097 17.7778 17.9571 18.019 17.4518 18.456L17.2051 18.6696L16.9586 18.456C16.4533 18.019 15.8007 17.7778 15.121 17.7778C14.382 17.7778 13.6871 18.0576 13.1647 18.5651C12.6423 19.073 12.3542 19.748 12.3542 20.4655C12.3542 21.1834 12.6423 21.8585 13.1647 22.3664L16.812 25.9091Z" fill="#4E3292"/>
</svg>
