<svg width="40" height="40" viewBox="0 0 40 40" fill="none" xmlns="http://www.w3.org/2000/svg">
<path d="M21.539 23.0302L21.1291 23.0566L21.2316 22.654C21.3969 22.0034 21.481 21.3306 21.481 20.6516C21.481 17.146 19.1688 13.9794 15.859 12.9538L15.4675 12.832L15.7034 12.491C16.9446 10.7042 18.9677 9.63593 21.1166 9.63593C24.7637 9.63593 27.7303 12.6441 27.7303 16.3407C27.7303 19.8686 25.0102 22.8071 21.539 23.0302ZM19.858 22.6395L19.7749 22.9115L19.5013 22.8423C16.5579 22.0906 14.5019 19.417 14.5019 16.3407C14.5019 15.6637 14.6014 14.9944 14.7986 14.3525L14.8827 14.0793L15.1553 14.1497C18.0987 14.9013 20.1548 17.575 20.1548 20.6516C20.1548 21.3275 20.0552 21.9964 19.858 22.6395ZM18.9532 24.4998C17.7121 26.2878 15.6889 27.3549 13.5401 27.3549C9.89294 27.3549 6.92632 24.3478 6.92632 20.6516C6.92632 17.1222 9.64548 14.1841 13.1176 13.9618L13.5265 13.9354L13.425 14.3369C13.2597 14.9886 13.1756 15.6626 13.1756 16.3407C13.1756 19.846 15.4869 23.0107 18.7966 24.0375L19.1891 24.1599L18.9532 24.4998ZM29.3629 6.1445H31.9787L26.9966 10.9315L26.7927 10.7187C25.2837 9.15409 23.2673 8.29191 21.1156 8.29191C18.2302 8.29191 15.5661 9.88783 14.1635 12.4558L14.0746 12.6196L13.891 12.6115C13.774 12.6066 13.658 12.6028 13.5401 12.6028C9.16216 12.6028 5.6001 16.2133 5.6001 20.6516C5.6001 24.7359 8.616 28.1712 12.614 28.6442L12.8769 28.6745V31.8334H10.0012V33.1767H12.8769V36H14.2032V33.1767H17.2055V31.8334H14.2032V28.6745L14.4661 28.6442C16.9987 28.3446 19.2509 26.8084 20.4931 24.5351L20.582 24.3723L20.7657 24.3793C20.8826 24.3854 20.9986 24.3881 21.1156 24.3881C25.4945 24.3881 29.0565 20.7779 29.0565 16.3407C29.0565 14.8845 28.667 13.4581 27.9304 12.2128L27.8076 12.0054L33.0739 6.94398V9.76154H34.4001V4.79999H29.3629V6.1445Z" fill="#4E3292"/>
</svg>
