<svg width="40" height="40" viewBox="0 0 40 40" fill="none" xmlns="http://www.w3.org/2000/svg">
<path d="M4.77326 24.3186C4.94591 24.4365 5.12851 24.54 5.3184 24.6291C5.54588 24.7432 5.92587 24.9339 5.95245 25.069C5.98595 25.2453 5.96462 25.4274 5.8909 25.5912C5.81329 25.757 5.73071 25.8988 5.65991 26.0215C5.46749 26.3559 5.14603 26.9156 5.63138 27.3056C5.74483 27.4091 5.94066 27.5586 6.11946 27.6937C5.98789 27.9198 5.92849 28.1795 5.94826 28.4392C5.97611 28.6424 6.08752 28.8254 6.25677 28.9452C6.3747 29.0276 6.50139 29.1004 6.62429 29.1704C6.93279 29.3429 7.05374 29.4234 7.09669 29.5834C7.12522 29.7933 7.10506 30.007 7.03894 30.2091C7.00807 30.3433 6.97807 30.4775 6.9586 30.6145C6.9065 31.086 6.96736 31.5622 7.13593 32.0059C7.3714 32.8291 8.12756 33.4021 8.99601 33.4174C9.14024 33.4165 9.28397 33.4021 9.42508 33.3724C10.925 33.0226 12.4033 32.5876 13.8519 32.0692C15.0341 32.7524 15.782 34.829 15.9767 35.609C16.0349 35.839 16.2453 36 16.4864 36L24 35.9799C23.9776 35.6349 23.9719 35.2899 23.9391 34.9459L16.8835 34.967C16.5343 33.7413 15.9017 32.6115 15.0348 31.6677L15.5073 31.5057C15.86 31.384 16.1262 31.293 16.2639 31.2479C18.5121 30.5417 19.6365 29.5345 19.606 28.2514C19.6042 28.1134 19.5467 27.9831 19.4456 27.8882C19.3448 27.7943 19.2093 27.7435 19.0698 27.7493C18.7799 27.756 18.5505 27.9927 18.5573 28.2782C18.5699 28.8062 18.1275 29.5805 15.9448 30.2638C15.8021 30.3088 15.5244 30.4037 15.1619 30.5292C14.7716 30.6634 14.2771 30.8339 13.7308 31.016H13.727C12.2511 31.5488 10.7443 31.9973 9.21512 32.3595C8.72598 32.4496 8.25085 32.1477 8.13332 31.6715C8.02074 31.3802 7.97624 31.0668 8.00399 30.7563C8.01918 30.6528 8.04392 30.5445 8.06788 30.4382C8.17967 30.0779 8.19758 29.6955 8.12036 29.3266C7.96786 28.8542 7.61447 28.4689 7.15112 28.2715L7.03855 28.2083C7.09523 28.0952 7.16252 27.9879 7.24091 27.8882C7.32875 27.778 7.36789 27.6381 7.34851 27.4992C7.32952 27.3602 7.25425 27.2356 7.13973 27.1532C7.0142 27.0612 6.71972 26.8427 6.49915 26.6703C6.52418 26.6252 6.55164 26.5754 6.57861 26.5313C6.66119 26.3885 6.75546 26.2208 6.84681 26.0311C7.01304 25.6689 7.06211 25.2654 6.98645 24.8754C6.86083 24.2449 6.24693 23.9363 5.79917 23.7111C5.64852 23.6402 5.50362 23.5578 5.3667 23.4639C5.25403 23.3901 5.14866 23.3057 5.05167 23.2118C5.05167 23.1342 5.13688 22.9445 5.53673 22.4654C6.47627 21.2742 7.28161 19.9863 7.93894 18.6236C8.06213 18.4099 8.13136 18.1704 8.1413 17.9251C8.08608 17.4057 7.80543 16.9342 7.3714 16.6343C7.15833 16.4416 6.95752 16.2605 6.93503 16.1082C6.94 15.9817 6.96853 15.8571 7.01985 15.7411C7.10545 15.5198 7.20478 15.3032 7.30323 15.0857C7.52468 14.6363 7.70074 14.1677 7.82821 13.6847C7.94877 13.1059 8.10663 12.5348 8.3011 11.9751C8.71497 10.8511 9.35555 9.82189 10.1848 8.94698C11.1887 7.90151 12.7692 7.16077 14.8903 6.74679C16.5127 6.39606 18.1594 6.1632 19.8165 6.04821C20.3737 6.01946 20.9325 6.03192 21.4882 6.08366C21.6758 6.10091 21.858 6.0185 21.9669 5.86709C22.0753 5.71664 22.0942 5.5202 22.0156 5.35154C21.9368 5.18288 21.7732 5.06981 21.586 5.05256C20.9793 4.99794 20.3695 4.98548 19.7609 5.01711C18.0529 5.13306 16.3555 5.37263 14.6826 5.7339C12.3154 6.19867 10.5952 7.01511 9.42099 8.23691C8.49392 9.21243 7.77728 10.3624 7.31433 11.6177C7.10165 12.2281 6.92938 12.852 6.79733 13.4844C6.68554 13.8907 6.5345 14.2846 6.34694 14.6631C6.24196 14.8979 6.13397 15.1326 6.03922 15.377C5.91973 15.6501 5.87065 15.9481 5.89616 16.2442C6.00494 16.7061 6.27731 17.1134 6.6646 17.3951C6.92169 17.627 7.09143 17.7899 7.09367 17.9327C7.07468 18.0113 7.04419 18.086 7.00427 18.1569C6.37586 19.4592 5.60519 20.6916 4.70664 21.831C4.32627 22.2871 3.92721 22.819 4.01134 23.3508C4.12275 23.7609 4.39746 24.1097 4.77326 24.3186Z" fill="#4E3292"/>
<path d="M25.0648 36L29.2918 35.9885C29.4686 35.9885 29.6348 35.9097 29.7391 35.7771C29.8438 35.6436 29.874 35.4725 29.8208 35.3159C29.6836 34.9643 29.4943 34.6338 29.258 34.3312C29.1243 34.1534 29.0039 33.9661 28.8981 33.772C28.6465 33.2964 28.437 32.8036 28.2704 32.2972C27.9535 31.2961 27.7337 30.27 27.6133 29.2324C27.4181 27.6827 27.6701 26.1128 28.3433 24.6842C28.7543 23.8916 29.2609 23.146 29.8527 22.46C30.186 22.0402 30.5322 21.6059 30.8431 21.1496C31.3774 20.3762 31.7643 19.523 31.9874 18.6266C32.0514 18.3509 31.8662 18.0771 31.5702 18.0137C31.2743 17.9493 30.9788 18.1184 30.9055 18.3932C30.7098 19.1752 30.3712 19.9198 29.9051 20.5943C29.6168 21.0199 29.2829 21.4388 28.9601 21.8432C28.3171 22.5917 27.7683 23.4064 27.3246 24.2701C26.5722 25.8679 26.2907 27.6241 26.5098 29.3573C26.6382 30.4574 26.8726 31.545 27.2107 32.6066C27.3935 33.1638 27.6238 33.7067 27.9004 34.2284C28.0272 34.4618 28.1709 34.6876 28.3308 34.9028L28.3682 34.9537L25 34.9633C25.0346 35.3083 25.0406 35.6541 25.0648 36Z" fill="#4E3292"/>
<path d="M10.4417 12.6437C10.7638 11.8336 11.262 11.0911 11.9081 10.4602C12.6205 9.77527 13.852 9.27125 15.5693 8.96164C15.8589 8.90944 16.047 8.65383 15.9897 8.39102C15.932 8.12732 15.651 7.95721 15.3614 8.00941C13.4223 8.35952 11.9995 8.95894 11.1315 9.79236C10.3859 10.5196 9.8102 11.3755 9.43894 12.3097C9.25896 12.794 9.11219 13.289 9 13.7903L10.0437 14C10.1459 13.541 10.2791 13.0883 10.4417 12.6437Z" fill="#4E3292"/>
<path d="M22.05 10.0542L22.4101 8.16684H23.5899L23.9496 10.0562C23.987 10.252 24.1261 10.4096 24.309 10.4614C24.722 10.5789 25.1191 10.7532 25.4897 10.9793C25.6548 11.0801 25.8599 11.0733 26.0185 10.9607L27.5317 9.89268L28.3696 10.7727L27.3545 12.3703C27.2484 12.5387 27.2419 12.7551 27.3375 12.9293C27.5516 13.3209 27.716 13.7389 27.8277 14.1755C27.8773 14.3683 28.0258 14.5152 28.2116 14.5553L30.0001 14.9322V16.1784L28.2102 16.5582C28.0244 16.5974 27.8754 16.7442 27.8258 16.938C27.7146 17.3736 27.5498 17.7926 27.3361 18.1832C27.2405 18.3575 27.247 18.5748 27.353 18.7422L28.3649 20.3388L27.5317 21.2238L26.0171 20.1528C25.8584 20.0402 25.6533 20.0334 25.4882 20.1342C25.118 20.3604 24.7209 20.5336 24.3076 20.6511C24.1246 20.704 23.9855 20.8606 23.9482 21.0574L23.5899 22.9447H22.4101L22.0507 21.0554C22.013 20.8596 21.8739 20.702 21.691 20.6501C21.2777 20.5326 20.8809 20.3584 20.5103 20.1323C20.3452 20.0314 20.1398 20.0383 19.9811 20.1509L18.4687 21.2189L17.6304 20.3388L18.6455 18.7402C18.7516 18.5728 18.7585 18.3565 18.6624 18.1822C18.4488 17.7907 18.2839 17.3717 18.1727 16.9361C18.1231 16.7432 17.9746 16.5964 17.7887 16.5562L15.9999 16.1784V14.9332L17.7898 14.5534C17.9756 14.5142 18.1246 14.3664 18.1742 14.1735C18.2854 13.7379 18.4502 13.3189 18.6639 12.9283C18.7595 12.7531 18.7534 12.5368 18.6472 12.3694L17.6347 10.7727L18.4687 9.88778L19.9829 10.9597C20.1416 11.0713 20.347 11.0782 20.5118 10.9773C20.8824 10.7512 21.2794 10.577 21.6924 10.4595C21.8746 10.4076 22.013 10.25 22.05 10.0542ZM24.8886 7.46103L26.0315 8.27256C26.1917 8.38513 26.3996 8.39199 26.5655 8.28724C26.8517 8.11006 27.1596 7.97399 27.4806 7.88392C27.6639 7.83106 27.8034 7.67345 27.8407 7.47767L28.1091 6.0553H28.8908L29.1597 7.48061C29.197 7.67639 29.3361 7.834 29.5198 7.88686C29.8408 7.97692 30.1487 8.113 30.4348 8.29018C30.6011 8.39395 30.809 8.38611 30.9688 8.27256L32.1117 7.46201L32.6667 8.04839L31.9002 9.2554C31.7926 9.42476 31.7872 9.64404 31.8856 9.81926C32.0541 10.1208 32.1828 10.4458 32.2682 10.7845C32.3175 10.9793 32.4667 11.1261 32.6533 11.1653L34.0031 11.4482V12.2734L32.6555 12.5573C32.4692 12.5965 32.32 12.7433 32.2708 12.9371C32.1853 13.2759 32.0563 13.6009 31.8879 13.9033C31.7893 14.0786 31.7951 14.2979 31.9027 14.4672L32.6697 15.6733L32.1146 16.2596L31.0004 15.4726V14.9332C31.0004 14.6238 30.8725 14.3302 30.6504 14.1295C31.5306 13.2338 31.8064 11.8633 31.3481 10.668C30.8891 9.47175 29.7874 8.69056 28.5652 8.69448C28.2627 8.69644 27.9628 8.74831 27.6755 8.84816C27.431 8.81097 27.1825 8.86873 26.9752 9.01067L25.7132 9.90345C25.4418 9.75857 25.1603 9.63424 24.8713 9.53439L24.5709 7.95734C24.5623 7.91525 24.5507 7.87413 24.5365 7.83302L24.8886 7.46103ZM29.4618 13.7399L28.7025 13.5823C28.6076 13.2768 28.4906 12.9792 28.3526 12.6924L29.2024 11.3532C29.4632 10.9343 29.4096 10.3802 29.0734 10.0258V10.0248L28.8402 9.77815C29.7067 9.90051 30.3965 10.6063 30.5392 11.5167C30.6819 12.4271 30.2446 13.3287 29.4618 13.7399ZM21.4294 7.95538L21.1295 9.53439C20.8404 9.63424 20.5586 9.75857 20.2872 9.90345L19.0182 9.00675C18.6215 8.73265 18.097 8.79041 17.7619 9.14478L16.9319 10.0199C16.5896 10.3753 16.5342 10.9372 16.7998 11.3581L17.646 12.6924C17.5079 12.9783 17.391 13.2749 17.296 13.5803L15.8021 13.8975C15.3352 13.9973 14.9993 14.43 15 14.9332V16.1784C14.9993 16.6806 15.334 17.1133 15.7999 17.2141L17.296 17.5303C17.391 17.8347 17.5079 18.1323 17.646 18.4191L16.7961 19.7593C16.5364 20.1773 16.5907 20.7314 16.9266 21.0848L17.7565 21.9609C18.0934 22.3211 18.624 22.3789 19.0236 22.0999L20.2868 21.2071C20.5582 21.352 20.8397 21.4763 21.1291 21.5762L21.4291 23.1532C21.5232 23.6466 21.9337 24 22.4101 24H23.5899C24.0656 24 24.4753 23.6476 24.5706 23.1562L24.8709 21.5772C25.16 21.4763 25.4414 21.353 25.7128 21.2071L26.9821 22.1048C27.3788 22.3789 27.9034 22.3211 28.2381 21.9668L29.0677 21.0916C29.41 20.7363 29.4654 20.1753 29.1996 19.7534L28.3536 18.4191C28.4917 18.1333 28.6086 17.8357 28.7036 17.5313L30.1979 17.2141C30.4943 17.1505 30.7478 16.9488 30.8862 16.6639L31.6397 17.1974C31.7853 17.2934 31.9531 17.3453 32.1251 17.3453C32.3645 17.3453 32.5946 17.2444 32.7638 17.0653L33.4285 16.3634C33.7311 16.0423 33.7796 15.5421 33.5452 15.1632L32.9 14.1442C32.9939 13.9454 33.0746 13.7409 33.142 13.5314L34.2737 13.2925C34.6972 13.2054 35.0018 12.8128 35 12.3566V11.365C35.0018 10.9108 34.699 10.5202 34.2777 10.4301L33.1412 10.1913C33.0743 9.98079 32.9935 9.77619 32.9 9.57747L33.5553 8.54764C33.7821 8.16977 33.7299 7.67639 33.4304 7.3602L32.7653 6.65831C32.4613 6.33918 31.9871 6.28729 31.6285 6.53594L30.6631 7.2163C30.475 7.11743 30.2813 7.03226 30.082 6.9608L29.8563 5.7665C29.773 5.32011 29.4013 4.99903 28.9702 5.00001H28.0301C27.6001 4.99805 27.2292 5.31717 27.1444 5.76258L26.918 6.96177C26.7191 7.03323 26.525 7.11938 26.3369 7.21825L25.3607 6.52615C25.0028 6.28729 24.5358 6.34211 24.2366 6.65831L23.7866 7.13308C23.7218 7.11938 23.6558 7.11155 23.5899 7.11057H22.4101C21.9344 7.11057 21.5247 7.46396 21.4294 7.95538Z" fill="#4E3292"/>
<path d="M22.5002 12.9997C23.8808 12.9997 25.0002 14.1191 25.0002 15.5C25.0002 16.8809 23.8808 18.0003 22.5002 18.0003C21.1192 18.0003 20.0002 16.8809 20.0002 15.5C20.0017 14.12 21.1199 13.0016 22.5002 12.9997ZM19 15.5C19.0021 17.4327 20.5679 18.9981 22.5002 19C24.4333 19 26 17.4327 26 15.5C26 13.5673 24.4333 12 22.5002 12C20.5667 12 19 13.5673 19 15.5Z" fill="#4E3292"/>
<path d="M22.5 16C22.776 16 23 15.7764 23 15.5C23 15.2236 22.776 15 22.5 15C22.2235 15 22 15.2236 22 15.5C22 15.7764 22.2235 16 22.5 16Z" fill="#4E3292"/>
<path d="M8 16.5C8 16.7764 8.22383 17 8.50023 17C8.77617 17 9 16.7764 9 16.5C9 16.2236 8.77617 16 8.50023 16C8.22383 16 8 16.2236 8 16.5Z" fill="#4E3292"/>
</svg>
