<svg width="22" height="20" viewBox="0 0 22 20" fill="none" xmlns="http://www.w3.org/2000/svg">
<g clip-path="url(#clip0_1077_2578)">
<path fill-rule="evenodd" clip-rule="evenodd" d="M10.75 1.04497C10.6272 1.04067 10.5043 1.04067 10.3815 1.04497C9.57084 1.07332 8.8409 1.33611 8.04056 1.77356C7.26061 2.19986 6.3627 2.82181 5.2234 3.61096L5.16147 3.65385C4.02216 4.44299 3.12423 5.06494 2.45793 5.64037C1.77422 6.23085 1.2865 6.81148 1.00772 7.53771C0.965486 7.64772 0.927501 7.75917 0.893839 7.87184C0.671623 8.61559 0.708215 9.35863 0.897294 10.2195C1.08155 11.0584 1.42453 12.0647 1.85971 13.3415L3.37591 17.7902C3.70271 18.7491 4.63997 19.3983 5.69751 19.3983C7.04567 19.3983 8.13858 18.3564 8.13858 17.0711V14.7803C8.13858 14.2434 8.59514 13.8081 9.15834 13.8081H11.9731C12.5363 13.8081 12.9929 14.2434 12.9929 14.7803V17.0711C12.9929 18.3564 14.0858 19.3983 15.4339 19.3983C16.4915 19.3983 17.4287 18.7491 17.7555 17.7902L19.2718 13.3415C19.7069 12.0647 20.0499 11.0584 20.2342 10.2195C20.4232 9.35863 20.4598 8.61559 20.2376 7.87184C20.2039 7.75918 20.166 7.64773 20.1237 7.53771C19.845 6.81148 19.3572 6.23085 18.6735 5.64037C18.0072 5.06493 17.1093 4.44299 15.97 3.65385L15.908 3.61094C14.7687 2.82181 13.8708 2.19986 13.0909 1.77356C12.2906 1.33611 11.5606 1.07332 10.75 1.04497ZM10.4295 2.29413C10.5203 2.29095 10.6112 2.29095 10.7019 2.29413C11.2224 2.31233 11.7408 2.47648 12.4388 2.85798C13.1501 3.24677 13.9913 3.82838 15.1683 4.64368C16.3454 5.45898 17.1856 6.04196 17.7932 6.56677C18.3895 7.08173 18.7134 7.50102 18.8924 7.9673C18.9237 8.04861 18.9517 8.13099 18.9766 8.21427C19.1193 8.69181 19.1157 9.21254 18.9508 9.96328C18.7828 10.7284 18.4625 11.6708 18.0129 12.99L16.5086 17.404C16.3573 17.8478 15.9234 18.1483 15.4339 18.1483C14.8099 18.1483 14.304 17.666 14.304 17.0711V14.7803C14.304 13.553 13.2604 12.5581 11.9731 12.5581H9.15834C7.87101 12.5581 6.82742 13.553 6.82742 14.7803V17.0711C6.82742 17.666 6.32154 18.1483 5.69751 18.1483C5.208 18.1483 4.77416 17.8478 4.6229 17.404L3.11854 12.99C2.66894 11.6708 2.34867 10.7284 2.18062 9.96328C2.01573 9.21254 2.01217 8.69181 2.15484 8.21427C2.17972 8.131 2.2078 8.04862 2.23901 7.9673C2.41801 7.50102 2.74195 7.08173 3.33822 6.56677C3.94589 6.04196 4.78604 5.45898 5.96311 4.64368C7.14018 3.82838 7.98138 3.24677 8.6927 2.85798C9.39068 2.47648 9.90906 2.31233 10.4295 2.29413Z" fill="#4E3292"/>
</g>
<defs>
<clipPath id="clip0_1077_2578">
<rect width="20.9786" height="20" fill="white" transform="translate(0.076416)"/>
</clipPath>
</defs>
</svg>
