<svg width="22" height="20" viewBox="0 0 22 20" fill="none" xmlns="http://www.w3.org/2000/svg">
<g clip-path="url(#clip0_1077_2588)">
<path fill-rule="evenodd" clip-rule="evenodd" d="M13.2064 4.69348C12.0264 4.15307 10.9686 4.22499 10.0915 4.59883C9.23817 4.96256 8.5864 5.59755 8.14222 6.14525C7.79195 6.57716 7.14473 6.80054 6.58561 6.6825C5.87662 6.53281 4.94952 6.44277 4.04969 6.68414C3.12485 6.93222 2.2639 7.52254 1.72028 8.65783C1.07849 9.99812 1.22298 11.3293 1.82019 12.5202C2.41051 13.6974 3.44355 14.7446 4.61036 15.5858C5.78029 16.4292 7.11581 17.088 8.35147 17.4746C9.55994 17.8527 10.7754 18.0024 11.65 17.7005C12.5245 17.3987 13.3578 16.5419 14.0323 15.5139C14.722 14.4628 15.3056 13.1416 15.6381 11.7796C15.9697 10.4213 16.0601 8.98635 15.7232 7.72173C15.3823 6.44236 14.5994 5.33147 13.2064 4.69348ZM8.96149 6.74912C9.35428 6.26479 9.88032 5.77031 10.5142 5.50013C11.1244 5.24006 11.8633 5.17362 12.758 5.58339C13.8274 6.07319 14.4402 6.91661 14.7195 7.96477C15.0027 9.02768 14.9376 10.2935 14.6295 11.5559C14.3222 12.8146 13.7818 14.0341 13.1544 14.9903C12.5118 15.9696 11.8349 16.5867 11.2975 16.7722C10.76 16.9577 9.82562 16.8967 8.67437 16.5365C7.5503 16.1848 6.31628 15.5778 5.23497 14.7983C4.15054 14.0165 3.25065 13.0838 2.75448 12.0944C2.2652 11.1187 2.16962 10.0968 2.66234 9.06782C3.07454 8.20698 3.68679 7.80709 4.33018 7.63451C4.99857 7.45522 5.73474 7.51405 6.36171 7.64642C7.31234 7.84712 8.36594 7.48348 8.96149 6.74912Z" fill="#EC1C80"/>
<path fill-rule="evenodd" clip-rule="evenodd" d="M20.4335 3.08727C19.6039 2.1219 18.6134 1.76068 17.6527 1.74592C16.7181 1.73155 15.8458 2.04425 15.2004 2.36154C14.6914 2.61175 14.0058 2.5533 13.5515 2.22095C12.9754 1.79951 12.1751 1.3442 11.2527 1.20022C10.3045 1.05223 9.26252 1.24014 8.26637 2.04983C7.09035 3.00572 6.63088 4.27033 6.64391 5.59027C6.6568 6.89499 7.1285 8.26042 7.81282 9.49301C8.49898 10.7289 9.41707 11.8643 10.3654 12.7127C11.2928 13.5424 12.3279 14.1681 13.2543 14.2471C14.1807 14.326 15.3158 13.8855 16.383 13.2258C17.4742 12.5513 18.5891 11.5892 19.4944 10.4891C20.3973 9.39179 21.1156 8.12784 21.3712 6.84601C21.6297 5.54923 21.4129 4.22695 20.4335 3.08727ZM15.675 3.23902C16.2457 2.95844 16.9418 2.72239 17.636 2.73306C18.3043 2.74333 19.0034 2.98097 19.6324 3.71296C20.3844 4.58791 20.5656 5.59924 20.3538 6.66167C20.139 7.73904 19.5187 8.8599 18.6796 9.87969C17.8428 10.8965 16.8123 11.7838 15.8196 12.3974C14.803 13.0258 13.9159 13.3123 13.3466 13.2637C12.7773 13.2152 11.9576 12.7832 11.074 11.9928C10.2114 11.221 9.36228 10.1734 8.7281 9.03116C8.09209 7.8856 7.69028 6.67759 7.67945 5.58097C7.66877 4.49958 8.03539 3.53497 8.93825 2.80111C9.69358 2.18716 10.4258 2.07157 11.0853 2.17452C11.7706 2.28147 12.4116 2.63153 12.9211 3.00421C13.6935 3.56928 14.8096 3.66445 15.675 3.23902Z" fill="#EC1C80"/>
</g>
<defs>
<clipPath id="clip0_1077_2588">
<rect width="20.9786" height="20" fill="white" transform="translate(0.617676)"/>
</clipPath>
</defs>
</svg>
