<svg width="22" height="20" viewBox="0 0 22 20" fill="none" xmlns="http://www.w3.org/2000/svg">
<path d="M12.1614 4.375C11.7993 4.375 11.5058 4.65482 11.5058 5C11.5058 5.34518 11.7993 5.625 12.1614 5.625L17.406 5.625C17.7681 5.625 18.0616 5.34518 18.0616 5C18.0616 4.65482 17.7681 4.375 17.406 4.375H12.1614Z" fill="#EC1C80"/>
<path d="M5.16852 9.375C4.80645 9.375 4.51294 9.65482 4.51294 10C4.51294 10.3452 4.80645 10.625 5.16852 10.625H17.406C17.7681 10.625 18.0616 10.3452 18.0616 10C18.0616 9.65482 17.7681 9.375 17.406 9.375H5.16852Z" fill="#EC1C80"/>
<path d="M8.66495 14.375C8.30289 14.375 8.00937 14.6548 8.00937 15C8.00937 15.3452 8.30289 15.625 8.66495 15.625L17.406 15.625C17.7681 15.625 18.0616 15.3452 18.0616 15C18.0616 14.6548 17.7681 14.375 17.406 14.375L8.66495 14.375Z" fill="#EC1C80"/>
</svg>
