<svg width="22" height="20" viewBox="0 0 22 20" fill="none" xmlns="http://www.w3.org/2000/svg">
<g clip-path="url(#clip0_1077_2589)">
<path fill-rule="evenodd" clip-rule="evenodd" d="M10.7461 3.33325C8.93577 3.33325 7.46821 4.73236 7.46821 6.45825C7.46821 8.18414 8.93577 9.58325 10.7461 9.58325C12.5564 9.58325 14.024 8.18414 14.024 6.45825C14.024 4.73236 12.5564 3.33325 10.7461 3.33325ZM8.77937 6.45825C8.77937 5.42272 9.65991 4.58325 10.7461 4.58325C11.8323 4.58325 12.7129 5.42272 12.7129 6.45825C12.7129 7.49379 11.8323 8.33325 10.7461 8.33325C9.65991 8.33325 8.77937 7.49379 8.77937 6.45825Z" fill="#EC1C80"/>
<path fill-rule="evenodd" clip-rule="evenodd" d="M8.12379 10.8333C6.31345 10.8333 4.84588 12.2324 4.84588 13.9583C4.84588 15.6841 6.31345 17.0833 8.12379 17.0833H13.3684C15.1788 17.0833 16.6463 15.6841 16.6463 13.9583C16.6463 12.2324 15.1788 10.8333 13.3684 10.8333H8.12379ZM6.15704 13.9583C6.15704 12.9227 7.03759 12.0833 8.12379 12.0833H13.3684C14.4546 12.0833 15.3352 12.9227 15.3352 13.9583C15.3352 14.9938 14.4546 15.8333 13.3684 15.8333H8.12379C7.03759 15.8333 6.15704 14.9938 6.15704 13.9583Z" fill="#EC1C80"/>
<path d="M7.03302 8.65713C6.89515 8.44598 6.63646 8.33325 6.37557 8.33325C5.28937 8.33325 4.40883 7.49379 4.40883 6.45825C4.40883 5.42272 5.28937 4.58325 6.37557 4.58325C6.63646 4.58325 6.89515 4.47052 7.03302 4.25937C7.03912 4.25004 7.04526 4.24072 7.05143 4.23143C7.28097 3.88601 7.16467 3.39692 6.73833 3.35217C6.61921 3.33967 6.49818 3.33325 6.37557 3.33325C4.56523 3.33325 3.09767 4.73236 3.09767 6.45825C3.09767 8.18414 4.56523 9.58325 6.37557 9.58325C6.49818 9.58325 6.61921 9.57683 6.73833 9.56433C7.16467 9.51958 7.28097 9.0305 7.05143 8.68507C7.04526 8.67578 7.03912 8.66647 7.03302 8.65713Z" fill="#EC1C80"/>
<path d="M4.37237 15.264C4.27314 15.1061 4.09799 14.9999 3.90498 14.9999H3.75325C2.66704 14.9999 1.7865 14.1605 1.7865 13.1249C1.7865 12.0894 2.66704 11.2499 3.75325 11.2499H3.90498C4.09799 11.2499 4.27314 11.1437 4.37237 10.9859C4.61458 10.6006 4.35174 9.99992 3.8806 9.99992H3.75325C1.94291 9.99992 0.475342 11.399 0.475342 13.1249C0.475342 14.8508 1.94291 16.2499 3.75325 16.2499H3.8806C4.35174 16.2499 4.61458 15.6492 4.37237 15.264Z" fill="#EC1C80"/>
<path d="M14.4408 8.68507C14.2113 9.0305 14.3276 9.51958 14.7539 9.56433C14.873 9.57683 14.994 9.58325 15.1167 9.58325C16.927 9.58325 18.3946 8.18414 18.3946 6.45825C18.3946 4.73236 16.927 3.33325 15.1167 3.33325C14.994 3.33325 14.873 3.33967 14.7539 3.35217C14.3276 3.39692 14.2113 3.88601 14.4408 4.23143C14.447 4.24072 14.4531 4.25003 14.4592 4.25937C14.5971 4.47052 14.8558 4.58325 15.1167 4.58325C16.2029 4.58325 17.0834 5.42272 17.0834 6.45825C17.0834 7.49379 16.2029 8.33325 15.1167 8.33325C14.8558 8.33325 14.5971 8.44598 14.4592 8.65713C14.4531 8.66647 14.447 8.67578 14.4408 8.68507Z" fill="#EC1C80"/>
<path d="M17.1199 15.264C16.8776 15.6492 17.1405 16.2499 17.6116 16.2499H17.739C19.5493 16.2499 21.0169 14.8508 21.0169 13.1249C21.0169 11.399 19.5493 9.99992 17.739 9.99992H17.6116C17.1405 9.99992 16.8776 10.6006 17.1199 10.9859C17.2191 11.1437 17.3942 11.2499 17.5872 11.2499H17.739C18.8252 11.2499 19.7057 12.0894 19.7057 13.1249C19.7057 14.1605 18.8252 14.9999 17.739 14.9999H17.5872C17.3942 14.9999 17.2191 15.1061 17.1199 15.264Z" fill="#EC1C80"/>
</g>
<defs>
<clipPath id="clip0_1077_2589">
<rect width="20.9786" height="20" fill="white" transform="translate(0.256836)"/>
</clipPath>
</defs>
</svg>
