<svg width="22" height="20" viewBox="0 0 22 20" fill="none" xmlns="http://www.w3.org/2000/svg">
<path d="M7.43017 7.29167L10.0525 7.29167C10.4146 7.29167 10.7081 7.01185 10.7081 6.66667C10.7081 6.32149 10.4146 6.04167 10.0525 6.04167L7.43017 6.04167C7.06811 6.04167 6.77459 6.32149 6.77459 6.66667C6.77459 7.01185 7.06811 7.29167 7.43017 7.29167Z" fill="#EC1C80"/>
<path d="M14.423 10.625C14.7851 10.625 15.0786 10.3452 15.0786 10C15.0786 9.65482 14.7851 9.375 14.423 9.375L7.43017 9.375C7.06811 9.375 6.77459 9.65482 6.77459 10C6.77459 10.3452 7.06811 10.625 7.43017 10.625L14.423 10.625Z" fill="#EC1C80"/>
<path fill-rule="evenodd" clip-rule="evenodd" d="M14.8282 1.97811C13.8299 1.87499 12.5715 1.87499 10.9662 1.875H10.8871C9.28172 1.87499 8.02336 1.87499 7.025 1.97811C6.0062 2.08334 5.18071 2.30194 4.47589 2.79013C4.0492 3.08568 3.67397 3.44341 3.36396 3.8502C2.85188 4.52213 2.62259 5.30912 2.5122 6.2804C2.40404 7.23218 2.40405 8.43185 2.40405 9.96229V10.0377C2.40405 11.5682 2.40404 12.7678 2.5122 13.7196C2.62259 14.6909 2.85188 15.4779 3.36396 16.1498C3.67397 16.5566 4.0492 16.9143 4.47589 17.2099C5.18071 17.6981 6.0062 17.9167 7.025 18.0219C8.02334 18.125 9.28168 18.125 10.887 18.125H10.9362C11.9503 18.125 12.8221 18.125 13.5714 18.1005C15.209 18.047 16.4126 17.8781 17.3773 17.2099C17.804 16.9143 18.1792 16.5566 18.4893 16.1498C19.1902 15.2301 19.3674 14.0826 19.4235 12.5214C19.4492 11.8071 19.4492 10.9759 19.4492 10.0092V9.96227C19.4492 8.43187 19.4492 7.23216 19.341 6.2804C19.2306 5.30912 19.0013 4.52213 18.4893 3.8502C18.1792 3.44341 17.804 3.08567 17.3773 2.79013C16.6725 2.30194 15.847 2.08334 14.8282 1.97811ZM5.24658 3.8014C5.69063 3.49383 6.25899 3.31454 7.16623 3.22083C8.08575 3.12586 9.27317 3.125 10.9266 3.125C12.58 3.125 13.7675 3.12586 14.687 3.22083C15.5942 3.31454 16.1626 3.49383 16.6066 3.8014C16.922 4.01985 17.1994 4.28426 17.4285 4.58493C17.7511 5.00826 17.9392 5.55011 18.0375 6.41504C18.1371 7.29166 18.138 8.42369 18.138 10C18.138 10.707 18.138 11.3265 18.1285 11.8765C17.7136 11.8802 17.4082 11.8925 17.1332 11.934C14.9826 12.2587 13.2959 13.8668 12.9552 15.9171C12.9117 16.1793 12.8988 16.4704 12.8949 16.866C12.318 16.875 11.6682 16.875 10.9266 16.875C9.27317 16.875 8.08575 16.8741 7.16623 16.7792C6.25899 16.6855 5.69063 16.5062 5.24658 16.1986C4.9312 15.9802 4.65385 15.7157 4.42471 15.4151C4.10209 14.9917 3.91403 14.4499 3.81574 13.585C3.71612 12.7083 3.71522 11.5763 3.71522 10C3.71522 8.42369 3.71612 7.29166 3.81574 6.41504C3.91403 5.55011 4.10209 5.00826 4.42471 4.58493C4.65385 4.28426 4.9312 4.01985 5.24658 3.8014ZM17.3383 13.1686C17.5175 13.1415 17.7251 13.1312 18.079 13.1273C17.9971 14.2609 17.8092 14.9155 17.4285 15.4151C17.1994 15.7157 16.922 15.9802 16.6066 16.1986C16.0827 16.5615 15.396 16.7407 14.2069 16.8188C14.211 16.4813 14.2219 16.2835 14.2503 16.1126C14.502 14.5972 15.7487 13.4086 17.3383 13.1686Z" fill="#EC1C80"/>
</svg>
